<mxfile host="Electron" agent="Mozilla/5.0 (Windows NT 10.0; Win64; x64) AppleWebKit/537.36 (KHTML, like Gecko) draw.io/27.0.9 Chrome/134.0.6998.205 Electron/35.4.0 Safari/537.36" version="27.0.9">
  <diagram name="PÃ¡gina-1" id="ThNNFSXlqYxYYpXzCLma">
    <mxGraphModel dx="1394" dy="1987" grid="1" gridSize="10" guides="1" tooltips="1" connect="1" arrows="1" fold="1" page="1" pageScale="1" pageWidth="827" pageHeight="1169" math="0" shadow="0">
      <root>
        <mxCell id="0" />
        <mxCell id="1" parent="0" />
        <mxCell id="bCzghNvJWmh3SfpKkufN-1" value="proveedor" style="whiteSpace=wrap;html=1;align=center;fillColor=#f0a30a;strokeColor=#BD7000;fontColor=#000000;" vertex="1" parent="1">
          <mxGeometry x="450" y="450" width="100" height="40" as="geometry" />
        </mxCell>
        <mxCell id="bCzghNvJWmh3SfpKkufN-2" value="" style="endArrow=none;html=1;rounded=0;" edge="1" parent="1" source="bCzghNvJWmh3SfpKkufN-1" target="bCzghNvJWmh3SfpKkufN-3">
          <mxGeometry relative="1" as="geometry">
            <mxPoint x="450" y="405" as="sourcePoint" />
            <mxPoint x="510" y="405" as="targetPoint" />
          </mxGeometry>
        </mxCell>
        <mxCell id="bCzghNvJWmh3SfpKkufN-3" value="&lt;u&gt;codigoproveedor&lt;/u&gt;" style="ellipse;whiteSpace=wrap;html=1;align=center;" vertex="1" parent="1">
          <mxGeometry x="447.5" y="380" width="105" height="40" as="geometry" />
        </mxCell>
        <mxCell id="bCzghNvJWmh3SfpKkufN-4" value="" style="endArrow=none;html=1;rounded=0;" edge="1" parent="1" source="bCzghNvJWmh3SfpKkufN-1" target="bCzghNvJWmh3SfpKkufN-5">
          <mxGeometry relative="1" as="geometry">
            <mxPoint x="350" y="415" as="sourcePoint" />
            <mxPoint x="410" y="415" as="targetPoint" />
          </mxGeometry>
        </mxCell>
        <mxCell id="bCzghNvJWmh3SfpKkufN-5" value="direccion" style="ellipse;whiteSpace=wrap;html=1;align=center;" vertex="1" parent="1">
          <mxGeometry x="420" y="410" width="50" height="30" as="geometry" />
        </mxCell>
        <mxCell id="bCzghNvJWmh3SfpKkufN-6" value="" style="endArrow=none;html=1;rounded=0;" edge="1" parent="1" source="bCzghNvJWmh3SfpKkufN-1" target="bCzghNvJWmh3SfpKkufN-7">
          <mxGeometry relative="1" as="geometry">
            <mxPoint x="720" y="345" as="sourcePoint" />
            <mxPoint x="780" y="345" as="targetPoint" />
          </mxGeometry>
        </mxCell>
        <mxCell id="bCzghNvJWmh3SfpKkufN-7" value="nombre" style="ellipse;whiteSpace=wrap;html=1;align=center;" vertex="1" parent="1">
          <mxGeometry x="540" y="410" width="50" height="30" as="geometry" />
        </mxCell>
        <mxCell id="bCzghNvJWmh3SfpKkufN-8" value="" style="endArrow=none;html=1;rounded=0;" edge="1" parent="1" source="bCzghNvJWmh3SfpKkufN-1" target="bCzghNvJWmh3SfpKkufN-9">
          <mxGeometry relative="1" as="geometry">
            <mxPoint x="720" y="345" as="sourcePoint" />
            <mxPoint x="780" y="345" as="targetPoint" />
          </mxGeometry>
        </mxCell>
        <mxCell id="bCzghNvJWmh3SfpKkufN-9" value="provincia" style="ellipse;whiteSpace=wrap;html=1;align=center;" vertex="1" parent="1">
          <mxGeometry x="560" y="350" width="50" height="30" as="geometry" />
        </mxCell>
        <mxCell id="bCzghNvJWmh3SfpKkufN-11" value="pieza" style="whiteSpace=wrap;html=1;align=center;fillColor=#f0a30a;strokeColor=#BD7000;fontColor=#000000;" vertex="1" parent="1">
          <mxGeometry x="750" y="450" width="100" height="40" as="geometry" />
        </mxCell>
        <mxCell id="bCzghNvJWmh3SfpKkufN-12" value="suministrada" style="shape=rhombus;perimeter=rhombusPerimeter;whiteSpace=wrap;html=1;align=center;fillColor=#76608a;fontColor=#ffffff;strokeColor=#432D57;" vertex="1" parent="1">
          <mxGeometry x="600" y="450" width="90" height="40" as="geometry" />
        </mxCell>
        <mxCell id="bCzghNvJWmh3SfpKkufN-13" value="" style="endArrow=none;html=1;rounded=0;exitX=0;exitY=0.5;exitDx=0;exitDy=0;" edge="1" parent="1" source="bCzghNvJWmh3SfpKkufN-12" target="bCzghNvJWmh3SfpKkufN-1">
          <mxGeometry relative="1" as="geometry">
            <mxPoint x="567" y="440" as="sourcePoint" />
            <mxPoint x="520" y="470" as="targetPoint" />
          </mxGeometry>
        </mxCell>
        <mxCell id="bCzghNvJWmh3SfpKkufN-14" value="(1,N)" style="resizable=0;html=1;whiteSpace=wrap;align=right;verticalAlign=bottom;" connectable="0" vertex="1" parent="bCzghNvJWmh3SfpKkufN-13">
          <mxGeometry x="1" relative="1" as="geometry">
            <mxPoint x="34" as="offset" />
          </mxGeometry>
        </mxCell>
        <mxCell id="bCzghNvJWmh3SfpKkufN-15" value="" style="endArrow=none;html=1;rounded=0;exitX=1;exitY=0.5;exitDx=0;exitDy=0;" edge="1" parent="1">
          <mxGeometry relative="1" as="geometry">
            <mxPoint x="690" y="469.76" as="sourcePoint" />
            <mxPoint x="750" y="469.76" as="targetPoint" />
          </mxGeometry>
        </mxCell>
        <mxCell id="bCzghNvJWmh3SfpKkufN-16" value="(1,M)" style="resizable=0;html=1;whiteSpace=wrap;align=right;verticalAlign=bottom;" connectable="0" vertex="1" parent="bCzghNvJWmh3SfpKkufN-15">
          <mxGeometry x="1" relative="1" as="geometry">
            <mxPoint as="offset" />
          </mxGeometry>
        </mxCell>
        <mxCell id="bCzghNvJWmh3SfpKkufN-17" value="" style="endArrow=none;html=1;rounded=0;" edge="1" parent="1" source="bCzghNvJWmh3SfpKkufN-11" target="bCzghNvJWmh3SfpKkufN-18">
          <mxGeometry relative="1" as="geometry">
            <mxPoint x="764" y="395" as="sourcePoint" />
            <mxPoint x="824" y="395" as="targetPoint" />
          </mxGeometry>
        </mxCell>
        <mxCell id="bCzghNvJWmh3SfpKkufN-18" value="&lt;u&gt;codigopieza&lt;/u&gt;" style="ellipse;whiteSpace=wrap;html=1;align=center;" vertex="1" parent="1">
          <mxGeometry x="764" y="370" width="71" height="40" as="geometry" />
        </mxCell>
        <mxCell id="bCzghNvJWmh3SfpKkufN-19" value="" style="endArrow=none;html=1;rounded=0;" edge="1" parent="1" source="bCzghNvJWmh3SfpKkufN-11" target="bCzghNvJWmh3SfpKkufN-20">
          <mxGeometry relative="1" as="geometry">
            <mxPoint x="810" y="400" as="sourcePoint" />
            <mxPoint x="870" y="400" as="targetPoint" />
          </mxGeometry>
        </mxCell>
        <mxCell id="bCzghNvJWmh3SfpKkufN-20" value="nombre" style="ellipse;whiteSpace=wrap;html=1;align=center;" vertex="1" parent="1">
          <mxGeometry x="845" y="385" width="50" height="30" as="geometry" />
        </mxCell>
        <mxCell id="bCzghNvJWmh3SfpKkufN-21" value="" style="endArrow=none;html=1;rounded=0;" edge="1" parent="1" source="bCzghNvJWmh3SfpKkufN-11" target="bCzghNvJWmh3SfpKkufN-22">
          <mxGeometry relative="1" as="geometry">
            <mxPoint x="720" y="345" as="sourcePoint" />
            <mxPoint x="780" y="345" as="targetPoint" />
          </mxGeometry>
        </mxCell>
        <mxCell id="bCzghNvJWmh3SfpKkufN-22" value="color" style="ellipse;whiteSpace=wrap;html=1;align=center;" vertex="1" parent="1">
          <mxGeometry x="714" y="364" width="50" height="30" as="geometry" />
        </mxCell>
        <mxCell id="bCzghNvJWmh3SfpKkufN-23" value="" style="endArrow=none;html=1;rounded=0;" edge="1" parent="1" source="bCzghNvJWmh3SfpKkufN-11" target="bCzghNvJWmh3SfpKkufN-24">
          <mxGeometry relative="1" as="geometry">
            <mxPoint x="720" y="345" as="sourcePoint" />
            <mxPoint x="780" y="345" as="targetPoint" />
          </mxGeometry>
        </mxCell>
        <mxCell id="bCzghNvJWmh3SfpKkufN-24" value="precio" style="ellipse;whiteSpace=wrap;html=1;align=center;" vertex="1" parent="1">
          <mxGeometry x="700" y="394" width="50" height="30" as="geometry" />
        </mxCell>
        <mxCell id="bCzghNvJWmh3SfpKkufN-25" value="" style="endArrow=none;html=1;rounded=0;" edge="1" parent="1" source="bCzghNvJWmh3SfpKkufN-11" target="bCzghNvJWmh3SfpKkufN-26">
          <mxGeometry relative="1" as="geometry">
            <mxPoint x="720" y="345" as="sourcePoint" />
            <mxPoint x="780" y="345" as="targetPoint" />
          </mxGeometry>
        </mxCell>
        <mxCell id="bCzghNvJWmh3SfpKkufN-26" value="catregoria" style="ellipse;whiteSpace=wrap;html=1;align=center;" vertex="1" parent="1">
          <mxGeometry x="835" y="350" width="55" height="30" as="geometry" />
        </mxCell>
        <mxCell id="bCzghNvJWmh3SfpKkufN-27" value="categoria" style="shape=ext;margin=3;double=1;whiteSpace=wrap;html=1;align=center;fillColor=#f0a30a;fontColor=#000000;strokeColor=#BD7000;" vertex="1" parent="1">
          <mxGeometry x="1000" y="450" width="100" height="40" as="geometry" />
        </mxCell>
        <mxCell id="bCzghNvJWmh3SfpKkufN-28" value="" style="endArrow=none;html=1;rounded=0;" edge="1" parent="1" source="bCzghNvJWmh3SfpKkufN-27" target="bCzghNvJWmh3SfpKkufN-29">
          <mxGeometry relative="1" as="geometry">
            <mxPoint x="950" y="390" as="sourcePoint" />
            <mxPoint x="1010" y="390" as="targetPoint" />
          </mxGeometry>
        </mxCell>
        <mxCell id="bCzghNvJWmh3SfpKkufN-29" value="&lt;u&gt;codigocategria&lt;/u&gt;" style="ellipse;whiteSpace=wrap;html=1;align=center;" vertex="1" parent="1">
          <mxGeometry x="957.5" y="365" width="85" height="45" as="geometry" />
        </mxCell>
        <mxCell id="bCzghNvJWmh3SfpKkufN-30" value="" style="endArrow=none;html=1;rounded=0;" edge="1" parent="1" source="bCzghNvJWmh3SfpKkufN-27" target="bCzghNvJWmh3SfpKkufN-31">
          <mxGeometry relative="1" as="geometry">
            <mxPoint x="1030" y="409" as="sourcePoint" />
            <mxPoint x="1090" y="409" as="targetPoint" />
          </mxGeometry>
        </mxCell>
        <mxCell id="bCzghNvJWmh3SfpKkufN-31" value="nombre" style="ellipse;whiteSpace=wrap;html=1;align=center;" vertex="1" parent="1">
          <mxGeometry x="1065" y="394" width="50" height="30" as="geometry" />
        </mxCell>
        <mxCell id="bCzghNvJWmh3SfpKkufN-32" value="relacion" style="shape=rhombus;perimeter=rhombusPerimeter;whiteSpace=wrap;html=1;align=center;fillColor=#76608a;fontColor=#ffffff;strokeColor=#432D57;" vertex="1" parent="1">
          <mxGeometry x="880" y="450" width="90" height="40" as="geometry" />
        </mxCell>
        <mxCell id="bCzghNvJWmh3SfpKkufN-33" value="" style="endArrow=none;html=1;rounded=0;exitX=0;exitY=0.5;exitDx=0;exitDy=0;" edge="1" parent="1" source="bCzghNvJWmh3SfpKkufN-32" target="bCzghNvJWmh3SfpKkufN-11">
          <mxGeometry relative="1" as="geometry">
            <mxPoint x="857" y="440" as="sourcePoint" />
            <mxPoint x="810" y="470" as="targetPoint" />
          </mxGeometry>
        </mxCell>
        <mxCell id="bCzghNvJWmh3SfpKkufN-34" value="(1,N)" style="resizable=0;html=1;whiteSpace=wrap;align=right;verticalAlign=bottom;" connectable="0" vertex="1" parent="bCzghNvJWmh3SfpKkufN-33">
          <mxGeometry x="1" relative="1" as="geometry">
            <mxPoint x="34" as="offset" />
          </mxGeometry>
        </mxCell>
        <mxCell id="bCzghNvJWmh3SfpKkufN-35" value="" style="endArrow=none;html=1;rounded=0;exitX=1;exitY=0.5;exitDx=0;exitDy=0;" edge="1" parent="1" source="bCzghNvJWmh3SfpKkufN-32" target="bCzghNvJWmh3SfpKkufN-27">
          <mxGeometry relative="1" as="geometry">
            <mxPoint x="857" y="440" as="sourcePoint" />
            <mxPoint x="1030" y="470" as="targetPoint" />
          </mxGeometry>
        </mxCell>
        <mxCell id="bCzghNvJWmh3SfpKkufN-36" value="(1,1)" style="resizable=0;html=1;whiteSpace=wrap;align=right;verticalAlign=bottom;" connectable="0" vertex="1" parent="bCzghNvJWmh3SfpKkufN-35">
          <mxGeometry x="1" relative="1" as="geometry">
            <mxPoint as="offset" />
          </mxGeometry>
        </mxCell>
        <mxCell id="bCzghNvJWmh3SfpKkufN-37" value="" style="endArrow=none;html=1;rounded=0;" edge="1" parent="1" source="bCzghNvJWmh3SfpKkufN-12" target="bCzghNvJWmh3SfpKkufN-38">
          <mxGeometry relative="1" as="geometry">
            <mxPoint x="570" y="570" as="sourcePoint" />
            <mxPoint x="630" y="570" as="targetPoint" />
          </mxGeometry>
        </mxCell>
        <mxCell id="bCzghNvJWmh3SfpKkufN-38" value="cantidad" style="ellipse;whiteSpace=wrap;html=1;align=center;" vertex="1" parent="1">
          <mxGeometry x="570" y="530" width="60" height="30" as="geometry" />
        </mxCell>
        <mxCell id="bCzghNvJWmh3SfpKkufN-39" value="" style="endArrow=none;html=1;rounded=0;" edge="1" parent="1" source="bCzghNvJWmh3SfpKkufN-12" target="bCzghNvJWmh3SfpKkufN-40">
          <mxGeometry relative="1" as="geometry">
            <mxPoint x="640" y="545" as="sourcePoint" />
            <mxPoint x="700" y="545" as="targetPoint" />
          </mxGeometry>
        </mxCell>
        <mxCell id="bCzghNvJWmh3SfpKkufN-40" value="fecha" style="ellipse;whiteSpace=wrap;html=1;align=center;" vertex="1" parent="1">
          <mxGeometry x="650" y="540" width="50" height="30" as="geometry" />
        </mxCell>
        <mxCell id="bCzghNvJWmh3SfpKkufN-41" value="" style="shape=image;verticalLabelPosition=bottom;labelBackgroundColor=default;verticalAlign=top;aspect=fixed;imageAspect=0;image=data:image/png,iVBORw0KGgoAAAANSUhEUgAAAsUAAAE6CAYAAAD+5y9JAAAAAXNSR0IArs4c6QAAAARnQU1BAACxjwv8YQUAAAAJcEhZcwAADsMAAA7DAcdvqGQAAP+lSURBVHhe7J13WBTn9se/7C5dEDSiSBREXKOxIUTFLkT5JbHGKF6NigXDTYIlamJJLKghmmtMNLmKxhZruNd4rWDUUEQEREGaYBAp0l12kQ47c35/7NKWLaCmqO/neXwSZt6ZOe97vue8Z2fe2dUjIgKD8YTwpelIKmiH1x0sIFDdyWAwGAwGg/Gc0LSOkefg5v/24JMpIzF82DAMGzERC1auwqpPl+Njz8lwHT4cI2f9G8lyZfuKcKwf2hFtbSdjTwrX5FTPFD4bJ+f1hGV7RywLLFbdqwKP7JPz0NOyPRyXBUJXa21U51zHwTXvwdllJcJqmu7jsgOx8b138I8lizH9rWnwDcpGy0egAqmXf8SGeeMwfNhwjHSbgKlTJ2PyNC98sf868urG9+8Ml43ftntiULfX4bE3Bc+DyQwGg8FgMBiaaFoUi2zwxuR5mNglB5EREYi4KYfLmq/w1bbt+P7QSfy49DVIk7NQyivbV+UgNe0RSvNScV/S8pKw1fBS/J6UjRJpOpIfPNZRfPKQ/p6E7BIp0pMf4LH2xmrhC6Jx8mtvjHEchQV+p3CnSKUiromD37Tp+DJvFDZ98w0+HZiKzdOmwy9WpZ1GTNBz7EKsnGCF1Ki76PrRf3Dq1El8O8cEF5e4Ysg/DuP+E9j9pyLsAlcfL4xqT2CPGhgMBoPBYDzvqHnirQd9fRH0mmyrRkF+Beze/RKfvWXesK+dBw7cuoXrcaHwG2bQ5Ihniqgf1l6KRURULP77oR2EqvubIEK/tZcQGxGF2P9+CDvtjdUi6DgIM1b+gP1LnSBS3Qmg4soP2BNTDlGnV9FZKIK93asQlN3Enh8uo0K1sRZEFm3RRg9QDKgR7CZswRfvWuLhaV98F97SAvsvRGgBC/OmSmEwGAwGg8F4HlFTFKuh5iaOHLmNWoEVJvnMQy8RAL4EqeFBCE3MgywrBb8X190+BoBS3L24F19t2oq9F5JRAgCoQEbUJQQGBiIwKBRJEg7lqefxvd8PuJJVd1u0BKlB+7Ft43ps3nUKsRIeAIfcW5dwKTId0ke/425WdcNlSlIRtH8bNq7fjF2nYiHhAS73Fi5dikS69BF+v5uFhtY8JHf+h91+G+H79QEEpZaiscXN0YO5manKhwMAqEHs1TAUcICBgeKDgIGBCACHgmu/oe5mMV8UicNbt+JwZJGO6zTGCN26WUPIS1BQoFyQUJGFhJQicFW5uBOdguL6O8gcpOkxuBYWiZTCugKaR/HdMAQFBiIwMBBB4ako4QGUpuH6pUAEBoUjVVZnTQVyE64jJOwWMutv/dehbR8gL05DdGgYYrMrVXcBADhpOmKuhSEypRCqpX1FVgJSijhU5d5BdEpxw13/ilwkXA9B2K3MhicRAMDLcD8qFNfislAiyUVeeaN9DAaDwWAwGM8I3UUxcSg4tx+/pCuKNDNra5gJAAjawrZDAra++w7eHj8Pu+NrFe25TAQsGISRW/Lg6jkIdz8bhhGLL6CQN0Eny0R8PfUdvD1+Nr45+jUmjpiMxWuWYfm+eIDPwS+LhmLYhiwMf9cSIaunY+jwZbhcIkTHrmU46TUBb789EavPSsAD4HN+waKhw7AhazjetQzB6ulDMXzZZZR17Iqyk16Y8PbbmLj6LCQ8AMhx76AHnFyWItLBE/N6RuDjgX3xnn9So6K5pVTg3r0scNCDUCSEAICenmIYuew0pFUCQDWC13tgwapVWDDtC1xt6UX4Qty8nQHOZCBcHEsQeWAJxjiIMXbDHmx9bziGugzCvCMSQBaJbz09sCogAVmpZ7F8RG+4+wajiBfAtL0hUv69ABMmbcFti84wFQAw6Yg20TuwPUaEdiYC8HlB2OS1HP6h8bj583IMF4/E2ivKcdWyD6hAwt7ZcF+4H3E5aTi3xgf+9xqv85Ah8ltPeKwKQEJWKs4uH4He7r4ILuLBF0biwJIxcBCPxYY9W/He8KFwGTQPRyQ88oI2wWu5P0Ljb+Ln5cMhHrkWVyQ8UBOPnZ4+OJ4tR1XyAcwa8h5+zGCrlxkMBoPBYPwBUDOqKfwTMYkAgsiBxs0eS91NRGTjFUhVqk3LT9B7bfQIQnvyCa4iIo4KT0wnK4EBjdqRQRxV0oUF1iQ0GESbE+VEladpdnsBQc+YbN/dRTdvH6OlUzzI79pjkp6eSzZCfXpjUxLJ5Xdp6zBj0jMYRFuS5US18bTBSZ8AA3LdlUMcSen0XBsS6r9Bm5LkJL+7lYYZ65HBoC2ULK+l+A1OpA+QgesuyuGIuLzDNKW9gPTaTqefy0hhxysC0mv7Fvlncaq9UsLRw51jyAAgUffFFFpdtzmDvhlpQICAXpl9miqJqPynSWQIEAzG0M6HHBHJKePobBK3bUvi94/QA7nKqZVUXf2Q7ESm5LLsCJ0+fYy2L3yD2rd9jWbsTaBKIiIuk3aMNiDjvkvo10IpJV0JojsSCV38QEy9loYq2hBRefhy6mVgTTNO5hNHRLUJm+gNYxuad0amaMDl0sGPVlJgKRFxBXRi1hhaFansEJdJO0YZkL7jOoqt1rKvlqg8fCX1s59HZ6TKC5edpwU2+vTayhtUTUTSix+QuNdSCm0wjJb3MiDrGScpnyPiMnfQaANj6rvkVyqUJtGVoDtUlHeCZo1ZRQ2X3EGjDPTJcV0slUesoD4DPqNIxWBQ/rHNtCupVnlyBoPBYDAYjGeH9jvFwh6Y9u1F/OY/FZ3VtlR9yaoK185dwSOeR17wLqxZtQ4n4itBtYm4eavxalshBkycBWfHmdjxy0msGi5EyC8XkMfpwdSsDfSEr2H56Rhcj/oFy3upWRRcEYJfLuSB0zOFWRs9CF9bjtMx1xH1y3Koa1762xlcLeYhaNse7UQA9Mxh3kYP9PgaAkMeqzbXjsAYxkaK/9XTUyyu4Hnl8349QxgZCQAIYTvrJ6TKZEg98r6Odc0GsOndDzbtOqL/7N24mZmIE159YATltQwEMHd2w4gOFujt5o5+uIB9J7Ph0N9R0QaAyWAPTBY/wvnjgZABEPVeAO83K3DaPwA5PMDdO4GojtPh2kYxdqeDcnDv/Hb4+fnBb+sxVLpvgO8cJxhr24cyBO0+hPS+ozHGQnlho26ws67rXDHO7TuJbIf+cGwwDB6TxXh0/jgCZYDA2BgGAnM4u41AB4vecHPvB6Ow0wjKuYfz2/3g5+eHrccq4b7BF3OcjCGyEcM28xtMHDkXX55Kgr7HWnzcW90qbwaDwWAwGIynQ22p2wQ9EbpO/wjT7OuKkQpkpOepNKqjDIWPysBDD+2HLsKWr7bhSLQUHF+O/80xa2gmaIuOnUwaHVeOgoJS8OBRlJ8POQBhh95wGWADw0at6ikvQEEpD/BFyM+XAxCiQ28XDLBR15rH46JiVBGgZ2AAAz3UvdkGUA1kksetWPMLAG1h27UDhI2KYY5T/Ff4Shd0aaPSXCd6MGwvxhsj3eA20gnd2qpU0CqLmrmCLDys4FFTU9WwUWQHWxsBamRSPOYBCKwx3XsqzIL9sT+xHNEn76PPLEcYAOBLiyCpNESvySuxevXq+n+rlk5Ej0rN+3rqZSPldxkgFKkXDVeArIcV4Gtq0GCZCHa2NhDUyCB9rBijpt3hUVokQaVhL0xe2XC91atXYenEnjDougBHLu+Bh1kotkwfiJ5Dl+B0/fpzBoPBYDAYjGeH2vqmGQaDMGfOQOgD4HNP4eCZAtUWSkzRob0pBOCQEhOjfMFOHQIImtR+pujUyRwCcEgLC0GGrrrHtBM6mQsALg1hIRk6vqJNgHZdX0VbAUA8D54AoArVtQAEZujcpX0LB6EOfTgNc0IbPUJNdY1iHS7PA9BDmzeG4426upyXIS06GvdLWldy60LYuQe6m3NIirnV8E0XfA2qawR4tb8jrJWdaTPOG57iJBz8xhcnSkZhhr1iwAXmnWFtkoKA/VchrT8rh/TAC0g00bwvnmuHV9qJUJV4C3Eqa6SJ5wFhZ/Tobg4uKQYNDwV41FTXQPBqfzjWGdYEAcw7W8MkJQD7rzZcEVw6Ai/Eozo7EQ+7eGLn1RQknVuDflm74bPlyhOsA2cwGAwGg8HQjrpKpWE5AMlRW8MDMETHTu0gKEvAng99ccfSVtlST+XOnzFGThyLVwQ8ZBe2wy9EAh48ci/uxOHYGgB1RSkPufK9PAUmcPWYjC5CoDrq39j0Sw44ABV3LyAwqQYAod4kngNMXOExuQuEqEbUvzfhlxwOQAXuXghEUo2ySFM0BgfAdOxcTOsmAhUXoKAWQNUjSEp4CF+djH+8adrYkEYQqqpqQACotgY19etEBLCa7IX3ugpRLSmCjOcglT0GL+yC9xZMRHsAgBw3N7qi35Ah6OfmixhN74ZV16CWalFdraVwJkBe2+gEbcdjsXdfSE/twIFUxXc78PmXEZI9DIs/HNFwZ13kiAWLRkBy/BRownilXQBMx2LezG7I8PfA6Fm++DHgFA77LcRnEaawb6tln0EHTJg9Hq+k78eyNeeRVQNUZ95GYiEHaU4m8kv0MX6xN/pKT2HHgVTFt07w+bgcko1hiz/ECKVhBDkad8d07DzM7JYBf4/RmOX7IwJOHYbfws8QYWoPvewAbPO/jQoYwe7tNfhimh1MDI1Ub54zGAwGg8FgPD1NVhjXPqTo/+2mBX2NSA8gCNpSv3cX06efraDFC6aQS1dT0hN1p8Uhyreiyn+m6W0bv2hHRPJM+u8/B5CFUI/0jDpQz0Fjaf6uaHpM5ZT634X0ur4eQc+Q+i48SnGSRi+5cYV05YtR1Elfj/T0Lam70xiatu48ZXFyyri8mkZZCggQUufx2+h6Hkdc4RX6YlQn0tfTI33L7uQ0ZhqtO59FNRmXafUoSxIAJOw8nrZdzyMijoqvbaFxXa1p5KcH6eCKEdSpqzttDpWQ2tfsHv9O1/63jz4e3JYEAOnpO9C0rwPo2v1yZQOOJCHraLTDSPrk0AH6eEh3ctsYQg3dqaaotf3JSE+PjB2/oOhm74aVU8qVA7Rhoi2J9ITUyXUl7TmfQMrX4hRwErp9YjW9aS0koY07rT0RQ4/qzl+bQWfXTiQnx9E0w+ufNH+2N30TWtC8L9JfaMF4X7qjev3yZDrq40oOloZkYN6Vhi06RIl1XdO2j5NS9A+eNMTWkizsnGnCxxtowZBu5DLzczp4I4+Iainj7Fqa6ORIo2d40T/nzybvb0KpgCPiJLfpxOo3yVooJBv3tXQi5lG9veXJR8nH1YEsDQ3IvOswWnQokcqJqPr6GhrafQC96fkpbfBdRYsW+dHV/Ga9ZDAYDAaDwXhq9IjoyX+QrOoXvG8zDcce22Ppb0nYMaLuBzw4lDyIxZ0sOax6OeI1K3VrfdVTnh2H2/fLYSl2RJ/Ojdcdq6Mc2XG3cb/cEmLHPtDZvLoAybeSUaDXCa879YLVU/7eCF+aiduxmRDaOcGxq8odZ16KezfvQdDzDThYqL0hz2AwGAwGg8H4m/BkRXFFNL5Z9D30F8/E3enjsTvXEb6xkfjida1fs8BgMBgMBoPBYPwtaVIU133FGOPpeJLPGQwGg8FgMBiMvw72XJ/BYDAYDAaD8dLzZMsnGAwGg8FgMBiMFwh2p5jBYDAYDAaD8dLDimIGg8FgMBgMxksPK4oZDAaDwWAwGC89rChmMBgMBoPBYLz0sKKYwWAwGAwGg/HSw4piBoPBYDAYDMZLDyuKGQwGg8FgMBgvPawoZjAYDAaDwWC89LCimMFgMBgMBoPx0sOKYgaDwWAwGAzGSw8rihkMBoPBYDAYLz2sKGYwGAwGg8FgvPSwopjBYDAYDAaD8dLDimIGg8FgMBgMxksPK4oZDAaDwWAwGC89rChmMBgMBoPBYLz0sKKYwWAwGAwGg/HSw4piBoPBYDAYDMZLDyuKGQwGg8FgMBgvPawoZjAYDAaDwWC89LCi+G8Dj9L0BKTJeOXf5ciMvYPsKpVmLzUcpPcS8KBcdftfCF+K9IQ01LvtaXiW5/oL4KT3kPC3cs7fC740HQlpMjyn7m0Ey1VPy9NpoQo5CXdR8GQHa6Q8MxZ3nqUTyzMReycbz/CMT8GTa5QvyUBM+A0k5j/BwX8yz9yHLyFNi2K+AD9/NBrDR7pi3Ftv4213V4wcPgJjxr2Nt992h+vI4RgxfjPCa5ocxXhKuOzfsN1zELq97oG9KXIAAJ+xF3NchsLrcP4TJk4lNek499UnWOZ7BDeLeIDLQWxsLjjVdn9zuMzfsH3OQHTrtwDHMv8O1nPI/m07PAd1w+see6F02xPyLM/1F8Bl4rftczCwWz8sOJb53GnrD4fLxm/bPTGo2+vw2JuC5829jflDc9XLwFNpgYcs9ig+cXOAw+hnPA/zGdg7xwVDvQ4j/5k4kUfG3jlwGeqFw8/mhE/Fk2mUw4OAT+G99RxunPkc7uK+eP/IA9VGfx+0+LD62loM7TkSK4IKW9H/l5OmRTFJ8EDqgMWHA/Fr4EX874sBKIi6gw4L/ouLFy/h1//6wY2ykNe6SGboQNjFFT5eo9CeqH6bwG4RfroRgX1zOz3F7XweRWeO4je5AbJ+9sGI/sPwD69PcSrbBELVpn9zhLau+HjeCFiiYYz+WoTo4uoDr1Ht0chtT8gTnIsvwq2Y+3+PAlRoC9eP52GEJf423vlbIewCVx8vjGpPz/34/HG56iXhqbQggIXjTCybJG55nmgpAjss+ukGIvbNRadn4kQB7Bb9hBsR+zD32ZwQfNEtxNx/soz3JBrlC45j+bIkvLHCBz5bA/DTyiEwk1erNvv7oNGHNbh19ldg2hZ88X9WLe7/y4rK+IjgOHcF3u1m2HSzEpHVCKz4ZBJeUd3BeGqEFhYw12u8xRS2jv3RxajxtifAcSY+X/MVTt2Ox+WtMzFi/GdYPt5CtdVzgdDUDKZ/q4gWwsLCHE3c9sS07lzlUd9h3aF7rbzT9AciNIXZ38s5fy+EFrBoGuDPLX9YrnpZeCotCGBuZtriPNEaTG0d0f9ZOtHUFo79u+DZnLEcUd+tw6F7T5rxWq/RmsgrCC83hbkRAEF7uH1xBLvnvaba7G+FWh9yWch89VMc3zgCbZvuYaih6SwmFMPd/TWImmxsShu3dzDGpOHvitwEXA8Jw63M0ia35cuzEpAq4YGaAiRFRCC5sLmYNR1bkR2PuwU8wMmQHhOB2Ky6dYo1KEiOQPid3ObrlDgp0mOuISwyBYWqj5V4Ge5HheJaXBZKJLnI07HssTwnHuFhN3C3sBo1BenIKOWRF3cZQYGBCLqWAhkPcLm3cCkwEIGXIvGgovHRFchNuI6QsFvILNX1oEKO4rRohIbFIrtSdR9QlROP5EbPQXjZfUSFXkNcVgkkuXlo0o2KXCRcD0HYrUw0XFaADtYGyP1dAt6wE8QDnTDgtU4wa+J1OST3ohB8NQQ302Uqdx4rkJWQgiKuCrl3opFS3HQvnxeHy0GBCAy6hhTFoODWpUAEBl5CZKNB0aUFueQeooKvIuRmOmTabgTo6SknA4K86C4iI5PQbJmXXIJ7UcG4GnIT6Sona/34aUBejLToUITFZkON257hudT5hkdR5E7MfX87ojPi8GtQMBKL6i7CQZoeg2thkUhpHgSQ3Y9C6LU4ZJVIkKslCLSOk8Y404OecqYmeRHuRkYiSdU5FVlISCkCV5WLO9EpaJBTC2OGL8WDpHSU8hykaZEIi0pT0YtmvXLSdMRcC0NkSiHqzOaL7yIsKBCBgYEIDApHagkPoBRp1y8hMDAI4amyhjNryFW69smL0xAdGoZYdQGuwa46KrISkFLEoSr3DqJTihtiU5O+dOY5HpKkEAQFKvp8KSoDFQBQkYGoS4EIDApBkkS1B3U8m1zFlz5AUnopeE6KtMgwRKWp5hxtGgNQnoWEVAl41KAgKQIRyYXNPxhqGp+KbMTfLQAPDrL0GETEZtXbVVOQjIjwO8hVzSc6fKSpn+rQpQVtOmqMoC7QGtHiHKotD1TlID5ZZXlBVR4Sr4ciPC4TJXU7+DzEXQ5CYGAQrqXIwIND7q1LCk1FPlBoSnEwcuKTmz3K19RPjfMEX4TInXPx/vZoZMT9iqDgRNSnPE2+VoOqRjVeD9XIir6EXyPvo4R7hOQrgbgUkYbSugO16VNtjqtAdrxiDTgnS0dMRCwaSpoCJEeE446q8LTMYwBQU5iCGyEhiEqTNo0fdT5Eewwe1glZN9XYqzOeSpF+KxH5zYLsxeXJb+3weQja5IXl/qGIv/kzlg8XY+TaKygqiMbhpWPgIH4Lfif2Y5H7O5g5+x0M6DsZ/mlK92k69lEMji5/E+Ieo7Ah4BTWz5oBz/lT4dJrCJYHxeDIh+MxZd4HmDakF0asv1EffLLIb+HpsQoBCVlIPbscI3q7wze4SCGMmnjs9PTB8Ww5qpIPYNaQ9/BjhgYPVyThkPc7mL31EpJSwvDNDEd06z0Fe1N4tOv6Kgp+WoRJXvuRLAeE7brAKnUnZk38BAG5ynIlLwibvJbDPzQeN39ejuHikVh7RaI+wVUkYO9sdyzcH4ectHNY4+OPe3XDI43FiU/HwaH7SGwMUwRLTfxOePocR7a8CskHZmHIez9C0Q0eeUGb4LXcH6HxN/Hz8uEQj1yLK0UFiD68FGMcxHjL7wT2L3LHOzNn450BfTHZP00RSFw6js4dgqnf3cGj/Aj4uYsxfOMNVIBHYeQBLBnjAPHYDdiz9T0MH+qCQfOOQNKoC4J2XfFqwU9YNMkL+xWDgi5Wqdg5ayI+CchFbZEuLXBIPzoXQ6Z+hzuP8hHh5w7x8I240eRDhiqEggs+GOo4FG7D+8Ku1yR8F1MGAODSj2LukKn47s4j5Ef4wV08HBuVJ2v1+GkoDioS9mK2+0Lsj8tB2rk18PG/1ygpPcNzafINL0OuxBiWbXjw1eWQyUpQIQcgi8S3nh5YFZCArNSzWD6iN9x9g5WTRw3id3rC53g25FXJODBrCN77MaN5MaF1nHTEmRIquACfoY4Y6jYcfe16YdJ3MSjjCxF5YAnGOIgxdsMebH1vOIa6DMK8I5IWxgyH7LBdWDjIFr1n7sKxjeMwcPBYvOnSC2JXX1wv0aZXGSK/9YTHqgAkZKXi7PIR6O3ui+AiHgLT9jBM+TcWTJiELbct0NlUAMAEHdtEY8f2GIjamWjMVRJecx5TuLsCCXtnw33hfsTlpOHcGh/41wU4AGixiy+MxIElY+AgHosNe7biveFD4TJoHo5ItOirRXlOAOM25bj8xXSMn7kbGVYdFHfxjNpDeH0z1pwvh0UbNVPCs8hV1dkI27UQg2x7Y+auY9g4biAGj30TLr3EcPW9jhLlpTRqjC/Snc80xV/RI8QcXY43xT0wakMATq2fhRme8zHVpReGLA9CzJEPMX7KPHwwbQh6jVjfKP9o9pHGfqoOOaBbC1p1pIvW5FANeYCXIvbEpxjn0B0jN4bV33AqubENkyesR2StIUoufIQhvd7AmHHvYOqX8Xjl1QL8tGgSvPYnQw4h2nWxQurOWZj4SQByOR7S2BP4dJwDuo/cCKUsNPZTV83Ay3IhMbZEG55HdbkMspIKyDX5Ws2gqWqU1zkvEWrKSyArrwWoFuUlMsgeV4HjtelTXY57A7N8d2P5m2L0GLUBAafWY9YMT8yf6oJeQ5YjKOYIPhw/BfM+mIYhvUZgvdJp2uYx8EUI2TIHnv+6gszCeOyaKIazzxnkydX7ULO9LYknoCb0c4wbMgiz/XOUW14CSAvV15aRWGRG006Wq+zhqODELBqzKpKqlX9n7hhFBvqOtC62luT3v6ZhBubkvOQMpVcTkey/NMvKkIZ/fZ/kOo7lcr8nN0MTGrI6lPLkRFR9m74YoE9tXT6jXx/WElEtxX4xgAztfSi4ioikF+kDcS9aGlqptK2cwpf3IgPrGXQyn6PqiBXUZ8BnFFmpuFb+sc20K6m2oSv1lNJvS/uQ48rrVNfb6ogV9JphH1odXUtEckrePIiMeq6g6wrDqfr6Cupp7EJf/S4n4groxKwxtCpSuZPLpB2jDEjfcR3FNrtcOYWv7Ef2886QVLml7PwCstF/jVbeUI5K3g/kZmhO038uJ6JqiljRhwZ8FkmKbuTTsc27KKmWiCs4QbPGrKKGy+6gUQb65Lgulmrl9+nrYQZk7ryEzigcQf+dZUWGw7+m+3Ii+d0vabCJE21MUIxr9Oo+ZDSgzl6OMneMJgPjvrTk10KSJl2hoDsS4uq6oESevJkGGfWkFQ2DQit6GpPLV7+TnEi7FuR36cvBJuS0MYFqiag2ejX1MRpA65oPGFHdfgMbmrgzmiRyorKEfTTNTp8MnX0pvlZOd78cTCZOG0nRnWha3ceIBqyLpdonHT+V61N5OK3sZ0/zztR7jc4vsCH911bSjepney6tvuFy6Xs3I7JZeJGqiIhIShc/EFOvpaGK/hFRefhy6mVgTTNO5hNXHUEr+gygzxRBQFz+Mdq8K6m5TVrGSVecKcbbgGwm7qRohXNo3zQ70jd0Jt/4WkU8jDYg475L6NdCKSVdCaI7RXmtiJlqiljRk/StXWl90EOqpXJK3jeFbIQG5LThDtVq0Kvk4gck7rWUGswOp+W9DMh6xknK54ioNoE2vWFMNvPOkIyIiDjKPfgRrQwsJe15rlrLvloqD19J/eznUYN7z9MCG316beUNqiYiqQ67uMwdNNrAmPou+ZUKpUl0JegOFeVp1ld5i/McUXnoUhIb9qKVEQr1EJdPh2fPoD1ZqtFNzzRXUXUEreipT9au6ynoYS1ReTLtm2JDQgMn2nCnVrfGdOQzrfHH5dL3boZkMmQ1hSomFrr9xQDSb+tCn/36UJF/Yr+gAYb25BOsjCqtPtLSTxW0a0GbxtScjIgeH5xARpYz6b+VRNSaHKotD3B59IObIZlP/1kx/9Um0KY32pDzpiSSExHV3qbP+xlS98UhCjvlybR5kBH1XHFdaXc1XV/Rk4xdvqLf5UREHOX94EaG5tPp53LF39r6qXWeIFLUBUY2tPCiwjdafa3Y1ISmGtUxLymPKf9pEhlZeFBAXUGgS5/qcpyklnK/dyNDkyG0OjSPFCXNFzRAvy25fPYrKUqaWPpigCHZ+wRTFWmbxzjKO+5BDu4/UCZHRFRLiV+Ponad59LpMjU+1GWvjngiIqKyBPrPjj30W4663PBioua2QEuoQMjpIOTcO4/tfn7w89uKY5Xu2OA7B07GgLBNG5gKzTDA3R3dDACYitGjiwAlsmKQjmMFbUxhomeAbgOd0UkIwEAMB1sR0GUghtmIAIhgZ9sZeiVSSAkoPrcPJ7Md0N+xbh2NCQZ7TIb40XkcD5RBZCOGbeY3mDhyLr48lQR9j7X4uLeaBSIlF7DnaCkGj3NC3eoQYdu2UHfjRC0VITgdlIN757fDz88PfluPodJ9A3znOMFYtW1ZEHYfSkff0WNQt7rXqJsdrBu9/SYwM0Ob+qdkItiIbZH5zUSMnPslTiXpw2Ptx+gtAipCTiMo5x7Ob/eDn58fth6rhPsGX8xROAJtTIUwG+AOd4UjIO7RBYISGYoJEIq9cTjsGHzsshFyYCsORkrBV1eiiofirpKxAQTmznAb0QEWvd3g3q9dqx8taNWCUAzvw2E45mOH7JAD2HowElK+GpUKA9QjtMYbbgPRTgiY9pmP7Z8Mh15CGK490oPY+zDCjvnALjsEB7YeRKSUR3VlFfgnHT8VyoJ241B6X4weU+81dLOzrn9p8VmeS7tvVCg+h30ns+HQ37F+/Z7JYA9MFj/C+eOBkIlsILbNxDcTR2Lul6eQpO+BtR/3VrNMSvM46YozBUJYv+GGgQrnYP72TzBcLwFh1x6BFxjD2EAAc2c3jOhggd5u7uhnFNbymIEAxsZGEHYYikluNhDBBL08N8JrACEhNBQFvDq9Ahf2nUS2Q380mD0YHpPFeHT+OAJlAES9scD7TVSc9kdADg9w93AiqiOmu7bRkee07StD0O5DSO87Gg3u7Qa7+gAvxjkddgmMjWEgMIez2wh0sOgNN/d+MArTrK8W5zkAJsN88PHwHBz+5pTikW5mAC7oT8G0Lmqi+xnmKgiMYWwkRIehk+BmIwJMesFzoxcGUAJCQwvwSJfGdOQzrfEnaANTEz0YdBsIZ8XEArGDLUTogoHDbCACILKzRWe9Ekil1AIfaelnE3RpQZuOGp1GE63JodrygMAMZg1OBOQZSM+uaViqIeqGbl2A3IwMNcu81CGAmVmbRmuftfdT6zzR5LzKs2nztRqaarT11wNakAPV5bh2IrQxNYGeQTcMdO4ERUnjAEVJMwyKksYOtp31UCKVgiDUMo9JEXgiCIaOzsoX6UR4fUUIJDmHMNm0uQ912qsjngAApn3w3tIPMKazmtzwgvJkPeVLUSSphGGvyVi5ejVW1/1btRQTe4oarf1UoieEUA8gnlp/LPQg0Gv6VrueQADF67ccCrIeooKvQU2jJTkiO1vYCGogkz4Gui7Akct74GEWii3TB6Ln0CU4ndV8jQ6Xex8ZZSIY6Ddfr9US+NIiSCoN0WvyyoY+rV6NVUsnoqdKouSyU/C7DBCKtAy/XsMaTUCArguO4PIeD5iFbsH0gT0xdMlpZHE8SoskqDTshckrG43l6lVYOrEnRI3WeSpPCqHCEYrxFIhQGbcTXt4HkNt/PrxdrSFokhGebCyaoOrPxlqAAKLKOOz08saB3P6Y7+0K66YG6ECADvbdYKHHQV4LCESViNvpBe8Dueg/3xuu1gKlbp50/BrDITvld8gghHq3PctztcQ3DXAFWXhYwaOmaRDA1kaAGpkUj9EVC45cxh4PM4RumY6BPYdiyems5ms5NY6T7jhTMwVD0MEe3Sz0wMlrFRtU5NSamFGLqDte72EK1FajmtD8AlwBsh5WgK+pafQOggh2tjYQ1MggfcwDEMB6ujemmgXDf38iyqNP4n6fWXA00JHnelRq3ueQhxRFgKtPsC2yS7U32vVl0MI8BwAQ2mPOsmkwuvAN9iRUIeloMDrOGI92qu2eaa5qekgdou6vQ+HCCuTr1Ji2fKZ9fJrnQkCv+cQCAZTfCqHTR2hZP7ls7VrQprEWBUErcqhAWx7Qg17jATIYjPHjOiL16iU84ABU30VKpiXcJoxCm4ZWWtFrnPt19VPrPKGKLl+roYlGdc1L6mhhDlQzZTYZVyh0ptdUeKgvaaBlHuMkKHxUBVmxVEPh3tiHLbFXNSZU6oOXFLVxqhOBOTpbmyAlYD+uShs2c+mBuBCvdlFVA09zbDOE6NyjO8y5JMTcalhExddUo0bwKvo7WoOyE/Gwiyd2Xk1B0rk16Je1Gz5brkD1i1X0LCzRFg8RE/lATbGgQCgSqhEMgThAYN4Z1iYpCNh/FQ3d4pAeeAGq3dJr9wraiaqQeCtOxQ4Cr666AIfsxIfo4rkTV1OScG5NP2Tt9sGWK7Uw72wNk5QA7G86mAi8EK92zWhjyi4uw6Q1Ekz7fhNmOlnVJ5NWBYRQBCEIqrmESNMoNqLsIpZNWgPJtO+xaaYTrJ7AgIqiR6jsOgADO1bg4rJJWCOZhu83zYRTk5M9i/HTQ7tX2kFUlYhbcSrqIR48BM/wXK3zjbBzD3Q355AUc6vhJRe+BtU1Arza3xHWlI3Eh13gufMqUpLOYU2/LOz22YIrqkGgcZzkOuNMbSKpKMKjyq4YMLCj2v2tiZl6iBoV4LWoqOJh1asPOqv7jkFhZ/Tobg4uKQYNZvOoqa6B4NX+cLRWWtVmHLw9xUg6+A18T5Rg1Ax7xR17bbkq0UTzvgRzvNJOhKrEW2juXr7ldjVBu76qW5jn6mjrvhQf9LuLfV/54ofbr+P9xm9PN+LZ5aqGo4kaHVhbgSreCr36dEGXJ9FYPdrHR5OcNKLTR6SznwAAvXbataBNYxqDoBGtyaFcS/MAAEEHTN6xG56GV/Htph3Y/uVpGH8aiCML7ZRPs4RQTIfNEr/6+fNp+9mEZ+zrFqG71tCuz5ZSpnkeE3ZEVxtjFAT+jEvFde15SAL9cSxVddT/LHtfPLSOC9XWoIbkqKlWzX6mGDtvJrpl+MNj9Cz4/hiAU4f9sPCzCJjai8BzHOTENwoYAoHA8zx4HceC48GrJFwCQI2+mJGIAJ4HB6Dt+MXw7ivFqR0HkFoDADzyL4cge9hifDjCEFx2ALb530YFjGD39hp8Mc0OJoZGzT7QCaz+D++ONkbUV7Pw4e5LiL71Gw4d/A159VoTwsqmEwxyIvHr7QIU3r2A3YeuQyIvQvaDRygVjsW8md2Q4e+B0bN88WPAKRz2W4jPIkxhr/LRVdBhAmaPfwXp+5dhzfks1KAambcTUchJkZOZj5IKADwHnurGgUN2wDb4364AjOzw9povMM3OBIZGejAdOw8zu2XA32M0Zvn+iIBTh+G38DNEmNpDxHPg5AS+USFPpEjGPM+j5H46CsqykPqgDFXZoTh3Iw9cRQny4qKQWAbFyMtrtSYZoZUNOhnkIPLX2ygovIsLuw/hukSOouwHeFRapVUL8pL7SC8oQ1bqA5RVZSP03A3kcRUoyYtDlMKA5lAFSmTKLF6VgP1H7+P/vlgCF1EJ7qcXoCwrFQ/KqpAdeg438jhUlOQhLir+ycavyYUF6DBhNsa/ko79y9bgfFYNUJ2J24mF4KQ5yMwvgd4zO5cU+dp8U2EEI0PgcV4uiouiEJ7pisXefSE9tQMHFEEAPv8yQrKHYfGHI2DIZSNgmz8U3X8ba76YBjsTQxipBoEWnemKMwWEihKZsniqQsL+o7j/f19giYtB3W7IaxupybTlMVMHX5SJDKU0+NyzOBvfB94fuiqXjajqtS3GL/ZGX+kp7DiQqvjmAD4fl0OyMWzxh6g3GyI4LliEEZLjOEUTML593XZtuaqt5n0O1pgwezxeSd+PZWvOQ+He20gs5CDNyUR+iX6L7CLI0XS4NOtLr4V5rh5Rb3gtHY/a/3yLJJf34aRhvJ9lrlLAoygzAwoX8sg9exbxfbzxoauRbo1pzWfax0cEDjyvLETrUEwsDfUjEQg8eA4t0I6ufioRdNChBT3NOtIQBBzHKT488wDfmhyqNQ/w4HhqND5SXFy9HtlTvsWWVT5YtnEbNs4eUL+EBkIr2HQyQE7kr7hdUIi7F3bj0HUJ5EXZePCoFFUAeI4HKT/ka48lXTUDIDAygiEeIy+3GEVR4bg/TJuv1dBEo9B5PQCoqakF1dSgrvzRqU/FaZrmOACcQniNPsyT4noNwoOipOEAXts8lo235k1Hl/wj+ODdpfh3wC84tv0jeAaIMNRB2MyHOu3VEU8AwGWdwor3PLErRuXbMV5kVBcZK6im+8GHaMu73UlfT0BWoz+h3ecSSNpkrXU5JR/1IVcHSzI0MKeuwxbRocRyIlk8nVrjRlZCfRLP2E4Xk1Lp2oHFNNRCQCaOC2lfeI7mY8uS6ez6t8hGKCL7qVvpXEImxf2yiSZ2FZLIfgr5/e8OPYgJoHVv25BQ1I2m+AVSWjVRbcZZWjvRiRxHzyCvf86n2d7fUGiBwtjq62toaPcB9Kbnp7TBdxUtWuRHV/PVLxqX5/5K6yf0og5tzMluzDIKCFxPzsZ1L9oR0eNw2jy2K5mb25DjtG0UfHElOfUYRXM3HKWbjzii8mQ66uNKDpaGZGDelYYtOkSJqu8oKuGk0fSD5xCytbQgO+cJ9PGGBTSkmwvN/Pwg3bifSOfWv0WdhSKym7yFLqQ+putrhlL3AW+S56cbyHfVIlrkd1XxohARlScfJR9XB7I0NCDzrsNo0aFEKicZxZ9aQ25WQtIXz6DtF5Mo9doBWjzUggQmjrRwXzhlZ5+mxYM6kZlldxq5cDcF/+RJthb2NH7bdXpw+wStftOahEIbcl97gmIeqR8zoscUvnksdTU3JxvHabQt+CKtdOpBo+ZuoKPBYdq1EHaLTi8eRJ3MLKn7yIW0O/gn8rS1IPvx2+iG4q2nppT/Tmc3v0+j3hhJkzw/osVeH9Kmc/eVL5dxlHN6MQ3qZEaW3UfSwt3B9JOnLVnYj6dtNwqfYPzUwZE0+gfyHGJLlhZ25DzhY9qwYAh1c5lJnx+8QXncsztXjkbf3CAZySnt4D9IbNmexJO3U2QpEdVm0Nm1E8nJcTTN8PonzZ/tTd+EFihejKy+TmuGdqcBb3rSpxt8adWiReR3Nb/ZS5NE1VrHSVucEZXT72c30/uj3qCRkzzpo8Ve9OGmc3S/kog4Cd0+sZretBaS0Mad1p6IoXo5tThmain2i/5kYD2Epi/8iJZ98hG9P8WDPj+XSXLiSKJRr7WUcXYtTXRypNEzvOif82eT9zehVG92PVL6ZcF48r2j+pqOhlylax8npegfPGmIrSVZ2DnThI830IIh3chl5ud08EaeVrs4yW06sfpNshYKycZ9LZ2IeVTvK036ak2eq6cqlJY6TaC9Ol6ieWa5qjaWvuhvQNZDptPCj5bRJx+9T1M8PqdzmXVv9WjTmO58lqMx/soo+ex6estGSCL7qbT1XAJlxv1CmyZ2JaHInqb4/Y/uPIihgHVvk41QRN2m+FFgWrVWH+mKlSbo1IIWHalQmXKe1rl3IqHQliZvOUOJspyW51CNeaCMks+tp7c6C0lkN5m2XEgl4nLo+Pu2ZKgHAvRIT6BPRuZW1GOUNx25q3i77XH4Zhrb1ZzMbRxp2rZgurjSiXqMmksbjt6kzMRztP6tziQU2dHkLRcotYo097MlNYM8jQ7+Q0yW7cU0eXsklWqJhWaUJTfVaEyMjutlUvrVf9Pi4e1JILCiMSv96T83HpJcmz415Liy5LO0/i0bEorsaerWc5SQGUe/bJpIXYUisp/iR/+784BiAtbR2zZCEnWbQn6B9+iBxnlMphjDYz7kKu5AZm1tyHnmdrpWyBGp86E2e1sYT7U3N9Kg9rbk+d9HqqP6wqJHjW/BMprAJW/GEOefMTY0Fl++ofbzJ4PB+FOQI26dM1zOTEDErU1wZOH41PBZe+C5pQO+858KS9WdfwTyOKxzdsGZCRG4tclR/R09xt8DPgdnff1R+q4nHPlHkJaUoaJMitw7P+NwnhcCd42F+p/4YjCeb7Qun2AwGIy/G6qLuRitgUNZsRRVfBkidl+G9fvv/DkFcROYB//e8Mg54oOld+zxf/3s0XvAIAwb5Yqx70zFNHdnvPG6hiUKDMYLACuKtSB/9Agl8jLIHmtbVctgMP545CgufgyuRAKp6q8yMVqMPH4LRltbwarTa1hcPAfLhrXid2+fFnkxih9zKJFIm/0yHOPvhciiE4x/W4LBru9jyVpfbNm8Hp9+MBv//MUeixZ2r//qSAbjRYMtn9AAl3MdR45fQqqkFvqW9nD1mI/RdiwVMBh/PtVIu3wI/wnLQIlcBAu70Zg+zw32yvf3GK1AnolLe44h8ZVxmDPdGR3+rNsi1Wm4fOg/CMsogVxkAbvR0zHPzR7MhX9fqnOicP5sCBJyKyC0tMXAsZPwf33bs4KY8ULDimIGg8FgMBgMxkvPn3WfgMFgMBgMBoPB+NvCimIGg8FgMBgMxksPK4oZDAaDwWAwGC89rChmMBgMBoPBYLz0sKKYwWAwGAwGg/HSw4piBoPBYDAYDMZLDyuKGQwGg8FgMBgvPawoZjAYDAaDwWC89LCimMFgMBgMBoPx0sOKYgaDwWAwGAzGSw8rihkMBoPBYDAYLz2sKGYwGAwGg8FgvPSwopjBYDAYDAaD8dLDimIGg8FgMBgMxksPK4oZDAaDwWAwGC89rChmMBgMBoPBYLz0sKKYwWAwGAwGg/HSw4piBoPBYDAYDMZLDyuKGQwGg8FgMBgvPawoZjAYDAaDwWC89LCimMFgMBgMBoPx0sOK4r8IvjQdCWky8Ko7XnT4UqQnpEH20nWc8SzgpPeQ8KBcdfOfCI/S9ASk1Qu4HJmxd5BdpdLsT6I8MxZ3/qqLq1Keidg72Xhya1THtnU8Dzn12frrr9Xe3wrVeeWptdhank67zzWqY/+c82IVxRWpuLx/I+a7D8ewYcMx8s3xmOrhganvTsWsDz7Dv05EIrdG9aA/GS4bv233xKBur8NjbwrkqvtfWDhk/7YdnoO64XWPvUh5eTrOeBZwmfht+xwM7NYPC45lglPd/yfAZf+G7Z6D0O11D+xVCpjP2Is5LkPhdTj/zy/G+AzsneOCoV6Hka9y8eprazG050isCCr8k+zikbF3DlyGeuGwqjEtQN3YtpjnJadq8deT8Jdq709Ct47VzStPp8XW8lTafa5RN/YvAPTCUU5n5lqRsO17dKJUuakyhyIOLqHhVvpkMfBDOpUhVznmT6Y6nD4RG9JrK29Qteq+F5pqCv9ETIavraQbL1fHGc+Cqt/oIztDct6URH9VBFeHf0Jiw9doZb2AyyjjdhxlVao0/JMoy7hNcc0uXk3XVziTy9owkqns+UMpy6DbcVmkak1LaT62reA5yanq/fWk/LXa++NpqY7VzCtPqcXW8lTafa5RM/bPOS/WnWIAgAgWbc2gpyeEsK53Rp3h4vktgs59jtd+98d8z++Q/FfcaqpDaAELcz3VrS8BQlhYmONl7DnjGSA0hZnpX5uyhBYWaBq6prB17I8uRo23/XmY2jqiv+rFuSxkvvopjm8cgbZN9/yxmNrCsX8XPOlQNB/bVvCc5FS1/npi/lrt/eG0WMdq5pWn1GJreSrtPteoGfvnnL9mhqnKQMihr7Fhw1Yc+C0dFar7/yBMBy3Hhpmvouzat/juSuOrViA34TpCwm4hs1TX45YaFKbcQEhIFNKkTStrueQeooKvIuRmOmRqim55cRqiQ8MQm12puguQS3AvKhhXQ24iXd3B9fAofZCE9FIenDQNkWFRSFNpX5GVgJQiDlW5dxCdUtzwqJmTIj3mGsIiU1BYt4yEL8bdsCAEBgYiMDAI4akl4AGUpl3HpcBABIWnNqwVqshFwvUQhN3KRLNh0rZPXoy06FCExWZDTc/V21VHRRYSUorAVeXiTnQKijUOjWa/AByk6TG4FhaJlGYXKEdWQiokPFBTkISIiGQUNnsMpO14BTWFKbgREoKoNGmzR/sVuQm4HhKGW5mlTR4BVmTH424BD3AypMdEIDarbq1sDQqSIxB+J1fNmjhttvCQ3Y9C6LU4ZJVIkJunae1t83Z8XhwuBwUiMOgaUmQ8wOXi1qVABAZeQuQDzRFanpWAVMXgISkiAsnNBw+cNB0x18IQmVIIVYtbNwZ60FNmX5IX4W5kJJLyVUZIo15aE+OqyFGcFo3QsFioC92qnHgkN35M+0Q2aNOvFn1V5SA+WfXxeXsMHtYJWTfVxFN5FhJSJeBRg4KkCEQkF7Z+uUFNIVJuhCAkKg1NTa1CTnwy8nm0Qk/ax/apcqpWnjyPqtMzX3wXYUGBijwaFI7UEh5AKdKuX1LmVZmiYTN/tST/aNZGM+1BDsm9KARfDcHNdFmzXAQA4CVICqnL+ZcQlaHwR0VGlCLnhyRB0viUfB7iLgchMDAI11Jk4MEh99YlBAYG4lLkg4b5+0m0pVFL0K5j6JpXGrTYeFte4nWEhschs0Q1/qAjt6pDu3a1x3tjnlyLaufOF2ZOB8pz4hEedgN3C6tRU5COjFIeeXGXERQYiKBrKVCkllu4FBiIwEuRUJ2qNM292vjzi+LyaHzp7gS3+Z9i48ZVWDDWGWN9I1Cm2u4PwRTDxw5FW8pDeHAiAIDPC8Imr+XwD43HzZ+XY7h4JNZekagdQL4oBFvmeOJfVzJRGL8LE8XO8DmTBx4c0o/OxZCp3+HOo3xE+LlDPHwjbtQ7qAIJe2fDfeF+xOWk4dwaH/jfa1ACl34Uc4dMxXd3HiE/wg/u4uHY2HBwQ7vsMOxaOAi2vWdi17GNGDdwMMa+6YJeYlf4Xi8BXxiJA0vGwEE8Fhv2bMV7w4fCZdA8HJEAsshv4emxCgEJWUg9uxwjervDN7gIvMAU7Q1T8O8FEzBpy21YdDaFAIBJxzaI3rEdMaJ2MBHwyAvaBK/l/giNv4mflw+HeORaXJHwALTtAyoS9mK2+0Lsj8tB2rk18PG/1yRRa7SLL0TkgSUY4yDG2A17sPW94RjqMgjzjkgaHa1As18AyCLxracHVgUkICv1LJaP6A1332AU8TyKog9j6RgHiN/yw4n9i+D+zkzMfmcA+k72R1qdkRqPr784QrbMgee/riCzMB67Jorh7HMGebxiMgna5IXl/qGIv/kzlg8XY+TaKyh6FIOjy9+EuMcobAg4hfWzZsBz/lS49BqC5UExOPLheEyZ9wGmDemFEetvNEw6Wm2pQfxOT/gcz4a8KhkHZg3Bez9mqJmU1Lfj23XFqwU/YdEkL+xPlgPCduhilYqdsybik4DcZpMrXxSNw0vHwEH8FvxO7Mci93cwc/Y7GNB3MvwbBg+R33rCY1UAErJScXb5CPR290VwEQ+++AnHAAAVXIDPUEcMdRuOvna9MOm7GJRp0UtrYrwZFQnYO9sdC/fHISftHNb4+KMudHlpLE58Og4O3UdiY1gV8IQ2aNWvJn3JpYg98SnGOXTHyI1h9R8cNMdTEaIPL8UYBzHe8juB/Yvc8c7M2XhnQF9M9k9r5l/18CgK2YI5nv/ClcxCxO+aCLGzD87kySGNPYFPxzmg+8iNCKsCBC3Rk5axxVPmVG08eR7VrGeBaXsYpvwbCyZMwpbbFuhsKgBggo5torFjewxEFtUq/mpZ/tGkDbmq9gCAS8fRuUMw9bs7eJQfAT93MYZvbBo7AACBMdqUX8YX08dj5u4MWHVQ3E81ai/E9c1rcL7cAm0aVwaCduj6agF+WjQJXvuTIYcQ7bpYIXXnLEz8JAC5tU+iLU1aUkSlRh0rj9Y8r/DNtAgAKLmBbZMnYH1kLQxLLuCjIb3wxphxeGfqZgRX6MqtatCq3ZbXFU+uRS1j9ALM6ahIwiHvdzB76yUkpYThmxmO6NZ7Cvam8GjX9VUU/LQIk7z2Q5FausAqdSdmTfwEAbl1gaN+7m3yYU8Tqusp/lg4yv9xPJnpgYCGf3qm4+jfDznVxk9INYUu7k4iCw8KKFfdR1QdtpR6iARkveA8EVdAJ2aNoVWRysUwXCbtGGVA+o7rKLZW5UAuj457OJD7D5nEERHVJtLXo9pR57mnqUx+l74cbEJOGxOolohqo1dTH6MBtE55kvLwldTPfh6dkSrPVXaeFtjoK9e/yenul4PJxGkjJSgOptV9jGjAulhSNYGIqDpiBfXUtybX9UH0sJaoPHkfTbERkoHTBrpTS8Rl7qDRBsbUd8mvVChNoitBd0giuUgfiHvR0tC6FVblFL68FxlYz6CT+RwR1VLCpjfI2GYenVEu3uJyD9JHKwOplIi4ghM0a8wqahimHTTKQJ8c18VStZZ9teXhtLKfPc1r6DidX2BD+nXrj6Q67OIyacdoAzLuu4R+LZRS0pUguiNR0Yk2v5CULn4gpl5LQ+vXlpWHL6deBtY042Q+cSSn+18PIwNzZ1pyJp2qiUj231lkZTicvr4vJ9J5PEd5xz3Iwf0HylRcnBK/HkXtOs+l02UcFZyYRWNWRSrXOHKUuWMUGeg70rrYWuJyvyc3QxMasjqU8uREVH2bvhigT21dPqNfH9YSUS3FfjGADO19KLiKdNtSHUEr+gygzyIVe7n8Y7R5V1JzDWlpJ0/eTIOMetKK60pnVl+nFT2NyeWr39Wu4ZXf/5qGGZiT85IzlK4YPJplZUjDv75PciKSXvyAxL2WUoN7w2l5LwOynnGS8jlq/RjURtPqPgZkM3EnRUvkRGUJtG+aHekbOpNvfK16vRTltTzGm1FO4Sv7kf28M9QQugvIRr9h7SCX9wO5GZrT9J+Vyaa1NlRr0682fSm0/4ObIZlP/5nKqQXxJL9PXw8zIHPnJXRG4TD67ywrMhz+Nd1X52AVuLzj5OHgTj8ojKHaxK9pVLvONFdhDOX94EaG5tOpbii060nH2D5VTtXNk+TR9PPa9Uy1CbTpDWOymXdGuQaWo9yDH9HKQOXLLar+0pV/tOa25tqT3/2SBps40UbFRELRq/uQ0QBNOi+n0KViMuy1kiKqFFu4/MM0e8YeylI3FcuTafMgI+q54rpyfKvp+oqeZOzyFf0up1ZrS6uWdOlY17zSTIuK+a2N8yZKkiv+vv15PzLsvphCqkl3blVua0CHdltTVzyhFl/oOZ1K6belfchx5XVlnCjG6DXDPrQ6upaI5JS8eRAZ9VxBDallBfU0dqGvfpcTkfa5Vxd/8p1iHnmZ2aiiplupOhsZD5vf0/ojoLIyVJAAZhaWQEUITgfl4N757fDz84Pf1mOodN8A3zlOMFY9UBqIE0GGcHTupLi9LnodK0IkyDk0GaZCMbwPh+GYjx2yQw5g68FISPlqVFbxAMoQtPsQ0vuOxhgL5bmMusHOWqj8Qwix92GEHfOBXXYIDmw9iEgpj+rKqmafKgFAYGwMI2EHDJ3kBhsRYNLLExu9BoASQhFawENgbAwDgTmc3Uagg0VvuLn3Ay7sw8lsB/R3rFthZYLBHpMhfnQexwNlAETovcAbb1achn9ADnhwuHciCh2nu6INgIqQ0wjKuYfz2/3g5+eHrccq4b7BF3OcjLXuKwvajUPpfTG6oePoZmeNup4Xn9Nhl8AYxgYCmDu7YUQHC/R2c0e/diqS1eaX4nPYdzIbDv0d69eWmQz2wGTxI5w/HggZhGjTxhRCswFwd+8GAwCm4h7oIiiBrJgAncdLEXgiCIaOzuikuDheXxECSc4hTDatQMjpIOTcO4/tfn7w89uKY5Xu2OA7B07GgKCNKUz0DNBtoDM6CQEYiOFgKwK6DMQwGxEAEexsO0OvRAopQbctIhuIbTPxzcSRmPvlKSTpe2Dtx70hUratp6XtWoCwTRuYCs0wwN0d3RSDhx5dBCiRFYNQjHP7TiLboT8a3DsYHpPFeHT+OAJlTzAGiqvC+g03DGwnBEz7YP72TzBcLwFh1x6BV6cXo7CWx7gqZUHYfSgdfUePQUPo2qE+dAEIzMzQpvGCutbaoE2/WvUFQGAGs0YX1xlPwjZoYyqE2QB3uCscBnGPLhCUyFCskpPVIQ08gSBDRzgrjIHo9RUIkeTgkMIYmJm1afnaQl1j+1Q5VTetz6OvIny/dj1D1BsLvN9ExWl/BOTwAHcPJ6I6YrprG+VFm/oLuvKPVm00155Q7I3DYcfgY5eNkANbcTBSCr66ElXqJhKYYJjPxxiecxjfnCoADw6ZARegP2UaujxJVdBKbWnTki4d65pXmmtRjoz0bNQI9JTbROjWrQuQm4GMyhbk1vrzKNGl3dbUFU+kxRd8Ti+5gD1HSzF4nBNMlJuEbds2fXqhFe1zry5afJlngwgOg5xgpZK7BK84YXBPg6Yb/xDkSIuJRSFZwtmlL/jSIkgqDdFr8kqsXr26/t+qpRPRU6VK4CSFeFQlQ3HD7NwIAUSVcdjp5Y0Duf0x39sV1gJlOy4bKb/LAKFI42ALRJWI2+kF7wO56D/fG67WAqi7inpE6P56D5iiFtXViqOaTkwcCrIeooKvQU2j5ZciO1vYCGogkz4GD0BgPR3eU80Q7L8fieXROHm/D2Y5GgDgUVokQaVhL0xe2TBGq1evwtKJPVCpcZ8D8lJ+hwxCiNR2vGV26ZpltfmFK8jCwwoeNU0vAFsbAWpkUjzmAb26RapK9IRC6IHAUwuOr5Wg8FEVZMXS5v7iS1EkqYRhr8lY2Uhbq1ctxcSeIkCvLkHXoQeBnuLRSf0WgQAgxRadtqArFhy5jD0eZgjdMh0Dew7FktNZzR9dClrYriWo9kFPCKEeQIrBQ9bDCvA1NY3WBItgZ2sDQY0MUsXgt2oM1CHoYI9uFnrg5LWKDSp6aU2Mq8Jlp0ARumoFrECvYZ1zw7amf2qzwaFEs37BadEXoFxjXXexlsSTqq16ECocpuH8jeEgKXyEKllxow8oTdFr5k/N6B7bp8uprUdHHm2JniGA9XRvTDULhv/+RJRHn8T9PrPgWD+1NfaXcovq343zj5bcBqjRnkCEyrid8PI+gNz+8+Htao26IVOH0H4Olk0zwoVv9iChKglHgztixvh2qs1aSGu0pU1LunQsRabWeUVBUy0aYPD4ceiYehWXHnAAqnE3JROWbhMwqk0LcqvKhwpd2tUW77pyjgIdWtQ5Rs/5nJ57HxllIhjo62ioCV1zrw7Udu2PpM3bm7FnySC0F+kpAsfSCR/t+QqT6z54/IHwkkv49tAdCPsswMfvmEFg3hnWJikI2H8V0vpWHNIDLyBe5ca1sGNX2BgXIPDnSyiu28hLEOh/DKklF7Fs0hpIpn2PTTOdYFU37gRArx1eaSdCVeItxFU3nA8AiFfc9bi4bBLWSKbh+00z4dTkYE0QqFGg1lZUgbfqhT6d1d0pEaJzj+4w55IQc6thdRlfU40awavo72itFEEbjPP2hDjpIL7xPYGSUTNgLwQAAcw7W8MkJQD7rzaMErh0BF5IhInGfQkwf6UdRFWJuNW84+BbbJd2tPklrWMPdDfnkBRzq2FdHV+D6hoBXu3vCGsdFxB21nG8fkd0tTFGQeDPuNRwcUgC/XHsd1N0tjZBSsB+NB2aQFxQFVcL0GkLZSPxYRd47ryKlKRzWNMvC7t9tuCKytCD09JOKIJQOSE3hugJSmZhZ/Tobg4uKQYN7uVRU10Dwav94ahr8FtKRREeVXbFgIEd1eqlNTGuil67V9BOVIXEW3FoOowEXu3dN/VosyGpvWb9pkKLvlJVffJs4kkzQnTsagPjgkD83GAMeEkg/I+lqv9QpUVPOse27GlyaktpRR5tqZ7bjIO3pxhJB7+B74kSjJph3+gOZuvQltuauR9A2cVlmLRGgmnfb8JMJ6v6pz+aZ5K2cF/6Afrd3YevfH/A7dffx5i6W3PNEEIkVH7gbQyRet9rRZuW0tBRq4474xWt84o6BOgweQd2exri6rebsGP7lzht/CkCjyyEnbAFuVUlcHRpV1u8a845rdBii2P9+ZzT9Sws0RYPERP5QKO2hAoxqmibQBwAgflTzb0tsfHZIrDG+O0RuJ8aieDgG0hNj8LOSTbP0BBCTY3q646APC8YW2YsxJGqN/HloS/gYgTAdCzmzeyGDH8PjJ7lix8DTuGw30J8FmEKe9UPFG3fwrzpXZB/5AO8u/TfCPjlGLZ/5IkA0VDYl91HekEZslIfoKwqG6HnbiCPq0BJXhyiko0xYfZ4vJK+H8vWnEdWDVCdeRuJhRykOZnIl+bjfnoByrJS8aCsCtmh53Ajj0NFSR7iohQvAzaDL0JmhvLVRD4XZ8/Go4/3h3BVPrEgyFHbyPdtxy+Gd18pTu04gNQaAOCRfzkE2cMW48MRhvXtRI4LsGiEBMdPESaMb1+/3XTsPMzslgF/j9GY5fsjAk4dht/CzxBhao+2Gvc5wHrCbIx/JR37l63BeUXHcTuxEJw0B5n5JdBviV0EyBt3RhUtfnFoNx6LvftCemoHDiguAD7/MkKyh2HxhyNgCB4cJwfxjSZuIkWA8zzQVtfxbfHWvOnokn8EH7y7FP8O+AXHtn8EzwARhjqYY+y8meiW4Q+P0bPg+2MATh32w8LPImBqLwI4HrxKcUUAqNFdUSICeF6RGHTZwmUjYJs/blcARnZvY80X02BnYggj1Q/bWtoJrWzQySAHkb/eRkHhXVzYfQjXJXIUZT/Ao1KVb3kAwHMc5MQ3migJBALP8+DRFuMXe6Ov9BR2HEhVvKXP5+NySDaGLf4QIwzR+jFQtqgokSknoyok7D+K+//3BZa4KG/HqepFa4xX4OauuRj/D19cUr7g0xhBhwmYPf4VpO9fhjXns1CDamTeTkQhJ0VOZj5KKgDwHHhSKZJbY0N7LfoVatOXEAAPjqf6QlBnnPMcODmBbzSZKOTOK+yvuIldc8fjH76XFC+KqtD2rXmY3iUfRz54F0v/HYBfjm3HR54BEA11gBAAz/GgRoWJNj0VG43VOrbS/KfIqSUVqLi5C3PH/wO+l/JUetGIVuXRFugZACCC44JFGCE5jlM0AY3SaDN/QWf+0aYNVe3xKLmfjoKyLKQ+KENVdijO3cgDV1GCvLgoJGp4k13U2wtLx9fiP98mweV9J83LqIRWsOlkgJzIX3G7oBB3L+zGoesSyIuy8eBRKap0aUsFbVpqp1XHxuigY15RhGVTLUovrsb67Cn4dssq+CzbiG0bZ2NA3Y04Xbm1zmglOvOCnpZ41zTArdJiC2JdyfM4pwus/g/vjjZG1Fez8OHuS4i+9RsOHfwNefWTgBBWNp1gkBOJX28XoPDuBew+dB0SeRGyHzxCaZWp9rlXF6qLjJ9rylPoyoGNNNFWRHr61uQ08R80b+EC8vQYT6OGjiGPlXspPFdloXV5Mh31cSUHS0MyMO9KwxYdokQ1L+gRKdoe83ElcQczamvjTDO3X6NCjoi4HDq9eBB1MrOk7iMX0u7gn8jT1oLsx2+jGzIi4qQU/YMnDbG1JAs7Z5rw8QZaMKQbucz8nA7eyKGc04tpUCczsuw+khbuDqafPG3Jwn48bbvR/CvLa2O/oP4G1jRk+kL6aNkn9NH7U8jj83OUKSfiJLfpxOo3yVooJBv3tXQi5lH9SwK1GWdp7UQnchw9g7z+OZ9me39DoQWqC9yJpL8soPG+d5q9oFWefJR8XB3I0tCAzLsOo0WHEusXwWvex5E0+gfyHGJLlhZ25DzhY9qwYAh1c5lJnx+8QXmcFrs4Cd0+sZretBaS0Mad1p6IoUfNzVWgyS9ERLUZdHbtRHJyHE0zvP5J82d70zehBcQRkSz+FK1xsyKhvphmbL9ISanX6MDioWQhMCHHhfsoPIfTerzy4pR8zIdcxR3IrK0NOc/cTtfqL15OyUd9yNXBkgwNzKnrsEV0KLGcqCyZzq5/i2yEIrKfupXOJWRS3C+baGJXIYnsp5Df/+7Qg5gAWve2DQlF3WiKXyClVWvvC1VfpzVDu9OANz3p0w2+tGrRIvK7quYlEa3tHlP45rHU1dycbByn0bbgi7TSqQeNmruBjt581PQ8sng6tcaNrIT6JJ6xnS4mpdK1A4tpqIWATBwX0r7wHCKqpYyza2mikyONnuFF/5w/m7y/CaUCjp5wDMrp97Ob6f1Rb9DISZ700WIv+nDTObpfSdr1oinGuRw6OKUTWbxiRcN8E5r2TwknjaYfPIeQraUF2TlPoI83LKAh3Vxo5ucH6cb9RDq3/i3qLBSR3eQtdOFubuttUO7TqF+N+iqj5HPr6a3OQhLZTaYtF1KJtMa5jOJPrSE3KyHpi2fQ9otJlHrtAC0eakECE0dauC+csrMP0pROFvSK1TDyTVDNAArKk4+Rj6uYOpi1JRvnmbT9WiEp3HmO1r/VmYQiO5q85QKlVpFOPWkd25zsp8upB6dQJ4tXyGqYr2oXiJ44j2rRcxOk9MuC8eR7p/EYNvdXi/KPJm2UJTfVXmoVcTmnafGgTmRm2Z1GLtxNwT95kq2FPY3fdkPrj19UhS4lpwl7KadZP5ryOHwzje1qTuY2jjRtWzBdXOlEPUbNpQ1HgynsP9q1pe7cmrREWnVMOueV+4mqWuQo5/j7ZGuoRwBIT09A+kbmZNVjFHkfuat4GUtbblWDVu3mKfymMd5VeDIt6hqjBp7HOV2e+yutn9CLOrQxJ7sxyyggcD05G9e9aEdEj8Np89iuZG5uQ47TtlHwxZXk1GMUzd1wlG4+4jTPvS1AjxrflmH87ZHHrYOzyxlMiLiFTY4t+NTDYDC0UhO+Bh/eWogfl9ir7noJqUH4mg9xa6E/liietT6/1IRjzYe38OWPS1T3sDxaD4+sPZ7Y0uE7+E+1VN35gsAj56wv/Evfhacjj0fSEpRVlEGaewc/H86DV+AujFW9HfwnwrSoGy55M4Y4/4yxobH48o0/doye3aoFxp+LmkdSDAajdfCSCOw93x7vz2EFMcBDErEX59u/jznPe0HMSxCx9zzavz9HdU9TXtY8ypWhWFoFviwCuy9b4/13XtSCGOBzjsBn6R3Y/18/2PcegEHDRsF17DuYOs0dzm+8rnlJw5/Ny6rFvxmsKH7OkBcX4zFXAom0+bppBoPRCngpEuJ4jN+wHKNf3JqgxfDSBMTx47Fh+Wg838PBQ5oQB378BizX4NiXO4/KEb9lNKytrNDptcUonrMMw+q+QetFRGSBTsa/YclgV7y/ZC18t2zG+k8/wOx//gL7RQvR/S/+/Pdya7FlyB89Qom8DLLHmtciPyvY8onniOq0yzj0nzBklMghsrDD6Onz4Gb/Z3yVHYPBYLwYsDwKyDMvYc+xRLwybg6mO3d48e+OVecg6vxZhCTkokJoCduBYzHp//qi/V9cEDMt6obLuY4jxy8hVVILfUt7uHrMx2i7P85xrChmMBgMBoPBYLz0vPAfEBkMBoPBYDAYDF2wovhvQzkyY+8gu/nXwTIawZemIyFN9ly+k/CH2V6Vg4S7BY3OW4WchLsoeOYXYjAYDAbjxYUVxS2gJmI9RvQcjqXn83UWNHzmXkzr2R8z9qYovuC9hfAZezHHZSi8Duu+xksJl43ftntiULfX4bE3BX/8cvtnyB9lOy9D7NFP4ObggNGbw1EDHrLYo/jEzQEOozcjvDUCZDAYDAbjJYcVxTqpQezZQNS+uwXrx3fSMWA88gPPItn5M2xd8Bpas1xeYLcIP92IwL65uq7xkiLsAlcfL4xqT1p+tvRvyh9lu8ACjjOXYZK47rwCWDjOxLJJYrA3BRgMBoPBaB2s/tIF9xAPOi/Hic2jWvA1RRVI4t/BIf+ZsG31y5GmsHXsjy4v8lfjPC1CC1iYq/5u8XPCH2W7wBxmpo3PK4C5mSn+gCsxGAwGg/FC80IWxbzsPqJCryEuqwSS3DyUN95ZkYuE6yEIu5WJ0sbrFCqykJBSBK4qF3eiU1Cs/J1tuUyObn1fQebtdMjqf3u7MTzy4i4jKDAQQdce4g3vf2Lg41u4FBiIwEuReFBR164cWQmpkPBATUESIiKSUajyHL0qJx7J+U0XT9QUpuBGSAii0qRodnlOivSYawiLTEGhjkflfOkDJKWXguekSIsMQ1SaTOV8ckjuRSH4aghupqvs0zQ2knuICr6KkJuaxqYxNShMuYGQkCikSVWurOM88uI0RIeGITa7UnUXIJfgXlQwrobcRLq6gwHweXG4HBSIwKBrSJHxAJeLW5cCERh4CZENDkJ5VgJSFQ5CUkQEklUdBICTpiPmWhgiUwpbtDxGq+0AKnITcD0kDLcyS3Uum1HfVgA9lQpYoLpBiTbbtcYMg8FgMBgvAS9cUVwTvxOePseRLa9C8oFZGPLej8iQQ1G8Bm2C13J/hMbfxM/Lh0M8ci2uFOUj8sASjHEQY+yGPdj63nAMdRmEeUcKkX50LoZM/Q53HuUjws8d4uEbcaOhhlIiQLuur6Lgp0WY5LUfyXJA2K4LrFJ3YtbETxCQW4ui6MNYOsYB4rf8cGL/Iri/MxOz3xmAvpP9kcYBvDQWJz4dB4fuI7ExTPmmHV+EkC1z4PmvK8gsjMeuiWI4+5xBnrIakkV+C0+PVQhIyELq2eUY0dsdvsFFzQsrLhthuxZikG1vzNx1DBvHDcTgsW/CpZcYrr7XUQIAXDqOzh2Cqd/dwaP8CPi5izF84w1U8IVPOTYK+KIQbJnjiX9dyURh/C5MFDvD50weeHA6zlOBhL2z4b5wP+Jy0nBujQ/87zUUvlz6UcwdMhXf3XmE/Ag/uIuHY6MaIwTtuuLVgp+waJIX9ischC5Wqdg5ayI+CchFbVE0Di8dAwfxW/A7sR+L3N/BzNnvYEDfyfBPq7ueDJHfesJjVQASslJxdvkI9Hb3RXBRsxFXot128HkI2uSF5f6hiL/5M5YPF2Pk2iuQqDtda9qqRbvtmmOGwWAwGIyXCHqhqKaIFX1owGeRVElExOXTsc27KKmWiCs4QbPGrKLIakVLLnMHjTLQJ8d1sVTLZdKO0QZk3HcJ/VoopaQrQXSnMIm+HGxCThsTqJaIaqNXUx+jAbQutlblmkREckrePIiMeq6g68rzV19fQT2NXeir3+VEJKf7Xw8jA3NnWnImnaqJSPbfWWRlOJy+vi8nIiIu7wdyMzSn6T+XExFHecc9yMH9B8rkiIhqKfHrUdSu81w6XUZE0ov0gbgXLQ2tVF6/nMKX9yID6xl0Mp+rt6qe6gha0VOfrF3XU9DDWqLyZNo3xYaEBk604U4tye9+SYNNnGhjQi0R1VL06j5kNGAdxdYS0dOODZdHxz0cyP2HTFJ0JZG+HtWOOs89TWXyu1rPUx6+kvrZz6MzUuW5ys7TAht9em3lDaomOd39cjCZOG0khdnRtLqPEQ1YF0tqrCB58mYaZNSTVjQ4iFb0NCaXr34nORHJ739NwwzMyXnJGUpXOIhmWRnS8K/vk5yIpBc/IHGvpdQw5OG0vJcBWc84SeqGXLvtHBWcmEVjVkWSwhqOMneMIgN9RzVjqKvtYzo4wYgsZ/5XoXkienxwAhlZzqT/Kjdot11zzDAYDAaD8TLxgt0pFsFGbIvMbyZi5NwvcSpJHx5rP0ZvEVARchpBOfdwfrsf/Pz8sPVYJdw3+GKOkzEgMIaxgQDmzm4Y0cECvd3c0a/Da/A+HIZjPnbIDjmArQcjIeWrUVnV4ttzjRCiTRtTCM0GwN29GwwAmIp7oIugBLJi5StSZmZoU//UW4rAE0EwdHRGJwEAiPD6ihBIcg5hsilQfG4fTmY7oL9j3QJkEwz2mAzxo/M4HiirO0kDAmMYGwnRYegkuNmIAJNe8NzohQGUgNDQAuiJvXE47Bh87LIRcmArDkZKwVdXoopXHvs0YyMNxIkgQzg6K18gFL2OFSES5ByaDFOhWMt5yhC0+xDS+47GGAvluYy6wc66brG2EGLvwwg75gO77BAc2HoQkVIe1ZVVze+WtwBhmzYwFZphgLs7uikchB5dBCiRFYNQjHP7TiLboT8ahnwwPCaL8ej8cTQfcl22VyDkdBBy7p3Hdj8/+PltxbFKd2zwnQMn40anaXVbdeiyXXPMMBgMBoPxMvGCFcUCdF1wBJf3eMAsdAumD+yJoUtOI4vjUVokQaVhL0xeuRqrV9f9W4WlE3tCBKD5m0kCiCrjsNPLGwdy+2O+tyusBU/+Sr+eyjpPPaEQeiDwdafU02tYG8pJUPioCrJiqZpvK+BQkPUQFXwNahp9p7HIzhY2ghrIpI9bVBSKur+OHqZAbXU1SCBCZdxOeHkfQG7/+fB2tUaTrj7F2HCSQjyqkqFYqm6/lvNw2Uj5XQYIRRpFKhBVIm6nF7wP5KL/fG+4WgvUjFcL0dNr2k09IYR6APEEcAXIelgBvqYGDUMugp2tDQQ1Mkgfq4y4Ltv5UhRJKmHYazJW1mtxNVavWoqJPVWq0da0VYdO26EhZpqchcFgMBiMFx61c/bzC4fsxIfo4rkTV1OScG5NP2Tt9sGWK7Uw72wNk5QA7L8qbdQ8HYEX4tV/b2zZRSybtAaSad9j00wnWNXVHxqqLqFICBCvsptAT1JcCDuiq40xCgJ/xqXiuo08JIH+OJYKdO7RHeZcEmJuNayf5WuqUSN4Ff0drTU6lahR8VZbgSreCr36dEblxWWYtEaCad9vwkwnK8WHBM1dbdXYCDt2hY1xAQJ/voSGrkgQ6H8MqSVazqPXDq+0E6Eq8RbiqhvOBwDEK+4kX1w2CWsk0/D9pplw0mYEAAhFEDb+EKKEWuIgYWf06G4OLikGDUPOo6a6BoJX+8PRWmXEddkuMEdnaxOkBOxHUzkG4kK8ihpb01YdOm0nDTGjYjiDwWAwGC84muqn5xQO2QHb4H+7AjCyw9trvsA0OxMYGunBdOw8zOyWAX+P0Zjl+yMCTh2G38LPEGFqrygCCZDXNhQZfMl9pBeUISv1AcqqshF67gbyuAqU5MUhKrGs8UUBCGFl0wkGOZH49XYBCu9ewO5D1yGRFyH7wSOUVvHgODmIb1SUEQHEg+eVhSrPgSeC4s+2eGvedHTJP4IP3l2Kfwf8gmPbP4JngAhDHYRoO34xvPtKcWrHAaTWAACP/MshyB62GB+OMGwwqwk8ijIzoLCcR+7Zs4jv440PXQ1Qcj8dBWVZSH1QhqrsUJy7kQeuogR5cVFILHvKsWn7FuZN74L8Ix/g3aX/RsAvx7D9I08EiIbCvkzLeZKNMWH2eLySvh/L1pxHVg1QnXkbiYUcpDmZyJfm4356AcqyUvGgrArZoedwI49DRUke4qISm9oAQGhlg04GOYj89TYKCu/iwu5DuC6Royj7AR6VVoHnOMiJV9wZBhQfaEDgeR482mL8Ym/0lZ7CjgOpim9u4PNxOSQbwxZ/iGZDLuig3fYSPYydNxPdMvzhMXoWfH8MwKnDflj4WQRM7VXv/prqaMuB4xTFdt1HHk6xoV5L2m3XHDPgJbi80QP/2ByMRvU4g8FgMBgvJqqLjJ9vqun6mqHUfcCb5PnpBvJdtYgW+V2tfxGqPPko+bg6kKWhAZl3HUaLDiVSOSeh2ydW05vWQhLauNPaEzH0iCMiLodOLx5EncwsqfvIhbQ7+CfytLUg+/Hb6IZM9bpE9DicNo/tSubmNuQ4bRsFX1xJTj1G0dwNRyk47D+0xs2KhPpimrH9IiWlXqMDi4eShcCEHBfuo/DfE+nc+reos1BEdpO30IXUKiIqp+RjPuQq7kBmbW3IeeZ2ulbY8EZXbcZZWjvRiRxHzyCvf86n2d7fUGiBmje+iIhqY+mL/gZkPWQ6LfxoGX3y0fs0xeNzOpepfMkv5zQtHtSJzCy708iFuyn4J0+ytbCn8V8FUeizGJvyZDrm40riDmbU1saZZm6/RoUtOQ8npegfPGmIrSVZ2DnThI830IIh3chl5ud08EYO5ZxeTIM6mZFl95G0cHcw/eRpSxb242mbWiMeU/jmsdTV3JxsHKfRtuCLtNKpB42au4GOBofRqTVuZCXUJ/GM7XQxKZWuHVhMQy0EZOK4kPaF5xBRLWWcXUsTnRxp9Awv+uf82eT9TShpGnLttucp/HvUh1wdLMnQwJy6DltEhxLLVc+iRFPbSko5v47cOwlJaDuZtpxJpMqU87TOvRMJhbY0ecsZSnxMOmzXEjPyNPrhrY7UafweSldIhcFgMBiMFxY9IvbbVy888jisc3bBmQkRuLXJsX55BIPBYDAYDAZDwQu2fIKhnZa8gsdgMBgMBoPx8sGK4pcBeTGKH3MokUib/ZIZg8FgMBgMBgNgyydedKrTcPnQfxCWUQK5yAJ2o6djnps9DFTbMRgMBoPBYLzEsKKYwWAwGAwGg/HSw5ZPMBgMBoPBYDBeelhRzGAwGAwGg8F46WFFMYPBYDAYDAbjpYcVxc+McmTG3kF2ler255yqHCTcLWj0ZW5VyEm4iwL27W5/Hc18ogO+FOkJaZC1+IDG/BX+fkFj6SWlPDMWd1rlzBfD/3xpOhLSZC2P0xeFp8o3fxHlmYi9k43nXHKMZ8ALVBTzKLx5Ets+noIxw0diysYQlZ+mrUF6yCF8ufAtjJrwEf51NLzJ3qeFz9iLOS5D4XU4/8VIgrwMsUc/gZuDA0ZvDkcNeMhij+ITNwc4jN6McPbdbn8+zXyiCw7Zv22H56BueN1jL1Iafqm7Bfx1/n7hYullhs/A3jkuGOp1GPktdOZz738uG79t98Sgbq/DY28KWhV2zzVPk29aDpcRhiPffIxJI4djxNv/wAfe3vD29oa3txfmvjsOY97fjeRWXZtHxt45cBnqhcMtFSnjxUX1J+6ee2rv0/7J1iQU2dDUw+mk+uu05f+bT0OXhVG1yvanp4wybsdRVqXqds1whTF0M03Vwr8RXBZ9N8aQLGf+lxTd4ijruzFkaDmT/tuKfjKUcIUUczOtmSZbRTOf6KKawj8Rk+FrK+lGq0X/V/m79bHE+PtSlnGb4lrlzFb4/1nE1B9BdTh9Ijak11be+APmmr8zT5NvWkFVMH3cTUiGEw7S4ybbk+nbBWsppKrxxhZQlkG347JamFP/TDgqjLlJz6pM+NvXHH8DXqA7xUpEXTHYqQc6tivB/xbPwpaosia7hW0t0NHc7A+4RW4KW8f+6GKkul0T5Yj6bh0O3WvVR9o/F4E5zEz1Gm+AuZkpGm9htJzyqO+w7tC9p7tz1MwnuhDCwsL8CX32V/m7tbHE+DtjauuI/q1yZsv9/0xi6o9AaAEL8z8/cv56nibftAJhG7Rto2YWN+yJ2R9Pwasi1R06MLWFY/8uaIHk/lzKo/DdukN4NmXCc1Bz/A1Qo6o/gaoMhBz6Ghs2bMWB39JRobr/adFrjylf/4DpFjHY/P4SnM7T9UiEgzQ9BtfCIpFSqPqcmIfsfhRCr8Uhq0SC3Lxylf0NVOXEI7nR45fyrASkSnigpgBJERFILlSKkS9C5M65eH97NDLifkVQcCKK6g+rQG7CdYSE3UJmaWO7K5CVkIIirgq5d6KRUsw17MlNwPWQMNzKLG3yuJGX3UdU6DXEZZVAkpuHesvlEtyLCsbVkJtIlzWcpzkC6KlkN4HqBiWqNvDFdxEWFIjAwEAEBoUjtYQHUIq065cQGBiE8FSZ4kBttlRkISGlCFxVLu5Ep6BRlwE+D3GXgxAYGIRrKTLw4JB76xICAwNxKfJBg6bKs5CQKgGPGhQkRSAiuVDnBFpTmIIbISGISpNCdXQ4aTpiroUhMqWw+fIFjdfiURS5E3Pf347ojDj8GhSMxCJeq081X6e5T9QiL0ZadCjCYrNRqboPACpykXA9BGG3MtFEZiqo87dccg9RwVcRcjMdTV3WwljhS/EgKR2lPAdpWiTCotJUztM8lgANNpfcw/VLSp01+hcUnqpc0yiH5F4Ugq+G4Ga6rKk/eRnuR4XiWlwWSiS50GSugnLkxIcj7MZdFFbXoCA9A6Ut1SA02K4OjRpqBCdFesw1hEWmoHm6amGfmrXjkRd3GUGBgQi6lgIZD3C5t3ApMBCBlyLxoL4zFciOV6wx52TpiImIRVbdNWoKkBwRjju5Kiszq3IQn9x4KUQ5shJSoUiNSYiISEZdaqxD1f/Nc1krY0pbnlGDxhyg4zzy4jREh4YhNltN1Ok4tgEepQ+SkF7Kg5OmITIsCmkq7SuyEpBSxKEq9w6iU4obbFSnDb4Yd8OClLERhPDUEvAAStOu41KTWGmex5ugTcO68o06u+rQludbSUVCPAr6OKG7ULmhmc5VDqinCjnxyY2W+LRe53zpAySll4LnpEiLDENUmkq+QevG4VF+JHbOfR/bozMQ92sQghOLFD7RoqNnW3OooaYQKTdCEBKVBqlq57T17WnzGnRcW2MfNOQDLfz5RXF5NL50d4Lb/E+xceMqLBjrjLG+EWh6P/fpEXSeDv/jq+FYeBhec3YisVq1hRJZJL719MCqgARkpZ7F8hG94e4brBRMDeJ3esLneDbkVck4MGsI3vsxo5kzeWksTnw6Dg7dR2JjWBX4omgcXjoGDuK34HdiPxa5v4OZs9/BgL6T4Z/GgZflQmJsiTY8j+pyGWQlFZAD4POCsMlrOfxD43Hz5+UYLh6JtVeKkB95AEvGOEA8dgP2bH0Pw4e6YNC8I5DweQja5IXl/qGIv/kzlg8XY+TaK4rJJn4nPH2OI1teheQDszDkvR+RIQe49KOYO2QqvrvzCPkRfnAXD8fGG0/xsUSDDVLj9jBM+TcWTJiELbct0NlUAMAEHdtEY8f2GIjamWi2hS9E5IElGOMgxtgNe7D1veEY6jII845IGq4raIeurxbgp0WT4LU/GXII0a6LFVJ3zsLETwKQW1uE6MNLMcZBjLf8TmD/Ine8M3M23hnQF5P905onKygSR8iWOfD81xVkFsZj10QxnH3OQPGZSobIbz3hsSoACVmpOLt8BHq7+yK4iAd4HdfiZciVGMOyDQ++uhwymRQPozT4VNt1WkhFwl7Mdl+I/XE5SDu3Bj7+9xr1l0de0CZ4LfdHaPxN/Lx8OMQj1+KKpCXn55B+dC6GTP0Odx7lI8LPHeLhG6GQT0tihUN22C4sHGSL3jN34djGcRg4eCzedOkFsasvrpc0jyUFmm2uuXsYW/yjkFMsg0wmw6OYPfCaOBWrzxdCSOk4OncIpn53B4/yI+DnLsbwjTcUxWpNPHZ6+uB4thxVyQcwa8h7+DFDNbIVVCQdgvc7s7H1UhJSwr7BDMdu6D1lL1J4HRrkoNX2JujSkLKZLPJbeHqsQkBCFlLPLseI3u7wDVZOli3tk9p2PNp1fRUFPy3CJK/9SJYDwnZdYJW6E7MmfoKA3FoUxxzF8jfF6DFqAwJOrcesGZ6YP9UFvYYsR1DMEXw4fgrmfTANQ3qNwPobFQAvReyJTzHOoTtGbgxDFXgURR/G0jEOEL/lhxP7F8H9nZmY/c4A9J3sjzROvf/V5rKalsdUoaY8ow4tOUBjvgIAVCBh72y4L9yPuJw0nFvjA/97DVGn/dgGuOww7Fo4CLa9Z2LXsY0YN3Awxr7pgl5iV/heLwFfGIkDS8bAQTwWG/ZsxXvDh8Jl0DwckWjRhsAU7Q1T8O8FEzBpy21YdDaFAIBJxzaI3rEdMaJ2MIH6PK6QqXYNa883WuxqSZ5vBfKSuzjx3VHcrSuo1OpcNR54SGNP4NNxDug+ciPCqvjW65zLRtiuhRhk2xszdx3DxnEDMXjsm3DpJYar73WUKK/UunF4A7P3PoCxZRvwfDXKZTKUVMg16ujZ1hyS5h+IwKMoZAvmeP4LVzILEb9rIsTOPjijvOGouW/PIK/puLb6Pmipm+r7pAHV9RR/LBzl/ziezPRAQMM/PdNx9O+HnGrjJ6SWEjdPIZ/LVUQkp/TD79GrImPqu/QySTiiquBPaMr6WKolIiIpXfxATL2WhtavJSoPX069DKxpxsl84qojaEWfAfRZpHJFbf4x2rwrSXlsU7i8H8jN0Jym/1xORETy+1/TMANzcl5yhtKriUj2X5plZUjDv75PciLicr8nNyMbWnhRufiJK6ATs8bQqkjlQiwuk3aMMiB9x3UUW8tR5o7RZGDcl5b8WkjSpCsUdKeI8k7MojGrIpVr1jjK3DGKDPQdaV1sOUWs6EMDPotU9IvLp2Obd1FSrZzufjmYTJw2UkItEdVG0+o+RjRgXd14qPKYDk4warJ+9fHBCWRUv8aUowKNNtQS1SbQpjeMyWbeGZIp9+ce/IhWBpYSkQ5buEzaMdqAjPsuoV8LpZR0JYjuSFQ0Ik+mzYOMqOeK68rrV9P1FT3J2OUr+l1ORPL79PUwAzJ3XkJnFE6g/86yIsPhX9P9ZsuqOMo77kEO7j9QJkcKHX09itp1nkuny4ikFz8gca+lFNogFFrey4CsZ5ykfK4F1+Jy6Xs3I7JZeJEUHlfnUwlJdF1HjU+aUB5OK/vZ07wzUuWGMjq/wIb0lWv8uIITNGvMKmqQ2Q4aZaBPjho00MTf8rv05WATctqYQAqXraY+RgMUvm5xrFRTxIqepG/tSuuDHlItlVPyvilkIzQgpw13qFZNLGmzuTLxPJ1PUV6lNII+d2pDFiO+otgqIvndL2mwiRNtVAiMolf3IaMB60hh7grqM+AzUpjLUf6xzbQrqbm1VPobLe3jSCuvK2xR2P8aGfZZTdG1ujWozfZmV9OlIelF+kDci5Y2iIPCl/ciA+sZdDKfa3GfNLeTU/LmQWTUcwVdV9pbfX0F9TR2oa9+lyvi93s3MjQZQqtD80hORNW3v6AB+m3J5bNf6WEtEdXG0hcDDMneJ1ihcy6PfnAzJPPpP5MyM9L9r4eRgbkzLTmTTorUOIusDIfT18qgbOr/ag25rKUxVUhJ2vJME7TlAO35qjx8JfWzn0cNYXeeFtjoK9cUaz9WleqIFdRT35pc1wfRw1qi8uR9NMVGSAZOG+hOrUJDow2Mqe+SX6lQmkRXgu6QRKJdG0S1lLDpDTK2mUdnFMmYuNyD9NHKQCrVkce1alhHvtGl2RbleXXU3qS1ffVJ1O1NWvDBB/TBBx/Qwpmu1MNmJv1HGaqada4KR3k/uJGh+XRSpJwn0Hl1BK3oqU/WruspSOE02jfFhoQGTrThTu0TjkMt5X7vRkY2C0lRJmjX0bOtOZRmKuHyjpOHgzv9oAgMqk38mka160xzFZOj9r49ZV7Tem2tfVCXDySkS11/8p1iHnmZ2ahS+WFpqs5GxkPVT3DPAiG6zdmHYyt648H3nlh4OL3pHcLic9h3MhsO/R3r1xKZDPbAZPEjnD8eCJnIBmLbTHwzcSTmfnkKSfoeWPtxb6hbriQwM0ObRk+ahW3awFRohgHu7uhmAMBUjB5dBCiRFUPt72pXhOB0UA7und8OPz8/+G09hkr3DfCd4wRjCGBsbACBuTPcRnSARW83uPczQtjpIOTcO4/tfn7w89uKY5Xu2OA7B07GItiIbZH5zUSMnPslTiXpw2Ptx+gtEkLsfRhhx3xglx2CA1sPIlLKo7qySs0nw5ZQgRCNNgAQ9cYC7zdRcdofATk8wN3DiaiOmO7aBoAOWwTGMDYQwNzZDSM6WKC3mzv6tWulXIVt0MZUCLMB7nBXOAHiHl0gKJGhuJkTpAg8EQRDR2d0EgCACK+vCIEk5xAmmxbj3L6TyHboD8cGocBjshiPzh9HoKy11wKg1qfABV3X0UFZ0G4cSu+L0WMslFuM0M3OGnVPEytCTiMo5x7Ob/eDn58fth6rhPsGX8xxMm50Fg0IxfA+HIZjPnbIDjmArQcjIeWrUVnFAy2OFQGMjY0g7DAUk9xsIIIJenluhNcAQkJoKAr45rGkzWbR6+/gnZ4igJcg6LN5+NfDMdh2cAUGGAJCsTcOhx2Dj102Qg5sxcFIKfjqSijMFcM28xtMHDkXX55Kgr7HWnzcu7m1JRf24GjpYIxzMlFuEaJt2zYtfsSmzfZm6NBQ8bl9OJntgP4N4sBgj8kQPzqP44GyFveppe2aI0AbUxPoGXTDQOdOEAIwEDvAVgR0GTgMNiIAIjvYdtZDiVSqyHMCM5g1diaEaNPGFEKzAXB37wZFauyBLoISyJSB0tT/mnJZo1PWoy6mOuA1bXmmCdpygLZ8VYag3YeQ3nc0GsKuG+ys66JO27HNERgbw0jYAUMnucFGBJj08sRGrwGghFCEFvAQGBvDQGAOZ7cR6GDRG26KxKFVG4AIvRd4482K0/APyAEPDvdORKHjdFe00ZHHtWlYV77RpdmnzfPCPrOwY88e7NmzB/uOXcLPy/rV55yW61wAM7M2jdZBP4nOjWFsJESHoZPgpnAaPDd6YQAlIDS0AI+eyTho19GzrTmaIg08gSBDRzgrAgOi11cgRJKDQ5NNdfv4KfOatmtr74O6fNBOZ+7Wtf8ZI4LDICdY1UWMEsErThjc06DpxmeGBUZuOokd7xDOLfkHNt9ueGTFFWThYQWPmppGa4NEdrC1EaBGJsVjdMWCI5exx8MMoVumY2DPoVhyOkv9o3c9vaZrPfX0mr5soCeEUA8gXq08wZcWQVJpiF6TV2L16tX1/1YtnYieIgCqry7wpSiSVMKw12SsbNR+9aqlmNjTAF0XHMHlPR4wC92C6QN7YuiS08jiAIGoEnE7veB9IBf953vD1VqgPmBaglYbRAAEsJ7ujalmwfDfn4jy6JO432cWHJWu1mlL8+WsrUTFJ9CDUOGE5n3mJCh8VAVZsTLJNdlXgKyHFeBrahp9j6UIdrY2ENTIIH3Mt+5a9ah0sEXX0QaH7JTfIYMQIrWRzaO0SIJKw16YvLKRv1avwtKJPdUUsKoIIKqMw04vbxzI7Y/53q6wFih7J2hFrKgi6o7Xe5gCtdWoJtVYaonNPHICfLBofzWm/+CPBXULCgUiVMbthJf3AeT2nw9vV2s0mLsARy7vgYdZKLZMH4ieQ5fgdJaqtRxy72egTGQA/SfSYktsb4w2DXEoyHqICr4GTdOVLWwENZBJHwMt6lNL+64ePdU15noCKB781W+AQABQ/Sa9Zsc0+1sohB4I9amxif8FGnOZepo7SmeeqUNbDtB2Hi4bKb/LAKFI44Sq8dgWIUL313vAFLWorlYc1bSXurXBAxBYT4f3VDME++9HYnk0Tt7vg1mOBjryuECLhh2QpzXftMwuNS57QkTo9/4cDFPWVq3RuZ7KfK2qUd06b46o++tQpLUK5D+jcdCqo2dec9TBQVL4CFWyYkibnaolPn6avCZFkcZrt6QPLRhUFdRK+Y+kzdubsWfJILQX6SkGx9IJH+35CpPrPmj+EYgcMP/AESy2T8TXa4/hoXJwhZ17oLs5h6SYWw0vxfA1qK4R4NX+jrCmbCQ+7ALPnVeRknQOa/plYbfPFlzRtD75KRCYd4a1SQoC9l9t9P3KHNIDLyBe3U10gTk6W5sgJWA/rjb6QmYuPRAX4quRnfgQXTx34mpKEs6t6Yes3T7YckWCi8smYY1kGr7fNBNOVnXKV6O2lqDVBqXRbcbB21OMpIPfwPdECUbNsFfeRSh7BrYIIRKqCXqilhVjjRF2RFcbYxQE/oxLxXUbeUgC/XEsrSN6dDcHlxSDWw1CQU11DQSv9oej9TMKI2Hnp7yOHtq90g6iqkTcilMRKfHgIYB5Z2uYpARgf1OHIfBCfLO18s0ou4hlk9ZAMu17bJrphCYu41oZK0SN7pLVoqKKh1WvPuis8oEZLbBZnuoPr8X/g/k/f8S3U60hAA9poQSyi8swaY0E077fhJlOVvVFqMLcRDzs4omdV1OQdG4N+mXths+WK2hqrh4sLNsCD2MQ+UCTorRpULftLUeIzj26w5xLQkyDOMDXVKNG8Cr6O1qDWtQn7X0XKjqjEoUE0tT9PxxOQy5T7ZUmWpFntOWA1BLN59Frh1faiVCVeAvNw45vnQ31EKjRZ+DaiirwVr3Qp3mAtEgbiszRBuO8PSFOOohvfE+gZNQM2At15XFei4YTYK4137TUrmeHsKM1OtADnD0dhQotOv+joKZOQxVvhV59uqDLMxmHJ9GRZlpecwjRsasNjAsC8XNDYICXBML/WBo6PlXfdGnkVVhrvHYqqMV9aDna7f0jEFhj/PYI3E+NRHDwDaSmR2HnJJtnakhNTUX9J+o6BO1c4XfyXxjXtho1dbvajsdi776QntqBA6mK1fl8/mWEZA/D4g9HwJDLRsA2f9yuAIzs3saaL6bBzsQQRuo+fPAceCLwypjgOQ5y4htNlgQCged5xad2IyMY4jHycotRFBWOeL2xmDezGzL8PTB6li9+DDiFw34L8VmEKexFiuMhr200kZpi7LyZ6JbhD4/Rs+D7YwBOHfbDws8iYGqvh+yAbfBXGI6313yBaXYmMDR4jPvpBSjLSsWDsipkh57DjTwOFSV5iItKrD9zAxw4TpHY60KdU2xQ9lObDXUBK4LjgkUYITmOUzQB49srN/Mlum0hQF6rRdlCK9h0MkBO5K+4XVCIuxd249B1CeRF2XjwqBRVPAdOTuAbTfJEyv40u+naFm/Nm44u+UfwwbtL8e+AX3Bs+0fwDBBhqEM7jF/sjb7SU9hxIFXxbRB8Pi6HZGPY4g8xwlDhf63XEhjByBB4nJeL4qIohMdXqPFpW93XUeOTBgToMGE2xr+Sjv3L1uB8Vg1QnYnbiYXgpDnIzC+B3th5mNktA/4eozHL90cEnDoMv4WfIcLUXs2dy6b+5kvuI72gDFmpD1BWlY3QczeQx1WgJC8OUfGpLY8VAHxRJjKUb9fyuWdxNr4PvD90VSxjUoklU202V8Tgq/mrcb37Khzc4gZLQPEY/Mxl5N1PR0FZFlIflKEqOxTnbuSBqyhBXlwU4lMDsM3/NipgBLu31+CLaXYwMTRSua8ggNX/vYvRxlH4ataH2H0pGrd+O4SDv+U1fOjSoUGhNtubXEu3htqOXwzvvlKc2nEAinTFI/9yCLKHLcaHIwzBZbekT9DSTggrm04wyInEr7cLUHj3AnYfug6JvAjZDx6htArgeF5Z8NRBitxWn24V/8/zdSPEg+NJWRwq/+bkIL7RnWFFJ8E3JM9G/ufU5zIjvZbFVEvyTD1acoB9mebz3CzAhNnj8Ur6fixbcx6KsLuNxEIO0pxM5EvzNR/bzAYlfBEyGwIEZ8/Go4/3h3BV3gUlyNE4NerSRh0ixwVYNEKC46cIE+qTsfY8rjn+HGCtI9/ot8SuZnmeh+TyRnj8YzOCm/4CVwO8HDVyAjhO5QZINVL2b8TlGjFEGnXeHJ7jQY103XqdAwCPoswM5ZcG8Mg9exbxfbzxoatRy/zTbBwEMFIIHLnFRYgKu4G7WnT07GuOBtq+NQ/Tu+TjyAfvYum/A/DLse34yDMAoqEOaKerb0+Z17RdW2iqqw+qc2wLUF1k/Fwjz6Lrx/9Fs183JdsJ62n/5VTlyx11cFQYuIxmbWn0gkNtBp1dO5GcHEfTDK9/0vzZ3vRNaIFiMXb1dVoztDsNeNOTPt3gS6sWLSK/q/nNF2qXJdO59W9RZ6GI7CZvoQsxMXRqjRtZCfVJPGM7XUxKpWsHFtNQCwGZOC6kfeE5RPI0OvgPMVm2F9Pk7ZFUSkRUnkxHfVzJwdKQDMy70rBFhyixnCPJ7RO0+k1rEgptyH3tCYp5VGdBOSUf9SFXB0syNDCnrsMW0aFExcsp19cMpe4D3iTPTzeQ76pFtMjvKuVzHOWcXkyDOpmRZfeRtHB3MP3kaUsW9uNp2w3l2xf1VFLK+XXk3klIQtvJtOVMIlWmnKd17p1IKLSlyVvOUOJjbTY0Rkq/LBhPvncar97XYsv1B3T7xGp601pIQht3Wnsihuq7rMLj8M00tqs5mds40rRtwXRxpRP1GDWXNhwNprD/rCE3KyHpi2fQ9otJlHrtAC0eakECE0dauC+ccpqds5ySj/mQq7gDmbW1IeeZ2+laYV2jWso4u5YmOjnS6Ble9M/5s8n7m1Aq4IiIZBR/Ste15JR28B8ktmxP4slf06VwTT7Vdp3mPmkOR9LoH8hziC1ZWtiR84SPacOCIdTNZSZ9fvAG5XFE5clHycfVgSwNDci86zBadChRJU4UNPO3LIdOLx5EncwsqfvIhbQ7+CfytLUg+/Hb6EZhC2OFain2i/5kYD2Epi/8iJZ98hG9P8WDPj+XqfgBBtVYSlW8FKLe5iqKWN2PjAQW5DRzBX322Wf02Wef0tK5I+m1f5yg0pzTtHhQJzKz7E4jF+6m4J88ydbCnsZvu0GF19fQ0O4D6E3PT2mD7ypatMiPrireZFRBTrm/rqcJvTpQG3M7GrMsgALXO5Nx3Yt2WjV4kx61eLxboiGi2oyztHaiEzmOnkFe/5xPs72/oVCFOKi6hX3S2u5xOG0e25XMzW3Icdo2Cr64kpx6jKK5G45SWMT/aP1bNiQU2dPUrecoITOOftk0kboKRWQ/xY/+d+cBxQSso7dthCTqNoX8AuMp7tx6equzkER2k2nLhVSSxZ+iNW5WJNQX04ztFykp9RodWDyULAQm5LhwH4X/nqji/8cachkRUUtiSkueaZbzSEsO0HEeTkrRP3jSEFtLsrBzpgkfb6AFQ7qRy8zP6eCNHO3HqlAb+wX1N7CmIdMX0kfLPqGP3p9CHp+fo0w5ESe5TSdWv0nWQiHZuK+lEzGP6mNMmzYaI/1lAY33VbzU2oD2PK5Zw7rzjUa7OImGPC+ntB/eoo6dxtOe9GZvRJM8/Tfat+FdEhvqkcByAE1ZoHjR7oMPFtD7b71O7V55j45JdOi8EWXJ52j9W51JKLKjyVsuUGzc2VbqPI2qa2Ppi/4GZD1kOi38aBl98tH7NMXjczqX2WB/68eBSJ52kP4htqT24sm0PbJEs44uX3+GNUe9yU0oTz5GPq5i6mDWlmycZ9L2a4Ut0N7T5zVd11bfB211k3b0iLStimEwGIxniRxx65zhcmYCIm5tgmOz26V/dzgkbx4C55/HIjT2S7zx3NnP+Lsjj1sHZ5czmBBxC5uevwB5OZHHYZ2zC85MiMCtTY7NnwIxnhue5aoFBoPBaDHNl38wGIx6WIA8hzCnPe+wopjBYPyJyFFc/BhciQRSdb9a9LdHjkePSiAvk+FxqxaqMRgtQ15cjMdcCSTPZ4C8nMiLUfyYQ4lE2vyXThnPFcINGzZsUN3IYDAYz55qpF0+jF8LX8XA19ugOIvQuZ89LNW9UP+3hEPO9WMIemiFAb3NIM3Ww6sD7GDBbi0wnhHVaZdx+NdCvDrwdbQpzgJ17gf75ydAXk6q03D58K8ofHUgXm9TjCzqjH72lvXf1cx4vmBrihkMBoPBYDAYLz3sHgeDwWAwGAwG46XnxSyKq3KQcLfgb7/kvTwzFneyG/2Miyp8KdIT0iB7ko609tjWtm9CFXIS7qLgiY5tOXxpOhLSZPV+1Th+fAkyYsJxIzG/0S/DvciUIzP2DtQNBeM5pDwTsXeyW6Fd5v8/Dx4lGTEIv5GI/KcY7/LMeKQUPaOE+bTzXXkm4lOKnvx4BuMF4sUqinkZYo9+AjcHB4zeHP73XvDOZ2DvHBcM9TqM/GbZiEP2b9vhOagbXvfYi5RWvdDT2mNb274xPGSxR/GJmwMcRm9G+B814Fw2ftvuiUHdXofH3hTFF3FrGD/uQQA+9d6KczfO4HN3Mfq+fwQaf4zsBYHP2Is5LkPhdTifTWzPPTwy9s6By1AvHG6eGNTC/P90cPe+x+SeAzHn8H3tX/LPPUDAp97Yeu4GznzuDnHf93GklcmFL4zEfp9RcOg5DtsinzJhPu18xxcicr8PRjn0xLhtka0//g+CL/gZH40ejpGu4/DW22/D3XUkho8Yg3Fvv4233V0xcvgIjH+S/jIYLUH1i4ufe7gs+m6MIVnO/C9Vqu77S+GoMOYmpTX6LvKyjNsUl6XJymoK/0RMhq+tpBvVqvt00dpjW9u+MRxlfTeGDC1n0n//n73zDoviWv/4l92lF1EjEYmCimuwgnAVu4KGn7HHKF6NESMqNwmWqFExKrYQ9RoTE6+iETW2hHu9XivYIiDSREGaYBAp0ll2kSLL7sz7+2OpyzbUFM18nofn0Zk557znbefszDkz6rryMpBG0mdCQ3p7dTQ1iNhKf0wR/Ti9C717UEREDJVd30If+ATRg9bvf//tYEoo/k6m4kMUvxtVlH0vkdS6EserRVU23UvMbUP+aoP9/xD//DPD0ONv3qF+C/5DTzS+25+hoh+nU5d3D5KIiJiy67TlAx8Keo7kIs/cScMN36QF53UxmBZedLyTZ9LO4Yb05oLzz1f+N0CeGkB/X/gzZdUSEUnp1gohCcxn0k/VREQyKo7YRO8uClbxARyOF4LLDURE9HrdKYbiO+7mpqo+5PgHUx2LbzcexcNmtyJMbZ0wsGv9dztbwYelpYXKT1Jqp61l23p9c3iwMDd9zrJtgG8JS4uWrbTSX10MrkdWw9TCCAAPHd034Pj+BXj7d9wGXB37LTYefaj5jtNLxxS2TgOh1pU4Xi1MbeE0sKvik9c6obv9/xj//DNTgTT+DJz4fgZsNI6GdYi5HolqUwsYAeB1dMeG4/ux4DmSC9/cHC9tiHrR8Y5v/mLlfwsETpi/6j10b/o6dTMEsBq5Cp9NfUP5BMcLwuUGBRrTwKsJD3oqYlwueojYmzcQdicLEm1PvOpKkB4dhrDYTIhbXCuH6GEsbt4Iw50sidI316uRm5wBEQvUFaciKioNJfXexZbGYO/8D7A7LhuJV0NxM6V+/VZtPpLSlB55ysuRGReOiIQ8PGt+XHFSQ/vayqpA2/U1BUi+HYaIuzmo1PBclqdC4Zr0zUoeITb8FhJzKyAqKER1y9MtkJdnIi48Agl5KiRspj9pbhyuXI3BowoGZWnXEXIlCpmVDRfWoCD5NsIi7iKnRUdqkJucjlKmFgX345Be3iRoTUEybodF4G5OZQv7VOcmI0NhZKRGRSGtwchgURqzF/M/2I247ERcDb2JlMY1g+raZyF5FIvwW4nIrRChoFCNJthKPE7NQiXLQJwZg4jYzFY6rc1PQpry43ZV9qt4iNtXQhAS0vIvNDKjfj25Bh9jJXgUG45bibmoEBVAnbgKqpGfFImI6AcokdahOCsblWwhEq+FIiQkFLfSJWDBoODuFYSEhOBKzGPUtCivTmdKVOciOUMEFnUoTo1CVFpJ66TOiJEVfwsRMekoUX7mqnOflG1VicLEawgNCUHorXRIWIApuIsrISEIuRKDx42dqUFekmK9PSPJQnxUAnIb2qgrRlpUJO4XKC9OrUV+UlqzZUHqc0tjCSX7t44x9f5Zk5uM9FIGtQX3EZderrC5XISHsTdxI+wOspSdrR5WlIqw0HofuhKL7BoAqEF27BWEhIQiLFWkXKQe9bZVH1/qqc5PQmRENB6USFFXnIXsSlZH2wCAIRxH94U4vrUsjUhzEXflKmIeVYApS8P1kCuIakouanMFANSVpCM6LAyxmeKmWNLTa7qJUFeElNsq+qmD/hWoHu8ABuKseNyKiEF6K6dvjl6z8nUoSrmtIoY05ARoGi+h0dbq4As94PG2pm/CmcF94liYNPxXVZ6DjrmhthApt8MRmZiDilbiaem3Mi8ihzLKOm1L7myzHOpzg6ZxXBUvFouaYwnQva7nySMNvIaTYmUYZJ2YD9cZ3+J+WRGiAjwgHLEZ0UrGUMCiNGw7PvT6J67nlCDpuykQuvjiXCELMFk4Md8VM769j7KiKAR4CDFiczRqwKI07hiWj7WHcEIATh9eDI+JczBvoiP6TwtEJsNCUiCCcXszsKwU1RIJKqrKkHD6c7xj3xOjNkc0bqipST6IeR7eOJyYj8wLfvANfNgUiGrb16GsCjRfz6IwdCsWrQxEeNId/LxyBISj1uO6qLWbtkazvuuS9sLL9xTy5LVIC5oL1/d/QLZKf61B8sF58PA+jMT8TFzw80Xgw3oJWXEr/VFdNSok1ZCBIKuugETyFLUMC7YwFFsXrURgeBLu/LwSI4SjsP56KYpigrBsrD2E4/1xYMf7GDFsKAYvOA4RW4jQrYuwMjAcSXd+xsoRQoxafx2lxXE4tnws7IUTEHD6MBZ7TMSceRPh2H8aAjMZgJWgQGSM9mYsWGk1JJIK1Mihpn1FYkra6wXfU3mQ16YhaK4r3v8hWylZMsiL+A7eg23RZ853OLn5HQwaMh7jhjpA6LYFtysAVpyA05+/A/ueo7A5osGT1Nuv7sExbA+MRX65BBKJBGXxB7Boygysu1gCPmnwsbok7PXyxak8OWrTgjDX9X38oNpwqEk9Cp+J87DjSirSI77GbKfu6DP9INLZDuj2VjF+XDwViw6nQQ4+OnS1QsbeuZjyWTAKGsyrVmfNYEsRd2w5xtoLMSHgNA4v9sDEOfMw0bE/pgVmNvqyJOYbeHmuRXByLjLOr8TIPh7YcrP+R6nOfVJlq1xYdHsLxT8uxtRFh5EmB/gdusIqYy/mTvkMwQUylMefwMpxQvQa7Y/gM5swd7YXPpoxFA6uKxEafxwfT5qOBUtmwtVhJDZF1wBgIU44jc/fsUfPUZsRUastt6i2v8oYq2vtn1VFMQhaNhb2wvHwP7AD748YhqGDF+DY3ROY7zoD394vQ1FUADyEI7BZRcLkGZuh+toGzJo0B/uzrdDJCACM0JF/G9v8LqLa0ky5iFrbyku1xJcqalJx1Gci5u24gtT0CHw92wnd+0zHwXQWHTTaRlGfOllaZTmqQ3WFBNUygGTVqJBI8LSWAasmV4hYhX+Gbf8QXv+8jpySJHw3RQgX33MobFZ53eOfsGLWXPgsngqn/tNx6JFCLiZLN/2rRRKDb7w8sTY4GbkZ57FyZB94bLkJjfv66h7jpxWzMNdnMaY69cf0Q48UMaRx3NEwXrZFv8+NmjxXWqxTbqiI3olpkzchRmaIikufwNXhbxj7zkTM2HYTNRr7rcyLydESNTotttQhdz6nHCrHLs3jeCteMBahKZYa4Wmti32ePKKM8nqKV5+ndGSyUdMaK/kD+nKICTlvTiYZEcni1lE/I0famCBTLkhM4SnytPegfTmKxWWylF00ukMXmn+2iuQPvqQhJs60OVlGRDKKW9ePjBw3kqIaOT3aNZwMLFxo2bkskhKR5D9zycpwBO16JCcihgq+dycjG2+6XNvYGO1zNySLWT8r1kZVR9LqAT1owTlx/QVVdHGhDenXr/PV2L6Wsq3Qcj1TfJrmjl1LMfVlmZw9NNpAn5w2JlBrrRE9PTKZjBrWFGvUt5SiVvUjxzUxCtswRXRy23eUqqLS6sjVNKDHAmoS8SIttNFvWlOsrD8iouofaaqRJXkG1x9hiun03LG0tqkjtGe0Aek7baQEGUM5e8aQgXF/Wna1hMSp1yn0fikVnp5LY9fG1K9bZihnz2gy0HeijQkykj/aRcMNLMhl2TnKUhiZ5loZ0ohdjxTrsJgC+t7diGy8L1Ottvaro2hVP0daE6NYyccUnaRt36Wq0K+Uolb1Jn1rN9oU+oRkVE1ph6aTDd+AnP3vk4yImMJ95G5oQbN+VvRbk/2epVyki+n1rVRG0RfOZmQ58itKqNXsY9KoVdTPcQ0pxGWo6OQ2+k6V4Sp/oeX9nGj17QarSClq1dtk2G8dxcmISJ5G2wYbUe9Vt+t1LKXbq3qT8dCv6Fe5Fp0pNyd/RLuGG5CFyzI6pzAI/WeuFRmO2EWP5EQkvkxLhA60PLxhtWQ1Ra50IAPr2fRTEaN7n6TqbCWntG2Dyaj3KrpdL6709irqbTyUvlJ0hgq+dydDE1daF15IciKS3ttAjvrtaOiaq/RERkSyBNrgaEg9fG8qfIYYKtznToYWs0hhTm25Rdn+GmJM2T/rfWOMgTH1X3aVSsSpdD30HkVvG0ImzptJ4QZxtK6fETmqiX2qDqflQkNyWB3VKH/RsXk0+0AutVqiq8W2WuOrBZX0y/J+5LT6dmP8S6NW0duG/WidwtE020aLLK2pph+nGpGlZ8NaVoaK1eYKKRWe8iR7j32kGEpklLJrNHXoMp/OVhFRyQHyMDKnoevDqYQhosr/0XxrIxr9dTYxJKcHX7ZB/8rjHYnp8hIhOSwPb1wjXB25khwMrGn2T0WtbUIldMDDiMyHrqdwhTD0v/nWZDT6a8pmNOcETeNl2/WrDuU1xU1oynMybblBlkxb/2ZGLltTFb4lu0dfDDCknkvDSEqa+63MC8mhhEadasmdLySHcm7QOI4r84KxqDGWlNvTVldb80hrXv87xXwhfI5F4KSvHfLCgrDjSAzErBTPalv/XhWHnEaooRNcOivUIui7CmGifBydZgq+0AfHIk7C1y4PYUE7cCRGDFb6DIpq+DAzMwXf3BEeHt1hAMBU2AtdeRWQlKv5NgrPHOZmTc+9qkL342hWf4wZa1l/xAjd7awbv4qjqX1tZZXRdn1N2FmE5j/Exd0BCAgIwI6Tz+DhvwUfOhs3q0UNGvUtgI3QFjlfT8Go+V/iTKo+PNd/ij6tnpRVIXT/UWT1H4MmEbvDzrpZj5T0p5KaMJwNzcfDi7sREBCAgB0n8czDH1s+dIYxeDA2NgDPwgXuIzvBso87PAYYIeJsKPIfXsTugAAEBOzAyWce8N/yIZyNAb6ZGUz55nD08EB3hZHRqysPFZJyqLSypvYFNhDa5uDrKaMw/8szSNX3xPpP+6CVKsCDsbER+J2GYaq7DQQwgYPXZixyJCSHh6OYBXjm5miuCk32E/SdiIm9BQArQuiaBfjnk7HYeWQVHA01+5jARgjbnK8xZdR8fHkmFfqe6/Fpa8Oh4tIBnKgcgnecGx5u8tGunZnuj6Q06Uz5Wr4ZzEz5MHf0gIfCIBD26gpehQTlBJRfOISf8uwx0Klhsa0JhnhOg7DsIk6FSHTuE3S2lTI8mJmaQM+gOwa5dAYfgIHQHrYCoOug4bARABDYwbaLHirE4nof4sHc3KzZGn3tuaWl/XWNMQU8Y2MY8Czg4j4SnSz7wN3DCYM/PoaIk76wywtD0I4jiBGzkD6rVX2Hz2Q4fD8dgfxjX+NMMQswOQi+pI/pM7u2trkW27Ypviou4cCJSgx5x7nxMTq/XTuYtWpUDVpk0U4NwtTmCjFCTofC0MkFiqFEgL6rwiDKP4pppg3lTfD2kMHoxANg1A3drACJWAwWfAh92qB/Zcov4NBPebAf6NS4Jt1kiCemCctw8VQIJEqXN2Dy9hAMVgiDbgphIGY15wRN4+WL61c7mvKcttwAeTay8uqalv4JuqN7V6AgOxvPtIy3yryQHEpo1KkWXqYcmsdxJV40FjXGkvK12mlTHlGBzmK/uvAgeJaIvYt8EFQwEB/5uMGap0o1DEQlZaiVlEOs6jRPgGeJe7HIJwgFAz+Cj5s1mlejp7SwS4/Phx4IrKq6gPq1XA1lGOSl/woJ+BCos4ja9nUo2wJt17OoLBXhmaEDpq1eh3XrGv7WYvmU3jpNBNTrm4duC4/j2gFPmIdvx6xBvTFs2VnkKj/VYPKQ/qsE4As0OGhz/amGrSyF6JkhHKatbtaPdVi7fAp6CwAobw9kK1EqegZDh2lY3ez6dWuXY0pvQcu1gACgxwdfDyA1RtbYvkE3LDx+DQc8zRG+fRYG9R6GZWdz1TxSU0LQE317mQIyKaRUv0axUTBd7MciP9gXiw9LMWtfIBb2rP+xodbHAF63hTh+7QA8zcOxfdYg9B62DGdbGw4Fj7JRJTCAvmbTqEWjzlo5X/N+K/7PVxgEBAbFuU9Qw9ahrtmSXYGdLWx4dZCInwI69QkA7/lt1cpH9XjQa5Ga9cDjAc2/K6qn5GfKdbTKLS3sr2OMNUPZVDzBMyTuXQSfoAIM/MgHbtY8DYMJHz0+XIGZRpfw9YFk1KaewM03Z2NSB+XrdLBtG+KLKXiE7CoBDJ7T0bTKog1NucK+AiVltZCUN/zQ0QYfPD7AyGVAm/XfEqY4F09qWNS1dHrY2vBQJxHjqYo5jTJ8hTCQQVNO0DxevrB+taItz2nKDQAMhmDSO28i48YVxSs7pQ+QntMe7pNHwwya+q3MC8rRAs061czLlANaxvGWvGgsaoyl53GWNuQRVaifc7wuVF3Giql+EM38HlvnOMOqQcet9MPHm91sYFwcgp+vlDceZUUhCDyZgYrLKzDVT4SZ32/FHGerxslhq2qeCz10eKMDBLUpuJsobXmKWLAAqtS2r71sS7Rdz4NFF2uYpAfj8A1x0zkmCyGXkrRvENCobwZ5KU/Q1WsvbqSn4oLfAOTu98X260py6HXAGx0EqE25i9Yitu6ROngWXWBtko7gwzfQ1BMGWSGXkKSqIzwLdLE2QXrwYbTsegguqSygGY3tS/OQ8qQrvPbeQHrqBfgNyMV+3+1QVkUjRM1sKUNNLQsrh37o0upxgHb7yTMCsWjp/2Dxjx/wzQxr8MBCXCKCRK2PAUxeCp509cLeG+lIveCHAbn74bv9OlqKqwfL9u2AJ/GIUfv+Vj4EfBUJigiMNp21yQR8dOnVExZMKuLvNi2EY+ukqOO9hYFO1iCd+qT4kabOVnxFZ5TyAIHUdf83R8cYU0sVLq+YCj/RTHy/dQ6c1SfMJtp5YPmSAXhw6Cts2XcPfT9otgmqGS/PtoCeZXu0wxPExzxW++NEk21eWBZNuSK1I7rZGKM45Gc0DSUsRCGBOJmhTtoGnkP/zeB36YWeFgxS4+82rX9l6yCt4+GtgU6wbuOIr37c0Txe0ovqVyva85xGeJ0wbc9+eBnewDdb92D3l2dh/HkIjnvbga+x38q8oBwt0KxTRmPufJlyaBvHW/KisagxllQ4i8a6XgJtDJFXAQYMo5g8sQDYikfIKq5CbsZjVNXmIfxCNAqZGlQUJiI2papFyXYTFmBW1yIcX/Ielv8rGP89uRufeAVDMKwHqh5lobgqFxmPq1CbF44L0YVgaipQmBiLlCoWDCMHsc3u3hApJpksC4AHIyND4GkhCspLERuZhBqwYFiqn+Tx0GnyPEx6IwuHV/jhYm4dIM3BvZQSMOJ85BSJUaS2/TsodtNUtkJpc4C2tiqgN34B5nTPRqDnGMzd8gOCzxxDgPcaRJn2UHmnmFEoHCyrTd8VyAveicB7NYCRHd7124CZdiYwNFL6hcnrhMnzJuGNrMNY4XcRChHvIaWEgTg/B0UVik1JTfqrp64OMqpDnbT+mOl4LJjTHdmBnhgzdwt+CD6DYwHeWBNlih4CKCJcLmuWMEwxfsEcdM8OhOeYudjyQzDOHAuA95oomPYQgGUYyIltlpQIBAJb72vgGUFh5gKUl8Yi8tFw9e3r5SF4ZyAUqngXfhtmws7EEMqqaIAtzUF2vbuyBedxPqkffD52UzwiZRmwRGhQhakm+9XE46uP1uF2z7U4st0d7QEAYoScu4ZCtT4Wi6SMYOwMvIcaGMHuXT9smGkHE0MjpbuMPFj933sYYxyLr+Z+jP1X4nD3l6M48kthU7LkW8GmswHyY67iXnEJHlzaj6O3RZCX5uFxWSVqtdqsGSwDRk5gmyVIRdgpfLHdpKXw6S/GmT1ByKgDABZF18KQN3wpPh5pCCZPlz4pJsWqbcWHlU1nGOTH4Oq9YpQ8uIT9R29DJC9F3uMyVNYCDMsq/Tglhd80ZnTFv1m2KaOzDAtqLKMttyjbn1EfY8r+maTIDAQ5ZA1BwFbgUVYxqnIz8LiqFnnhFxBdyKCmohCJsSn1FykjQJ9FyzFJ9m98kzoUHzgrG6oeLbbVGl/N4Fn9H94bY4zYr+bi4/1XEHf3Fxw98gsKmxxNs234mmVpTR3qZIS6Omm9LJpyRUdMWDALXYuOY8l7y/Gv4P/i5O5P4BUswDB7fn1/Wj9FZFkWbJv133K8Q7tJWOrTH+IzexCkcHqwRdcQljccSz8eiVZvOauPlVYTLVbhXxUackLeSHXjpT34Gm3NQnRtMzz/vg03m02CVEOQ1dWB5HVoSOsNaMxzWnIDIMbldZuQN/0bbF/rixWbd2LzPEcoVutp7rfStOEF5WiJ+jmIPfhacif/ReRQyg0R0Q80jOMtFfDCsVirKZaUg1FbXW3LIypRXmT8avOM0i9uJI/OfOLbTqPt51KImHw6u3QwdTZvTz1HedP+mz+Sl60l9Zi0k6IlyuWJqtNOkq+bkDqZtyMblzm0+1YJMUTE5J+lpYM7k3n7njTKez/d/NGLbC170KSd0ZSTdIb83K2Iry+k2bsvU2rGLQpaOowseSbk5H2IIvMZkmceob8L21NH4TTaHVNEaRc20YQufBLYTaPtlzKIiCFx3D7ycrWl9pZ25DL5U/Jf6Erdh86hL45EU36e+vYlWsoWttpdof366rQT5OtmT+0NDcii23BafDRF5cvSn6VfpI0enYnPt6Vp289RikSTvqV0228Y9XQcR16f+9OWtYtpccANKmolHxExYorb50Wutu3J0s6FJn/qTwtdu9PQOV/QkehHrfQny7pB/1o6gjryeGQ1djUF/juansiJqDqNTvi6kX17QzKw6EbDFx+llGqGRPdO07px1sTn25DH+tMUX9YgRDWlnfAlN/v2ZGhgQd2GL6ajKdVEkiQ64+dOVnx9Es7eTZdTM+hW0FIaZskjEydvOhSZT0RyyjzydxK270jCabspplJd+0QkvU1+w3qS4zgv+tx/C61dvJgCbqjaCCOjhA0DycDalWZ5f0IrPvuEPpjuSV9cyFFsGqhKowubJlAXvoDspm2nSxmK7U6q7VdLUesGkBHPkpznrKI1a9bQmjWf0/L5o+jtv5+mSg0+XnLbj4b1dKRxXp+T/5a1tHhxAN1QaTg5FVzdRJMdOpGZhR2NXRFMIZtcyLhhox0RPY3cRuO7WZCFjRPN3HmTLq92pl6j55P/iTtUxmjQWQsklHTGj9yt+KQvnE27L6dSxq0gWjrMkngmTuR9KJLyGSJZ9nlaP8WZnMbMpkX/+Ijm+XxN4cUKuaW69kmTrZ5G0rbx3cjCwoacZu6km5dXk3Ov0TTf/wRFRP2PNk2wIb6gB83YcYGScxLpv1unUDe+gHpMD6D/3X9M8cEb6V0bPgm6T6eAkEwqT7tAmyZ0Ib7AjqZtv0Tx8Vpyy68pSvZ/qiHGWvpnVM49Or1uHFnz+WTjsZ5Ox5cRQwzln11KgzubU/ueo8h7/0360cuWLHtMop2qEmYjtRS+3JkmH8xX4cPNUGdbneKrJfKCq7RpsgN1MrMgu7ErKDhkE7kYN2zu0WybO2WMelmUkWXRjX8tpREdecSzGkurA/9N0YrkojpXECnOnfQlN2EnMm9nQy5zdtOtEoZIcp/+vWasop+eu+hiSjpFHF5Gwy35ZOq8hIJiCtqgfxXjHRGRLJvOr59Czk5jaPaif9BH83zo6/BiFXaR0P1/r6GxVnzSF3rSrosplB5xmJYNtyS+qTMtCYqhAo3jjvrxkkiDrUlOmfsm0JudJ9GBLA1bn6SP6ObR7fReT33S41nRmM/204VkcYt+qM5zOuQGWT6d+sCWDPVAgB7p8fTJyMKKeo32oeMPpBrHe2UrvJAcrY2iUafacufzy6E0dlVoGseVBH4ZsagxlpTQVFdWYpvziDJ6RM1Xs3FwcPy5kCNxowuGnpuMqLtb4aT8w/lPD4O0ba5w+Xk8whO+xN9eOfk5dILNxQGv7ej0bSBmKB4//O4wadvg6vIzxocn4EvO0Tg0webj/JZAVL7nBSe2DOKKKtRUiVFw/2ccK1yEkO/Gt76rzqEzr3IsvobLJzg4Xk90evTDwfE7wlSVQ1zLoipqP65Zf4CJf9CEmINDd1jkH/fF8vs98H8DeqCP42AMH+2G8RNnYKaHC/7WV/UyQY6/BtykmIPjT40c5eVPwVSIINb0Yao/LXKUlVVAXiXB09Z7JjheZeRJ2D7GGlZWnfH20nJ8uGJ4Gz5N/fKRl5WhQl4FCedoHFoQWHaG8S/LMMTtAyxbvwXbt23C50vm4R//7YHF3j3Vvs6UQzde5Vjk+/v7+ysf5ODg+DMgRea1Y7ha8hYG9TVDeS6hy4AeaP/KZGwG+bdPIvSJFRz7mEOcp4e3HO1gyf0Ufz3gdYSdbUd07DMD6/+5Bm5v/nGGZfJv42ToE1g59oG5OA96bznCjnM0DpXoweztifD+0A22gmd4WlUHPQtbDP37cqz8uws6cm7zQrzqscitKebg4ODg4ODg4PjL8+pM3zk4ODg4ODg4ODh+I7hJMQcHBwcHBwcHx18eblIMAKhGTsJ95DX7MibHc8BWIis5ExLuNQkaYSuzkJwp+VO/TaI6JwH32xIQ1TlIuJ+HNpT4y9BmXb5O1OYj+UHxy/P119TPlHPCK+szymOAWnuxqMiOR2R0Copan3yFeTn9qs5JQnrpS4ual0ptfjIeFOsom87+8OeBmxQDYLMP4sOhw7DoWNHLS95/KRjk/bIbXoO7o6/nQaS/ehtOfx+YPPyy2wuDu/eF58H0tn968/eCzcbBD4di2KJjKNIpIFhkH/wQQ4ctwjHdCvx1aLMuXxNYCRJOfAZ3e3uM2RaJl/PilFfNz6S4tX4Yeo9ahdASNfKqygmvpM+oGgPU2It5jODPfbDjQjTOfeEBYf8PcFztZ+FfIV5Cv9iSGBz2HQ373u9gZ8zLiRptMNkROP71p5g6agRGvvt3LPHxgY+PD3x8FmH+e+9g7Af7kSYHWEkCTnzmDnv7MdgWqU22NvjD81CXhQtffYYVW47jTikLMPlISChQ+5npNqH8NY+/JlWUfS+Rcp8pH+fQHSlFfiYkw7dXU7RU+RxHI9JI+kxoSG+vjqY/s5qqsu9RYlsCoiqb7iXmki4lmJJ4upOp4UtWrxlt1uXrApNL3441pPZz/qOTX+hEG/zsD0d6m1a5DKX1ESo+AdYcFTnh1fQZFWNAK3sxVPTjdOry7kESERFTdp22fOBDQQ9+x3zAlFD8nUzFF0FfGi+vX/LMnTTc8E1acP53tH/tTfq0O58MJx+hpy2Op9E3C9dTmOJDqcTkfktjDdvTnP/oIpsu/vA8MFQSvJmWb11D7/VpR4bWrjR7wRxaf06sfOFzwd0pBgCYwtZpILr+kS/ZfOXhw9LSAnrKhzlawreEpcWfX0umtk4Y2JaAMLWF08CuOrynthqx327E0Yd/2vvkL5026/J1gWcBc9OX7Os6+9kfD5Obg7c+P4XNI9spn2qJipzwavqMijGglb3qEHM9EtWmFjACwOvojg3H92PB27/feyarY7/FxqMPX/KTupfXL765OV522GiFb4Z2Ziqmg4a9Me/T6Xir/msmPIu2yKaLPzwnTnPwhd9XOHMvCdd2zMHISWuwcpKl8lXPhQotvPrU5CUp1rwwEmTFRyEht7r+TB2K06IQeb+g1ZqW2vwkpDW7pc9KHiE2/BYScysgKihEQw2oyUPSg2KwYCDJikdUQm7jubriNERF3keBcuVgIM6Kx62IGKSXaHrswKLycSqyKlkw4kzERMQiU9LygUBNbjLSSxnUFtxHXHp50+MCRoys+FuIiElHYxNsOR5EhCIkJAQhIaGIzKgAC6Ay8zauhIQgNDKjaa1PTQGSb4ch4m4OKpWfbGg6Jy9HZlw4IhLy8EzpFKBGrgZqcpGcXgqmtgD349JRruLZR3VuMjJELFBXjNSoKKSVtE5ljDgL8bciEJNe0uoxrVo7NoetxOPULFSyDMSZMYiIzYRC7SwKE68hNCQEobfSIWEBpuAuroSEIORKDB7XtKympiAZt8MicDenstUyHHl5JuLCI5CQp1JLGss2wkrwKDYctxJzUSEqQGG1jvI9j8/W5iMprdlyoupcJGeIwKIOxalRiEorURpUapGflNbicW8r3bOliNk7Hx/sjkN24lWE3kyBYtlcDXKT01HK1KLgfhzSGxxBLsLD2Ju4EXYHWbrGgc42q0ZucgYUrpWKqKg0KLuWXPQQsTdvIOxOVr0/qEJ7zLbSJdTFVAUe3r5SH6/N/kIjkVEfqLrJVE9dCdKjwxAWmwmx8rWa4lKrrVuj2n950NMygLY9Vyv7GQvJo1iE30pEboUIBYVNEd72urXopRV1KEmPRlhYLDJbKRhAxyEY3jkXd1TkJWjLCap8prYQKbfDEZmYgwpVSaJNstegIPk2wiLuIqdFUtceF63QOAY0s5c0F3FXriLmUQWYsjRcD7mCqMzKxitV+5CGWFcZQ5r8l0VpzF7M/2A34rITcTX0JlKardtV136rPNbsHPD8/QKAupJ0RIeFITZT3NQvPb2miWRdEVJuqxj3NOTG1uNEy9NtoSY5CcX9nNGzYW7PayabOnT1h3o06Ve17njoZG2Agl9FYA07QzjIGY5vd4a58my2TfHQhHI1rzRseTxOrBwHYa/R8A8+g01zZ8ProxkY6uCKlaHxOP7xJExfsAQzXR0wclM0agCw4gSc/vwd2Pcchc0RihRZl7QXXr6nkCevRVrQXLi+/wOy68oRf2Ilxgl7YbR/MM5smovZXh9hxlAHuK4MRfzxjzFp+gIsmekKh5GbEN0w+Epi8I2XJ9YGJyM34zxWjuwDjy036ycDTTB5EfjOezBs+8zBdyc3451BQzB+3FA4CN2w5XYF2JIYBC0bC3vhePgf2IH3RwzD0MELcFwESGK+gZfnWgQn5yLj/EqM7OOBLTdLwfJM0dEwHf9aOBlTt9+DZRdT8ACYvGmGuD27ES/oABMei8LQrVi0MhDhSXfw88oREI5aj+siVjHBUHsOqEk+iHke3jicmI/MC37wDXzYYk2PWrnYEsQELcNYeyHG+x/AjvdHYNjQwVhwXNRYli2Nw7HlY2EvnICA04ex2GMi5sybCMf+0xCY2dCKBDHfeMFzbTCSczNwfuVI9PHYgpv1ylVpxxa5hUFexHfwHmyLPnO+w8nN72DQkPEYN9QBQrctuF3BQ4dub6H4x8WYuugw0uQAv0NXWGXsxdwpnyG4oF4OthChWxdhZWA4ku78jJUjhBi1/joUaqpB8sF58PA+jMT8TFzw80Xgw2Za0li2GXVJ2Ovli1N5ctSmBWGu6/v4IZvVLN+T0rb7LCtGwunP8Y59T4zaHIFathRxx5ZjrL0QEwJO4/BiD0ycMw8THftjWmAmGLAQJ5zG5+/Yo+eozagPIZW6zyorgMi4PcxYFtJqCSQVVSiKCcKysfYQjvfHgR3vY8SwoRi84DhKsk5gvusMfHu/DEVRAfAQjsDm6BqNcaBAm81kKI07huVj7SGcEIDThxfDY+IczJvoiP7TAqFwLQZZJ+bDdca3uF9WhKgADwhHbG6K6Xq0xWwrXQKaY6ruAY5tD0RsfjkkEgkkZfE4sGgKZqy7iBI+6SSTAhalYdvxodc/cT2nBEnfTYHQxRfnChVOpT4utdlaBbr6rxJtz9Wq/KwOSXu94HsqD/LaNATNdcX7P2Sjrs11K1Crl5aiAwDY0jBs/9AL/7yeg5Kk7zBF6ALfc4X112rOSxpzgkqfASqid2La5E2IkRmi4tIncHX4G8a+MxEztt1ETVtlLwzF1kUrERiehDs/r8QI4Sisv16KYq1x0Rr1Y4AKe1EdqiskqJYBJKtGhUSCp7UMWDU+VFqkLtbVxFBpsWb/ZSUoEBmjvRkLVloNiaQCNXLNPqwqj7UcQ9reL8XQWoqw7R/C65/XkVOShO+mCOHiew71IQoAqHv8E1bMmgufxVPh1H86Dj1SaJZRkxsVhVSNE8oC64a84gFOf3sCD9owoWyTP6gZJ7I12USuW45qSzy0Qnk9xasOU/A9uRuakOu6cCqUE5H0Hm1w1Kd2Q9fQ1ScyIpJRwgZHMuzhSzcb1skU7iN3Qwua9XM1EUkpalU/clwTo1j3whTRyW3fUaqMiJgC+t7dkExc11G4onK6t8GR9NsNpTVXn5CMiGQJG8jRsAf53qwlIjFdXiIkh+XhjWtoqiNXkoOBNc3+qYiYZnITEUmjVlFvfWty2xRKT2RE1WmHaLoNnwyc/em+jIjJ2UNjDIyp/7KrVCJOpeuh90kkukxLhA60PLyxBYpc6UAG1rPppyKGiGSUvPVvZGyzgM7VL21jCo7QJ6tDqJKImOLTNHfsWoqpX/PD5Oyh0Qb65LQxgaQazsmqI2n1gB60oHEdTxVdXGhD+g3rh8Ra5GJyaM8YAzLuv4yulogp9Xoo3Re11Ij80S4abmBBLsvOUZaUiCT/oblWhjRi1yOSE5H48hISOiynpiYiaaWDAVnP/omKGA12bIGUolb1Jn1rN9oU+oRkVE1ph6aTDd+AnP3vk4zklLZtMBn1XkW36/Ugvb2KehsPpa9+lRMRQ8Wn59LYtTH16wEZytkzmgz0nWhjgoyqI1fTgB4LqElNF2mhjX79+kHNZZsjjVpF/RzXUIyiM1R0cht9lyoj0iZfm32WiJhC2uduSBazfqZqIiL5I9o13IAsXJbROYUh6D9zrchwxC56JFfIU7jPnQwtZtHP1aQxhpiC78ndyIa8L9e3RQzl7BlDBsb9adnVEhKnXqfQ+yWU+uUQMnHeTMkyIpLF0bp+RuS4MYFk9X7YKg5auI4WnZCcHu0aTgYWLrTsXBYpXGsuWRmOoF2P5ETyB/TlEBNy3pys0E/cOupn5NjKJqRDzCrrUlO8yWQpdPFiOilaqaSoL5zJzHIkfZVQ2yaZmMJT5GnvQftyFEqRpeyi0R260PyzVdrjUqutm6PNf5/SkclGatcUtz1XK/mZNIpW9XOkNYqgIKboJG37LlXhI22tW5temsMU0ilPe/LYl6PI4bIU2jW6A3WZf5aqtOYl0pITWvsMyZJp69/MyGVrqmIdrOwefTHAkHouDVNc3ybZi+n03LG0tskBac9oA9J32kgJMi1xoYy2MUDZXopC9ONUI7L0DFb0TYsPqYr10kINMaTNf5kC+t7diGy8L5MiA2lqv1ptHmtNW/olpcJTnmTvsY8UISqjlF2jqUOX+XS2iohKDpCHkTkNXR9OJQwRVf6P5lsb0eivs4khOT3QkBvVjxNakN2h9f31SdB9HC1csoSWLFlC3nPcqJfNHPp3o+2I6OkRmmykZk1xm/1B3TihSXcy7TmqLfGggtfqTjEA8MxMYaJngO6DXNCZD8BACHtbAdB1EIbbCAAIYGfbBXoVYojrv+XHMzeHWeMzAQFshLbI+XoKRs3/EmdS9eG5/lP0EQDgmcHURA8G3QfBRVE5hPa2EKArBg23gQCAwM4WXfQqIBYTUH4Bh37Kg/1Ap8Y1NCZDPDFNWIaLp0IgaWiyHp6xMYz4nTBsqjtsBICJgxc2L3IEJYcjvJgFz9gYBjwLuLiPRCfLPnD3GABcOoSf8uwx0KmxBQzxnAZh2UWcCpEAEKDPQh+MqzmLwOB8sGDw8HQs3pzlBjMANWFnEZr/EBd3ByAgIAA7Tj6Dh/8WfOhsrPFcVeh+HM3qjzFjG9bxGKG7nXXjN+PLL2iRi2cMYwMeLFzcMbKTJfq4e2BAh5buyDczgynfHI4eHuhuAMBUiF5deaiQlINQjguHfkKe/UA0NTEEntOEKLt4CiESDXZsAQ/GxkbgdxqGqe42EMAEDl6bsciRkBweDu1vnqlB2NlQ5D+8iN0BAQgI2IGTzzzgv+VDOBtXIXT/UWT1H4MmNXWHnXWDljSVbdYEAIGNELY5X2PKqPn48kwq9D3X49PWnWlNW30WAHjmMG8KCIBvBjNTPswdPeChMASEvbqCVyFBOQEAD+bmZs0eq+mqe9Tr3wA8Cxe4j+wEyz7u8BjQCW/7HEPESV/Y5YUhaMcRxIhZSJ/Vgq2PE+U4UHIdLfBhZmYKvrkjPDy6Q+FavdCVVwFJOQF8IXyOReCkrx3ywoKw40gMxKwUz2pbO4O2mFXWpaaYgqAvJk7sDQFYiELXYME/n2DsziNY5WjYJpnEIacRaugEl84KpQj6rkKYKB9Hp5lqj0uttm6O7v6rirbnaiU/E9hAaJuDr6eMwvwvzyBV3xPrP+0DRapuW91a9dIccQhOhxrCyaWz4lGroC9WhYmQf3QaTLXmJW05QUX8ybORlVcHXsNaFEF3dO8KFGRn45kuubY5NWE4G5qPhxd3IyAgAAE7TuKZhz+2fOgMY21xoYS2MaCVvVSi2YdUxbpRhIYYapP/Qkv7bcljymiqV4yQ06EwdHKBIkQF6LsqDKL8o5hm2lDeBG8PGYxOPABG3dDNCpCIxWDBh1BDbnzucaIefr+52HPgAA4cOIBDJ6/g5xUDoGvptvuDOv1q0p328ahN8aCCNg0lrwTN1+MoDoCnBzSPBz0eD2j+dWs9vWZr33jotvA4rh3whHn4dswa1BvDlp1FLgMAza9ToNe6cvBAIABMcS6e1LCoq2u2ck1gB1sbHuokYjxtPZ4pIUDPvr1gChmkUkUjLZtnUJz7BDVsHVo2YQsbXh0k4qeKSYT1LPjMMMfNwMNIqY7DT4/6Ya6TAQAWlaUiPDN0wLTV67BuXcPfWiyf0gvP1J6zR2H6r5CAD4FKD9JNLi3ZsrUt9fjg6wHEEsAUI/dJDdi6umbrAgWws7UBr04C8VNosKMWBD3Rt5cpIJOiXu3qYStRKnoGQ4dpWN2oo3VYt3Y5ptgXIv1XCcAXqA40TWV7t0xFvG4LcfzaAXiah2P7rEHoPWwZzurUmbb5bP0B6LUopFyHHvgKQzSW0WthK00xpIrWjsATPEPi3kXwCSrAwI984GbNaylys38/Dy37B+jx+dADga2ffAmeJWLvIh8EFQzERz5usOZpc4QGlGO2uS41xVvvxsGHzQ+G7+LDkM7ah8CFPesHFV1lYiAqKUOtpLzxR3/zc9rjUrutG2mD/6pEOb51yNUt/IzXDQuPX8MBT3OEb5+FQb2HYdnZXMUj1DbVrYtemmBEJSirlaC8tYK15yVxjuacACj5DACDIZj0zpvIuHEFjxkA0gdIz2kP98mjYdZG2dnKUoieGcJh2upm/rcOa5dPQW+BtrhoDoM8jWOAgpZ5QQU6+FDL8tpiqA3+C23tG7QxjzVDU732FSgpq4WkXKxaplbwweMDjFwGaMmNzz9OqEKAAR98iOE67Yp7Hn9QM07INOiut6A+PlrU2szGbYsHVWgQ/68Kg7yUJ+jqtRc30lNxwW8Acvf7Yvt1qfKFWuF36YWeFgxS4+82rlsDWwdpHQ9vDXSCtUrtE6iZ1WQ1tWCtHNCvi6pdrHx06dUTFkwq4u82LS5k66So472FgU7W9QY2wzs+XhCmHsHXW06jYvRs9OADAA8WXaxhkh6MwzfETdUyWQi5lAITteeSYfFGBwhqU3A3UUkvxILVWa4XgN8FvXpagEmNR1MTLOqkdeC9NRBO1tQ2OxI1CxYZampZWDn0Qxc+wBfwVSRVAjEAeBboYm2C9ODDaKmmEFxKtsAbHQSoTbmL1mpiNZdNarkOjMlLwZOuXth7Ix2pF/wwIHc/fLdfhxRa5PtDeNEYqsLlFVPhJ5qJ77fOgbNVwwRLtyEEL6qTqstYMdUPopnfY+scZ2hvXteY1RRvSYrNQPIMBC5aiv9Z/AM/fDMD1jyAFZdAJNFVJj7e7GYD4+IQ/HylvPEoKwpB4MlMvPky47IN/vubwOQh5UlXeO29gfTUC/AbkIv9vtuhs5s10rZ8xX+zG2yMixHy8xU0apgVISTwJDKgJS91eUNzTlAFrxOm7dkPL8Mb+GbrHuz+8iyMPw/BcW878NsoO8+iC6xN0hF8+AaaTMYgK+QS2mYyPXTQOAboSJt9SIcYagsa25c+fx7TVG9qR3SzMUZxyM9oClEWopBAnMzQlqA050ZN48TzwH/TGp3oMc6fjdVSx/P4g5px4hdD9bpT6RPNaVs8qELb+VcPhgULQvP8QgCo2d0GIgJYtmnjCMuApYYyDPKCdyLwXg1gZId3/TZgpp0JDI30ADBgWaXkpai8aWwiAoEFywBoNwlLffpDfGYPgjIUq9XZomsIyxuOpR+PhGFTLU2wpcjJrqr/dwHOn09CP5+P4Vb/a40gh6yZX7SbtBQ+/cU4sycIiiZYFF0LQ97wpfh4ZFMLAqeFWDxShFNnCJMndWw8bjp+AeZ0z0ag5xjM3fIDgs8cQ4D3GkSZ9kA7tefsYT15Hia9kYXDK/xwMbcOkObgXkoJGHE+cooqoK+LXATIm3dGCZZhICdWcWcYUEw+QGBZFizaYdJSH/QXn8GeoAzF7m62CNfC8jB86ccYaajJjq1hS3PQpPbzOJ/UDz4fu8EIfFjZdIZBfgyu3itGyYNL2H/0NkTyUuQ9LkNlrSnGL5iD7tmB8BwzF1t+CMaZYwHwXhMFU3trTJ43CW9kHcYKv4tQqOkeUkoYiPNzUFShp75sj5Z32pi8YOwMvIcaGMHuXT9smGkHE0Mj6GmVr40+CwBgwbDUVIZlwMgJbLNJJpGizqZLWFBj8lOve56REQzxFIUF5SiNjURSDRocoWlAYyvwKKsYVbkZeFxVi7zwC4guZFBTUYjE2BRF+0px0BJtOmHBMHIQ2+wOmKJDCt+qeISs4irkZjxGVW0ewi9Eo5CpQUVhImJT6p2kORpjtqUuNcWbADWI/+ojrLvdE2uPbId7e0WV4pBzuFaou0ztJizArK5FOL7kPSz/VzD+e3I3PvEKhmCYPTpoi0sdbN2EBt/vIQDAgGHqyyoXxfPl6hZ+xuQheGcgFG72Lvw2zISdiSEUqbptdeuaRwEA7SZgwayuKDq+BO8t/xeC/3sSuz/xQrBgGOz5WvKScSctOaGmlc8AYlxetwl507/B9rW+WLF5JzbPc0TDQ+o2yW46HgvmdEd2oCfGzN2CH4LP4FiAN9ZEmaKHQHNctISHTlrGgBplewEA6lAnI9TVSeuPafOh1rGuMYa0+S/PCEaGwNPCApSXxiIySVMO1lObx1rTln51xIQFs9C16DiWvLcc/wr+L07u/gRewQIMs+fXj2+t786zLAtWS25UO06wIlzb7Im/b7vZ7MdQM1g56uQEMIzShlop0g9vxrU6oWK+wjBg6sfgljyPP6gbJ8w06E6gNUe1KR5UobzI+JWmKo3Ob5pANnwB9Zixgy4k51Dif7fSlG58EvSYTgH/u0+P44Np47s2xBd0p+kBIZRZnkYXNk2gLnwB2U3bTpcyntJtv2HU03EceX3uT1vWLqbFATeoiKmitPObaIINnwQ9ZtCOC8mUk/hf2jqlG/EFPWh6wP/o/uN4Ct74LtnwBdR9egCFZEqJZNl0fv0UcnYaQ7MX/YM+mudDX4cXt9pkR/UbngYaWJPrLG/6ZMVn9MkH08nziwuUIydiRPfo9LpxZM3nk43HejodX9ZYhyz7PK2f4kxOY2bTon98RPN8vqbw4tYtiP+7kCZtuV+/kaeJ6rQT5OtmT+0NDcii23BafDSlfrOApnMMieP2kZerLbW3tCOXyZ+S/0JX6j50Dn1xJJoKGQ1yMSK6d3odjbPmE9/Gg9afjqcyZXElSXTGz52s+PoknL2bLqdm0K2gpTTMkkcmTt50KDKfiGSUfX49TXF2ojGzF9E/PppHPl+Hk6LrUjV2VGqHZJSwYSAZWLvSLO9PaMVnn9AH0z3piws5TS93fxpJ28Z3IwsLG3KauZNuXl5Nzr1G03z/E3SnjCGiako74Utu9u3J0MCCug1fTEdT6jXIiClunxe52rYnSzsXmvypPy107U5D53xBR6ILNZdthvS2Hw3r6UjjvD4n/y1rafHiALrR0Bm18v1AwSc2ttFnyyntwiaa0IVPArtptP1SPCWd8SN3Kz7pC2fT7suplHEriJYOsySeiRN5H4qkX1Mu0KYJXYgvsKNp2y9RRq0G3csz6cjfhdS+o5Cm7Y6inHunad04a+Lzbchj/WmKL2OIiKH8s0tpcGdzat9zFHnvv0k/etmSZY9J9FVouNo4aIFanZygmxH/Jj93K+LrC2n27suUmnGLgpYOI0ueCTl5H6LIvDw6u3QwdTZvTz1HedP+mz+Sl60l9Zi0k6KVvsOgKWaJqpR0mUGkIaZqo9bRACMeWTrPoVVr1tCaNWvo8+XzadTbf6fTlfk6y6Ro4yT5ugmpk3k7snGZQ7tvleiQLyRabZ3fStnq/PcZpV/cSB6d+cS3nUbbz6W0LPYcuTopUcnPnt4mv2E9yXGcF33uv4XWLl5MATeKiHmOuhWpWp1eVFCdRid93UjYyZza2bjQnN23FJuiiLTkJW054VFrn2Hy6dQHtmSoBwL0SI+nT0YWVtRrtA8df6DYitRW2U/4upF9e0MysOhGwxcfpZRqIknSGc1x0cr4mseAR8p5oSqLbvxrKY3oyCOe1VhaHfhvin4iV+tDmsY81TGki//KKfPI30nYviMJp+2mmEpS277OY4isbf1SUE1pJ33JTdiJzNvZkMuc3XSrhCGS3Kd/rxmrGPc8d9HFlHSKOLyMhlvyydR5CQXFFKjNjTujJerHCXkm7ZvwJnWedICylPZMyrN+oUP+75HQUI947R1p+kLFRrslSxbSBxP6Uoc33qeTIiJ6lk4XN3pQZz6fbKdtp3MpLT7z0XZ/0DROqNWdLjZuYzwooUfNfzpz/KHIEzfCZeg5TI66i61OOqzJ43gJyJG40QVDz01G1N2t4NTO0Ra4mOX4zWHzcX5LICrf84ITWwZxRRVqqsQouP8zjhUuQsh341U/deTg4Ggzr9/yidcB5ScTHL8LnNo5nhvOeTh+E1jkH/fF8vs98H8DeqCP42AMH+2G8RNnYKaHC/7Wt4fObwfg4ODQDjcp/hMhLy/HU6YCInEb3pbN8YLIUV7+FEyFCJzaOdoKF7McvzUCy84w/mUZhrh9gGXrt2D7tk34fMk8/OO/PbDYu+HtJBwcHC8DbvnEnwRp5jUc/XcEsivkEFjaYcysBXDvYaB8GcdLRYrMa0fx74hsVMgFsLQbg1kL3MGpnUMXuJjl+L2Q5sfi4vkwJBfUgN/eFoPGT8X/9e/ITYg5OF4y3KSYg4ODg4ODg4PjLw+3fIKDg4ODg4ODg+Mvz19iUsxWZiE5U/J8e2Fq85H8oPj5yjJiPEx+jGrl438gL6QLJV5mXS8PFpVZyciU6CIVA/HDZDz+MxnoBanOScD9vGaf8mlFNXIS7kPjJc9BbX4yHmj/JjaHFqpzkpBeql6P2u37svlt/OXVpC25pQ28yBijFRYV2fGIjE5B0QvYUJtf/lG82nlHh9hiK5GVnInncrkXKfsX5vWeFDN5+GW3FwZ37wvPg+lt+9oNK0HCic/gbm+PMdsiFS9h1xkGOb/sxoeDumPAwpPI0faRmt+DF9GFMi+zrpcIk/cLdnsNRve+njiYrlkqJucX7P5wELoPWIiTfwoDvQTYbBz8cCiGLTqGIjWJkM0+iA+HDsOiY0UvZRBmJQk48Zk77O3HYFtk26KEowm2JAaHfUfDvvc72BmjRo862FcXpLfWY1jvUVgVWqLVB162v7yqtCW36MwLjTE6wDxG8Oc+2HEhGue+8ICw/wc4/rhtuU4nv/wDeB3yjubYYpD3y254De6Ovp4H0TaXe5GyHK/3pJjfFW6+izC6Y7Ovd+kKzxJOc1ZgqvA5yoIPW7dPsWBkexWfYf2DeBFdKPMcdbGldxH/qG0Jua3wu7rBd9FodNRhmTzf1g2fLhiJ9jr34BWAZ4fFP0Yj6tB8dG6IbLYUd+MfNX6liGe3GD9GR+HQ/M4vJfh5lk6Ys2IqhDronEM9PCtXeC2fhJ7KJ5qjyr4aUB1zdbh7/iowczs2/J+VVh942f7yh6IUC22hLblFZ15ojNEGi+JTK7Ei9W9Y5euLHcE/YrWrOeSav9XbCp388g/glcw7bcrFfHR188Wi0R3R9i6+SFmO1rZ43eBbwtJC1WcZdYBnAXPT5ywLPkzNTf9cCn4RXSjTprqqEfvtRhx9+Nv/ZOVbWkJXsfim5jD9UxnoxTG1dcLArvXfBAdQHfstNh592OxuvilsnQai2SUvDM/CHM8dJhyN8M2161HZvupRE3NMLnLe+hynNo9Eu5Zn1PDy/eWPonUstI225BadeaExRhN1iLkeiWpTCxgB4HV0x4bj+7Hg7ba/r0IXv/wjeNXyTmv/0xZbfFhaWuD5uvgiZf/avGZTgibk5ZmIC49AQt4z5VMAgJqCZNwOi8DdnEoVjy4a4EFPhVfJRQ8Re/MGwu5kQaLhtoNeQ2GSo/RBDGJSi6C8fEh9XSwkj2IRfisRuRUiFBS2XPiqm/wKXo4uFGisSy7Cw9ibuBF2B1kNnWFLEbN3Pj7YHYfsxKsIvZmCpqVpDMRZ8bgVEYP0EuVHYJr73xI5yjPjEB6RAFViATUoSL6NsIi7yKls1kM9vfqkQZCXPkBMTKrKdXe66YdF5eNUZFWyYMSZiImIRaYK51BbV00uktNLwdQW4H5cOsoZADV5SHpQDBYMJFnxiErIbVyfXlechqjI+yhQlrc2H0lpRWDBojRmL+Z/sBtx2Ym4GnoTKfWKr81PQlrz5++q2laBWl/lNeixiZq8JMVaP0aCrPgoJOQ2So7itChE3i9oQywAQB1K0qMRFhaLTLHySTX2RTVykzMgYoG64lRERaWhRGlGpL7NGuQmp6OUqUXB/TikKymFLUzEtdAQhITeQrqEBZgC3L0SgpCQK4h5XNN4XXVuMjIUAiA1KgppygI0p9EfAdQVIeW2iusb7duAijjRGHMdMWR4Z+TeSUerkFPjB638BUBdSTqiw8IQmylufeeVESMr/hYiYlS0oYq6EqRHhyEsNhOtTKuprupcJGeIwKIOxalRiEorUTPhVR8LmnMQtOYW9f6jwi4qUTXGyCF6GIubN8JwJ0vSUr+sBI9iw3ErMRcVogKorFaai7grVxHzqAJMWRquh1xBVGZl42m1OUidXXXxyxeSmYUoNQyhISEICQnBldhs1ABATTZir4QgJDQMqSJlSVXnHZVjUD2s5BFiw28hMbcCooJCzXt91Pqkhn6q9Uf1/qcqtiAvR2ZcOCIS8tDa5TS0D21lAdQUIPl2GCLu5qBFqtRqo5ZU5ychMiIaD0qkqCvOQnYli8LEawgNCUHorXQoUuJdXAkJQciVGDRLiRrytTLa87fm+NU1BlvyGk6Ka5B8cB48vA8jMT8TF/x8EfiwmeuwhQjduggrA8ORdOdnrBwhxKj116Eq5lrDIOvEfLjO+Bb3y4oQFeAB4YjNiG5hcCWoGJd8h8FpmDtG9LeDw9RvEV8FLXXVIWmvF3xP5UFem4agua54/4dsRYC1Sf6XqQvNdTFZJzDfdQa+vV+GoqgAeAhHYHN0DVhJAUTG7WHGspBWSyCpqFH0QxKDb7w8sTY4GbkZ57FyZB94bLlZP3hr6L8yNck4OM8D3ocTkZ95AX6+gWjZxVBsXbQSgeFJuPPzSowQjsL666JmgwGh+JIvhjkNg/uI/rBzmIpvFQbSWT9MXgS+8x4M2z5z8N3JzXhn0BCMHzcUDkI3bLldobkueQligpZhrL0Q4/0PYMf7IzDM9W+Y/o+PMU7YC6P9g3Fm01zM9voIM4Y6wHVlKOKPf4xJ0xdgyUxXOIzcpPAZVoyE05/jHfueGLU5ArWsBAUiY7Q3Y8FKqyGRVKCqLAGnP38H9j1HYXNELcCqaHvoYCw4LmrZQY2+2hK2PB4nVo6DsNdo+Aefwaa5s+H10QwMdXDFytB4HP94EqYvWIKZrg4YuSlaMfhpqZ8tDcP2D73wz+s5KEn6DlOELvA9VwhWrX1LURx3DMvH2kM4IQCnDy+Gx8Q5mDfREf2nBSKT0dQmi5KYICwbaw/heH8c2PE+RgwbisELjqO5VngduuGt4h+xeOoiHE6TA/wO6GqVgb1zp+Cz4ALISuNwbPlY2AsnIOD0YSz2mIg58ybCsf80BCoEUEvd45+wYtZc+CyeCqf+03HoEdPavoorVcZJnZqYk8R8Ay/PtQhOzkXG+ZUY2ccDW26WglXjB14Hbrb0FwBgSxG2/UN4/fM6ckqS8N0UIVx8z6GwPibUttGsf02wKA3bjg+9/onrOSVI+m4KhC6+OFdfmdq62FLEHVuOsfZCTAg4jcOLPTBxzjxMdOyPaYGZrScKKmKhRqEQDTlIW25R5z9QaxeV+UsZJgsn5rtixrf3UVYUhQAPIUZsro+TuiTs9fLFqTw5atOCMNf1ffyQraJWqkN1hQTVMoBk1aiQSPC0lgGrLgex2u0KdX6JlyEzD8Zm1bi2YRYmzdmPbKtOMAIAo47g394Gv4vVsDTTPlVRNwYBQF3SXnj5nkKevBZpQXPh+v4PaCUGoNkn1fVTmz+q8L9WubiemuSDmOfhjcOJ+ci84AffwIdN/qyufV3KgkVh6FYsWhmI8KQ7+HnlCAhHrcd1EaujjeqpScVRn4mYt+MKUtMj8PVsJ3TvMx0H01l06PYWin9cjKmLDkORErvCKmMv5k75DMEFCklU5+vm4zEUNtCav7XF7wvEIL1mVEeupgE9FtA5cf2Bqou00Eaf3l4dTVJiqPj0XBq7NoakRETEUM6e0WSg70QbE2Qt6lHwlI5MNqL2c/5Dz4iI5A/oyyEm5Lw5mWREJItbR/2MHNWUlVHcun5kYDOF9saJSE5VlHxoJtnpG5LLliSSaapLGkWr+jnSmphnRETEFJ2kbd+lkqyN8r9MXWiuS04PvhxCJs6bKVnRGVrXz4gcNyaQjIiYgu/J3ciGvC/X1hcW0+UlQnJYHq7QKxFVR64kBwNrmv1TETFq+69MNUWuHkA9FpyjJrEWko3+27Q6WkrEFNPpuWNpbYyih8Tk0J7RBqTvtJESZPU6N7ChKXvjSCQnqko+RDPt9MnQZQslydqmH2nUKuqtb01um0LpiYyoOu0QTbfhk4GzP93XVheTQ3vGGJBx/2V0tURMqddD6X7pE/re3ZBMXNdReKGciKR0b4Mj6bcbSmuuPlH4TMIGcjTsQb436/XKFNI+d0OymPUzVRMRMQX0vbsR2XhfpgbNM4X7yN3Qgmb9XF1/QEXbIqb+6no0+SoR0dMjNNmoPc35T729Cr4nd0MTcl0XTgrR79EGR31qN3QNXX0iIyIZJWxwJMMevnSzVkv9TCGd8rQnj305xBARyVJo1+gO1GX+WarSaF85Pdo1nAwsXGjZuSySEpHkP3PJynAE7Xok19wmMZSzZwwZGPenZVdLSJx6nULvixTtN0Oeto0GG/WmVbfr25feplW9jWnoV7+SnIjkj3bRcAMLcll2jrIUAtBcK0MasesRyZXqIiKikgPkYWROQ9eHUwlDRJX/o/nWRjT662xF28r21RAnrWJOfJmWCB1oeXhjxFHkSgcysJ5NPxUxav2gpb8wVHjKk+w99lGOwhiUsms0degyn85W6dCGEkzhKfK096B9ispIlrKLRnfoQvPPVmmvS/6Idg03IAuXZXROoVz6z1wrMhyxix6pUm6rWNCSg7TlFk3+o8EurWk5xsgffElDTJxpsyKRUty6fmTkqMhX0qhV1M9xDSmqZajo5Db6LlV1rUTV9ONUI7L0DFb4isZ8L9VsVy1++bJkrg5fTkJDB1od1ZDPiujYvNl0ILe17xAp5x1NY5CUolb1I8c1MQpbM0V0ctt3pEoMTT6pqZ9a/bGV/6nIxdWRtHpAD1rQNMjSxYU2pP/2alK4nIb2tZRlik/T3LFrqSlV7qHRBvrktDGBqnW2USX9srwfOa2+Xe9TCvu+bdiP1sXJiEhOadsGk1HvVdSUEldRb+Oh9NWvcq3jcUu05G9t8dumGGyJ9p9frxRVCN1/FFn9x2CsZf0ho+6ws25YR1WDsLOhyH94EbsDAhAQsAMnn3nAf8uHcDZuVo06+EL4HIvASV875IUFYceRGIhZKZ7Vqr4PAgB867/BfVAH8GGKfh/txmcj9JAccQtlehrqEthAaJuDr6eMwvwvzyBV3xPrP+0DQZvkf5m60FYXH0KfY4g46Qu7vDAE7TiCGDEL6bNa1XeIyi/g0E95sB/opLgjAMBkiCemCctw8VQIJGr7r0RVKPYfzUL/MWPRJJYdmroYhrOh+Xh4cTcCAgIQsOMknnn4Y8uHzmjsIt8af3MfhA58wLTfR9j92QjoJUfgVllVG/QD8IyNYcTvhGFT3WEjAEwcvLB5kSMoORzhxVrq4hnD2IAHCxd3jOxkiT7uHhjwhgVMTfRg0H0QXDrzARhAaG8LAbpi0HAbCAAI7GzRRa8CYnH9bgqeOczNWj1QbAHP3BwtLlHVdgeltNBGv+eZmcJEzwDdB7lAIboQ9rYCoOsgDLcRABDAzrYL9CrEEJOW+sUhOB1qCCeX+s0ogr5YFSZC/tFpMNVoXz7MzEzBN3eEh0d3GAAwFfZCV14FJOWkuU3wYGxsAJ6FC9xHdoJlH3d4DOjQ5sdqfDMzmPLN4ejhge4KAdCrKw8VknING6tM8PaQwejEA2DUDd2sAIlYrIgjZfvqGicAyi8cwk959hjo1BhxGOI5DcKyizgVIlHrBy39RYyQ06EwdHKp3+gnQN9VYRDlH8U0Ux3aUEIcchqhhk5wqd81KOi7CmGifBydZqq9Lr4ZzEz5MHf0gIdCuRD26gpehQTl6pXbhLYcpC23aPKfNthFGb7QB8ciTsLXLg9hQTtwJEYMVvoMimqFsM35GlNGzceXZ1Kh77ken/bRpVZoyfea7apAvV++LJlNhvvi0xH5OPb1GRSzAJMTjEv60zGzqy6Rp2kMEsBGaIucr6dg1PwvcSZVH57rP4UqMTT5pKZ+Po8/KufiqtD9OJrVH2OaBll0t7Nu/Gqhpva1la0JO4vQ/Ie4uDsAAQEB2HHyGTz8t+BDZ2PdbVRxCQdOVGLIO84wqT/Eb9cOOtzEV6AxXyujJX9ri98XiEFdu/NqwOQh/VcJwBeo7hhbiVLRMxg6TMPqdeuwruFv7XJM6a2bugTPErF3kQ+CCgbiIx83WPPUeLwqeJ3Qo7sl9Bg5ZJrq4nXDwuPXcMDTHOHbZ2FQ72FYdjYXTFvkf5m60FYXAJ7gGRL3LoJPUAEGfuQDN2ue2oGfKc7FkxoWdXXNVpUK7GBrw0OdRIynUNP/5pUAYPLSoRBLtVRsZSlEzwzhMG11U//WrcPa5VOg3EUFPHTq0R2Wegzk0jboRyUC9OzbC6aQQfrsqfa6Ws1l9VqtNdTj6bV8m4keDzw037mu17SOXR16rett3bYyGnxVFc3XICoOoLXoPDRtjVZfPyMqQVmtBOUNE/9maLOvsi70+HzogcASNLZZf3Wzfz8nynrQ44OvB5BCAB3gg8cHGLms/v9K9lWXJ5quqIdBce4T1LB1aBlytrDh1UEifqqYdKvqcnN/YUQoKauFpFysIrZ1bKMRBqKSMtRKyhU/jJTOaa9L2Y/1wFcoV4VsrdGWg8Q5mnOLRv/R2S4q4AnwLHEvFvkEoWDgR/Bxs0ZTtQtx/NoBeJqHY/usQeg9bBnO5upUq+Z8b1+hwa6qUPLLlyUzvwc+XDETRpe+xoHkWqSeuIk3Z09CB+Xr1KB+DOKh28LjuHbAE+bh2zFrUG8MW3YWrcXQ5JOa+9k6X+vgjy1yMYO89F8hAR/qXU5d+9rKsqgsFeGZoQOmrW5m+3VrsXxKbxjoaCOm4BGyqwQw0FeVKLSjLV8royl/a4tfXecQqlCpwlcWvQ54o4MAtSl3kaj06hliWYBngS7WJkgPPowb4qZzTFYILiXpsNqk6jJWTPWDaOb32DrHGVYNhlTr9crUoLTsGbo5DsKbNRrqYvKQ8qQrvPbeQHrqBfgNyMV+3+24LmuD/C9TF9rqQhUur5gKP9FMfL91Dpy1KIbfpRd6WjBIjb/buB4KbB2kdTy8NdAJ1qSm/0pt63V4Ax0EtUi5m4iWpwiKLnaBtUk6gg/fQFMXGWSFXIJyFxuoKS3Ds26OGGRtqbt+GiFQs5FfVlML1soB/d5q/xx1/Yl4Yb/Xgob6+W92g41xMUJ+voLyhutZEUICT+JX07bbtxENbeoMXwB+4yS7CSJdUu9LQF2eaPXaLT669OoJCyYV8XebFoKzdVLU8d7CQCdr3QYC/pvoZmOM4pCfcaXJGBCFBOJkBtrYBh9vdrOBcXEIfm6qDKwoBIEnM/Fmm+pqO9pyUJc3NOcWjf6js11aU3V5Bab6iTDz+62Y42zVeGdLUW0KnnT1wt4b6Ui94IcBufvhu/26knxq0JTvUztqsKt2X36ZMrfzWI4lAx7g0FdbsO9eX3wwtuGepDY0jUEM8lKeoKvXXtxIT8UFvwHI3e+L7a0MosknM1ChoZ8vjh46vNEBgtoU3G09yELhcura11aWB4su1jBJD8bhlsZHyKUkSHW0kZ5le7TDE8THPFY7ueQL+Cp+CBCIeb7xWB3a4lfXOYQqXjS3/LngdcLkeZPwRtZhrPC7iNw6QJpzDyklDMT5OSiq0MP4BXPQPTsQnmPmYssPwThzLADea6Jg2kPFTxUwYBjFxI8FwFY8QlZxFXIzHqOqNg/hF6JRyNSgojARsSn1m7OUoJoKSOoNUZt8GCce/R82LBsKgaa6kjIQvDMQ92oAI7t34bdhJuxMDGGkZ6q7/C9TF9rqEhfhUVYxqnIz8LiqFnnhFxBdyKCmohCJsSngGRnBEE9RWFCO0thIJOlPwlKf/hCf2YOgDMWOUbboGsLyhmPpxyNhyOSp6b+yWJMxb9IbyDq8An4Xc1EHKXLupaCEESM/pwgVeuOxYE53ZAd6YszcLfgh+AyOBXhjTZQpGrtINahoMhAOn3iE/9uwDEMN2qDrBthS5GQ3bNIrwPnzSejn8zHcjHSoiwC5rHlmYMCyDT866iEA1OzOMBEILNjGDMWCYampDM8IRobA08IClJfGIjKpBmAZsFQ/sDfWo9x2S7T6PcOAAYFtqJRhwTZMHupRiN6UKokIYFkw2urPG4kFs7qi6PgSvLf8Xwj+70ns/sQLwYJhsLfQZF8WDCMHsc0mrUSKQYJlNbeZUtWgFI0bM/hWNuhskI+Yq/dQXPIAl/YfxW2RHKV5j1FWWQuWYSAnttmdYQLV66nlXVMFiuOtJ9lN1yvZV0OcKMdcjttS+PQX48yeIChCjkXRtTDkDV+Kj0caKupT5Qct/KUdJiyYha5Fx7HkveX4V/B/cXL3J/AKFmCYPR/tJunQRjPaTViAWV2LcHzJe1j+r2D89+RufOIVDMEwe3TQVhfLgJET2GYDsMK8bEvfbkA5FnLcNOYgYy25RVykwX/U5m9loaA0xrCoeJSF4qpcZDyuQm1eOC5EF4KpqUBhYiySMoKxM/AeamAEu3f9sGGmHUwMjVTe4AfqUCcj1NVJ631HUw7qqNGumv3yZcoMQNAHi5ZPguzf3yB16AdwVpNqAbTMO2yFhjEoCXnBOxGoMAje9duAmXYmMFRhEPU+2QNVGvqZ8lSLPyr7X6tczEOnyfMw6Y0sHF7hh4uKQRb3UkrAiPORUyRGkdr276DYTVPZCuiNX4A53bMR6DkGc7f8gOAzxxDgvQZRpj2gl6ebjXhW/4f3xhgj9qu5+Hj/FcTd/QVHj/yCwsbxhw8rm84wyI/B1XvFKHlwCfuP3oZIXoq8x2Wo5GvK1y3bAjTnb7R7OXMIlSgvMn7lYcQUt8+LXG3bk6WdC03+1J8WunanoXO+oCPRhURUTWknfMnNvj0ZGlhQt+GL6WhKw7Lx5jyj9IsbyaMzn/i202j7uRQiJp/OLh1Mnc3bU89R3rT/5o/kZWtJPSbtpGiJcnmi6l/P07YPRtPfRk0lr0+W0qKPt9KFR/XLwjXVVXKb/Ib1JMdxXvS5/xZau3gxBdwoqt/oo6v8L1MX2urKp/yzS2lwZ3Nq33MUee+/ST962ZJlj0m0M1pCJM+kI38XUvuOQpq2O4YqiYhk2XR+/RRydhpDsxf9gz6a50Nfhxcr+ijV1P+WMOI42uflSrbtLcnOZTJ96r+QXLsPpTlfHKHoQoaoOo1O+LqRfXtDMrDoRsMXH6XGLlb/Sue3fUCj/zaKpnp9QksXfUxbLzxqXLjfFv3IEjbQQANrcp3lTZ+s+Iw++WA6eX5xgXIaN/2oqYsR0b3T62icNZ/4Nh60/nQ8lTFVlHZ+E02w4ZOgxwzacSGZchL/S1undCO+oAdND/gf3X8cT8Eb3yUbvoC6Tw+gkMxySruwiSZ04ZPAbhptv5RBRHLKPPJ3ErbvSMJpuymmKI0ubJpAXfgCspu2nS49KFDRdst+EWnx1aJ0urjRgzrz+WQ7bTudi7tD5zdNIBu+gHrM2EEXknMo8b9baUo3Pgl6TKeA/92nx/HBtPFdG+ILutP0gBDKfKahfgkRVafRSV83EnYyp3Y2LjRn9y3Fhh9SnFNlX0nSGfJztyK+vpBm775MqRm3KGjpMLLkmZCT9yGKzMtT0+ZXFBp+mtaNsyY+34Y81p+meJVKISJ6SpHbxlM3CwuycZpJO29eptXOvWj0fH86cTOCzvi5kxVfn4Szd9Pl1Ay6FbSUhlnyyMTJmw5F5resSnKf/r1mrOJ6z110MSWdIg4vo+GWfDJ1XkJBMY9a21dTnKiIOVn2eVo/xZmcxsymRf/4iOb5fE3hxYwaHySiKiV/yahV+PFJX3ITdiLzdjbkMmc33Wo0hoY21FCddpJ83YTUybwd2bjMod23ShrjXH1dEko640fuVnzSF86m3ZdTKeNWEC0dZkk8EyfyPhRJ+a2aVIoFhULU5yBtuSVfnf9oy9/NaT3GMPlnaengzmTevieN8t5PN3/0IlvLHjRpZzSV3PajYT0daZzX5+S/ZS0tXhxAN1RsYCRZFt3411Ia0ZFHPKuxtDrw3xT9RK4+BxGpt6tWvyx6OTI3pzacljtPpoOtjdjEM6W8kyLRMAaV0G2/YdTTcRx5fe5PW9YupsUBN0idGOp8Un0/r9Ftrf6oJRdn1BIRQ+K4feTlakvtLe3IZfKn5L/QlboPnUNfHImm/Dx17UeTREtZxVB4gnzd7Km9oQFZdBtOi4+mUDURSdtgI3nBVdo02YE6mVmQ3dgVFByyiVyMGzbaEdHTSNo2vhtZWNiQ08yddPPyanLuNZrm+5+gO2VaxuNmaM3f+Yzm+NWUG7WgR81v33BwcDwX8sSNcBl6DpOj7mKrU6ufvRwcHBwcOsDmHoDX9k74NnAG2iuf5PhTwaRtg6vLzxgfnoAv//Z6jHuv1/IJDo4/GlWPbjk4ODg4NMCgqlyMWrYKUfuvwfqDidyEmOMPgZsUc3C8BOTl5XjKVEAkVv6qDgcHBweHJuRJ2zHG2gpWnd/G0vIPsWK42m8fc/yJkJeVoUJeBclTTbsvXi245RMcHC+INPMajv47AtkVcggs7TBm1gK49zBQvoyDg4ODQxXyHFw5cBIpb7yDD2e5KN6HzPGnhsm/jeOnriBDJIN++x5w8/wIY+wa3oz86sJNijk4ODg4ODg4OP7ycL/HODg4ODg4ODg4/vK8lpPi6pwkpJdyO56aqEZOwn3kNfv4y+8KW4ms5ExIOJO8BFhUZiUjk1MmBwcHBwfHS+W1mhSzJTE47Dsa9r3fwc4YbsNTA2z2QXw4dBgWHSv6nV+OwCDvl93wGtwdfT0PIv31WYv/h8Dk/YLdXoPRva8nDnLK5ODg4ODgeKm8VpNinpUrvJZPQk/lE39xeHaL8WN0FA7N7/w7G5yPrm6+WDS6I7iV6y8Ov6sbfBeNRkdOmRwcHBwcHC+d33eO9DvANzeHqS6f8vtLYQpbp4Ho+oe85YYPS0uLVp+M5Hg++JaWsOCUycHBwcHB8dJ57SbF0NNrmoDVFSHldhTSSpQeNctFeBh7EzfC7iBL0vjhbhWwqHyciqxKFow4EzERschUur4mNxnppQxqC+4jLr0cjWcZMbLibyEiJh0lSis52MrHSM2qBMuIkRkTgdhMSVO5BjSUR00uktNLwdQW4H5cOsobC9ehJD0aYWGxyBS3rLE2PwlpRS0XTzDiLMTfikBMegmUm6jOTUaGiAXqipEapUKHkEP0MBY3b4ThTpYK+eXlyIwLR0RCHp4pn4OW/jXAFiLxWihCQkJxK10CFgwK7l5BSEgIrsQ8Rk3DddW5SM4QgUUdilOjEJVWAmVpm6NV/2r1y0CcFY9bETFIbxSaRfmDCISGhCAkJAShkRmoYAFUZuL2lRCEhEYio3H9bw0Kkm8jLOIuciqVF7JoOidHeWYcwiMSkKdamSrkaqAGucnpKGVqUXA/DulNneHg4ODg4OBoxus3Ka6n7vFPWDFrLnwWT4VT/+k49EgxGWCyTmC+6wx8e78MRVEB8BCOwOboxulVI0xeBL7zHgzbPnPw3cnNeGfQEIwfNxQOQjdsuV0BtiQGQcvGwl44Hv4HduD9EcMwdPACHBcBkphv4OW5FsHJucg4vxIj+3hgy81SsEweIr7zxmDbPpjz3UlsfmcQhowfh6EOQrhtuY2K+rbVlmdLEBO0DGPthRjvfwA73h+BYUMHY8FxEdjSMGz/0Av/vJ6DkqTvMEXoAt9zhZCLE3D683dg33MUNkc07LSTIOYbL3iuDUZybgbOrxyJPh5bcLOUBVsah2PLx8JeOAEBpw9jscdEzJk3EY79pyEws35CxWThxHxXzPj2PsqKohDgIcSIzdGNk9Sa5IOY5+GNw4n5yLzgB9/Ahy0mnWr71+waAACvA7q9VYwfF0/FosNpkIOPDl2tkLF3LqZ8FowCWSniji3HWHshJgScxuHFHpg4Zx4mOvbHtMDM1hN1bfrXoF9IYvCNlyfWBicjN+M8Vo7sA48tN1HK8mDa0RDp/1qIyVO3455lF5jyAJi8CbO4PdgdL0AHEx7YwlBsXbQSgeFJuPPzSowQjsL66yKwgMZzqEnGwXke8D6ciPzMC/DzDcTDlspUIxeLkpggLBtrD+F4fxzY8T5GDBuKwQuOQ9SsOAcHBwcHB0c99LpRcoA8jMxp6PpwKmGIqPJ/NN/aiEZ/nU0MyenBl0PIxHkzJcuISBZH6/oZkePGBJIp10NE0qhV1Fvfmtw2hdITGVF12iGabsMnA2d/ui8jYnL20BgDY+q/7CqViFPpeuh9Eoku0xKhAy0Pf1ZfSzVFrnQgA+vZ9FMRQySNolW99cnabROFKiqlQ9NtiG/gTP73ZURiLeWZHNozxoCM+y+jqyViSr0eSvdL8+mUpz157MshhohIlkK7RnegLvPPUhURMYX7yN3Qgmb9XE1EROLLS0josJyamoiklQ4GZD37JypiiOSPdtFwAwtyWXaOsqREJPkPzbUypBG7HpGciOQPvqQhJs60WaFEilvXj4wcN1KCTFHX6gE9aME5cX3lVXRxoQ3pv72aoqWkvX/KyNNo22Aj6r3qNkmJiEhKt1f1JuOhX9GvciKSP6Jdww3IwmUZnVMIS/+Za0WGI3bRI7lyZaRd/6r0KxLR5SVCclgeTk0qW0kOBtY0+6ciYohIlryV/mZsQwvOSRQXMAV05JPVFFJJREwxnZ47ltbGKHpATA7tGW1A+k4bKUGq4ZysmiJXD6AeC85RozYvLiQb/bdptUKZWuRiKGfPGDIw7k/LrpaQOPU6hd4XKXyEg4ODg4ODowWv6Z1iE7w9ZLDiqzhG3dDNCpCIxWDBh9DnGCJO+sIuLwxBO44gRsxC+qy29V1KADxjYxjxO2HYVHfYCAATBy9sXuQISg5HeDELnrExDHgWcHEfiU6WfeDuMQC4dAg/5dljoFPDAl4TDPGcBmHZRZwKkQA8Yxgb8dFp2FS4KyqF1+ZFcKRkhIcXo+yCDuUNeLBwccfITpbo4+6BAXpXcDrUEE4u9RvpBH2xKkyE/KPTYAqAZ24Os8Y1JeW4cOgn5NkPRFMTQ+A5TYiyi6cQIgH4ZmYw5ZvD0cMD3Q0AmArRqysPFZJyEAC+0AfHIk7C1y4PYUE7cCRGDFb6DLUsUBW6H0ez+mPMWMv6yo3Q3c4aDd+5KdfWv7bCN4OZKR/mjh7wUAgLYa+u4FVIUK5qP5oW/bOq9ItLOPRTHuwHOqFJZZ6YJizDxVMhkAAQ9FkIn3E1OBsYjHwWYB6eRuybs+BmBqAmDGdD8/Hw4m4EBAQgYMdJPPPwx5YPnWGs6VxVKPYfzUL/MWPRqM3udrBuUqYWuXgwNjYAz8IF7iM7wbKPOzwGdHh9Hw9xcHBwcHC8AH+B8ZEPHh9g5DIAAE/wDIl7F8EnqAADP/KBmzUPquZOqhGgZ99eMIUMUqmiVMs9TwyKc5+ghq1DXbN3AgvsbGHDq4NE/FTl5FvQsy96mQIyaQ2KdCmvtNGKEZWgrFaCcrGanujpQa+hDFOM3Cc1YOvq0NSEAHa2NuDVSSB+yrZclw0Aenzw9QBi6+vnCfAscS8W+QShYOBH8HGzBo+geAVb+q+QgA+BSs96Pv1oplnf6v/PVwirs12b9C9VlFHWb3EuntSwqGspNGxteKiTiPGUBcCzxiyfGTC/GYjDKdWI++kR+s11ggEAtrIUomeGcJi2GuvWrWv8W7t8Cno9U3/OvjAdv0oAvmpl6iaXcmc4ODg4ODg4VKJ6tH1tqcLlFVPhJ5qJ77fOgbOVoP64pukTgZrN1GQ1tWCtHNCvi6pvfPPRpVdPWDCpiL/btE6ZrZOijvcWBjpZNyqcWlaKWtYKDv26oquO5ZvDf7MbbIyLEfLzFZQ3HGRFCAk8iQzlhbX8LujV0wJMajyammBRJ60D762BcLJW1UJLqi6vwFQ/EWZ+vxVznK3QpEU9dHijAwS1KbibKG1ZiFiwbdBPE3wI+M0m5A0QtV4z3AZU679L4x3t5vC79EJPCwap8XebNvexdZDW8fDWQCc0qMzsHR94CVNx5OstOF0xGrN7KGrjWXSBtUk6gg/fgLixVgZZIZeQYqL+XLLFG+ggqEXK3US01CaBZXWXi4ODg4ODg0M7r92wybIsWBCU51Asy4JlK/AoqxhVuRl4XFWLvPALiC5kUFNRiMTYlJYFGmBLkZNdVf/vApw/n4R+Ph/Drf55NUEOWbNXHbSbtBQ+/cU4sycIGXUAwKLoWhjyhi/FxyMN669iUZqTDUWtLArOn0dSPx987GakW3kC5C0anYAFs7qi6PgSvLf8Xwj+70ns/sQLwYJhsOcDYBmwpJhIAe0waakP+ovPYE9QhuKtE2wRroXlYfjSjzHSEGAZBnJim01ECQSq1y2LikdZKK7KRcbjKtTmheNCdCGYmgoUJt5Bsds8THojC4dX+OFibh0gzcG9lBIw4nzkFFVAX5f+NYdvBZvOBsiPuYp7xSV4cGk/jt4WQV6ah8dllahlGTByAtvszjARQCxb319VqNc/oEq/k7DUpz/EZ/YgSCE02KJrCMsbjqUfj0Sj1AInLFw8EqJTZ0CTJ6Fjw3HT8VgwpzuyAz0xZu4W/BB8BscCvLEmyhQ92qk/Z289GfMmvYGswyvgdzEXdZAi514KShgx8nOKUKGvi1wEyGUt3sbBiq5hs+ffse1m0zScg4ODg4PjL4/yIuNXGsl9+veasWTF1yeh5y66mJJOEYeX0XBLPpk6L6GgmALKP7uUBnc2p/Y9R5H3/pv0o5ctWfaYRDuj6zdINUOWsIEGGliT6yxv+mTFZ/TJB9PJ84sLlCMnYkT36PS6cWTN55ONx3o6HV/WuIFJln2e1k9xJqcxs2nRPz6ieT5fU3hx/VlZAm0YaEDWrrPI+5MV9NknH9B0zy/oQk7TrjC15RkR3Tu9jsZZ84lv40HrT8dTWUOj1Wl00teNhJ3MqZ2NC83ZfUux0bAqjS5smkBd+AKym7adLmXUEpGMss+vpynOTjRm9iL6x0fzyOfrcCpmiEiSRGf83BU6nL2bLqdm0K2gpTTMkkcmTt50KDKfmPyztHRwZzJv35NGee+nmz96ka1lD5q0M5okxJA4bh95udpSe0s7cpn8KfkvdKXuQ+fQF0eiqZDR0D81PI3cRuO7WZCFjRPN3HmTLq92pl6j55P/iZsU8W8/crfik75wNu2+nEoZt4Jo6TBL4pk4kfehSMpXrlaT/jXpV5ZN59dPIWenMTR70T/oo3k+9HV4cetNa+L/0sJJW+i+8s7N6jQ64etG9u0NycCiGw1ffJRSFPseNZ5jxHG0z8uVbNtbkp3LZPrUfyG5dh9Kc744QtEKZaqRiyHRvdO0bpw18fk25LH+NMXXd0aeuY8mvNmZJh3IapKPg4ODg4PjL44eEfd5LHXIEzfCZeg5TI66i61ODYsEXhB5Ija6DMW5yVG4u9WpcekBx+8Ep38ODg4ODg4OFbx2yyd+E9Q+hn8RfpNKOXSG0z8HBwcHBwdHE9ykWAPy8nI8ZSogEit/JewFkJej/CmDCpG41VfkOH4HOP1zcHBwcHBwqIDv7+/vr3yQA5BmXsOxqyV4a1BfmJXngroMQI/2qt5N0Aakmbh27CpK3hqEvmblyKUuGNCjvco3HnD8BnD65+Dg4ODg4FADt6aYg4ODg4ODg4PjLw+3fIKDg4ODg4ODg+MvDzcp5uDg4ODg4ODg+MvDTYo5ODg4ODg4ODj+8nCT4j+Y6pwE3M+rVT7856M6Bwn38/AKSPrcsJVZSM6U/HVf1vYcNv5D/ZetRFZyJiSvjMFYVGYlI7NR4GrkJNyHKvWxFdmIj4xGSpGKkxy/P6+cr3FwcDwPr9WkmC2Mwc/fLsd7o0dgxMjJ+PifJ3Arh6k/K0XmL0HY5v1/GOk+F18cuoFMqVIFvzdsNg5+OBTDFh1D0Z862bLIPvghhg5bhGN/bkGfDyYPv+z2wuDufeF5ML3FJ5H/OjyHjf8w/2WQ98tueA3ujr6eB5H+ChiMyfsFu70Go3tfTxysF5jNPogPhw7DomNFzX6IMXgc/Dl8dlxA9Lkv4CHsjw+OP25WE8fvy6vnaxwcHC+A8ifuXnnkqbTtb/okEH5GkVLlk0TPLnrTIO+L1PCF3T+aqux7lJj7TPnwn4+qbLqXmEuvgKTPhzSSPhMa0turo0mF2/w1eA4b6+6/DJXE36HMpq+ZvyBSivxMSIZvr6boV8Rg0sjPSGj4Nq1uFLiKsu8lUnP1MUU/0vQu79JBERExZXR9ywfkE/Sg6YLfAaYknu68PEO9Brx6vsbBwfF8vFZ3igEAem+gY3s96JlbwlJF73jt2uOtNzr+aT7va2rrhIFdjZQP//kwtYXTwK54BSR9PviWsLTQUz761+I5bKyz/1bH4tuNR/Hwpd1p48PS0gKvksX4lpZo6WKmsHUaiObqq4u5jshqU1gYAeB1hPuG49i/4O3mhX5jqhH77UYcfXmGeg149XyNg4Pj+VAxbfwdqM1G2NFd8PffgaBfslCjfP53pRq5yRkQsUBdcSqiotJQojQeyEUPEXvzBsLuZEHSsBpDJTXIS3qAYhZgJFmIj0pAbnX9qbpipEVF4n6B0hrB2nwkpTV/fMpC8igW4bcSkVshQkFhQwXPUTfkED2Mxc0bYbiTJYEm0dnKx0jNqgTLiJEZE4HYTOXra5GflKb0mLwGBcm3ERZxFzmVDScq8PD2FYSEhLT8C41ERv2CPN31yaLycSqyKlkw4kzERMQis74AW5iIa6EhCAm9hXQJCzAFuHslBCEhVxDzuKVH1RQk43ZYBO7mVLZaLywvz0RceAQS8p4pnVGgqWxzWMkjxIbfQmJuBUQFhWgwDQCgpgDJt8MQcTcHjWoCgJpcJKeXgqktwP24dJSr1EVrf9C17zV5SXigcBhkxUchoclhUJwWhcj7BUrrh1vbuDo3GRmK4EBqVBTSlIND2X9ZCR7FhuNWYi4qRAUorAbY0hjsnf8BdsdlI/FqKG6mlIIFUJObjPRSBrUF9xGXXl7vb1p8Vl6OzLhwRCTkobXFtJRthnZ/B8CIkRV/CxEx6ShR/vyhTrYDADnKM+MQHpEAVS5Wm5+EtCIWgBS5cVdwNeYRKpgypF0PwZWoTFQ2Xqkq1hTHc5PTUcrUouB+HNKbCaLOd9XalC1FzN75+GB3HLITryL0ZgpKGwqq82EV/qkSthKPU7NQyTIQZ8YgIjZTKfbV94MRZyH+VgRi0ksav0LJlj9ARGiz3FLBAqhE5u0rCAkJRWSGpKlmNXqoP6mmX9p87Xn9Q50dddQjBwfHb8rvPymujsOXHs5w/+hzbN68FgvHu2D8lihUKV/3m8OiNO4Ylo+1h3BCAE4fXgyPiXMwb6Ij+k8LRCYDAAyyTsyH64xvcb+sCFEBHhCO2IzoVrN4FuXxJ7BynBC9Rvsj+MwmzJ3thY9mDIWD60qExh/Hx5OmY8GSmXB1GIlN0TUAK0bC6c/xjn1PjNocUT85qUPSXi/4nsqDvDYNQXNd8f4PWShpa90AwGThxHxXzPj2PsqKohDgIcSIzdGtf4AweYj4zhuDbftgzncnsfmdQRgyfhyGOgjhtuU2KsBCnHAan79jj56jNiOifhbFFoZi66KVCAxPwp2fV2KEcBTWXxeBrXuAY9sDEZtfDolEAklZPA4smoIZ6y6ihE866hNg8iLwnfdg2PaZg+9ObsY7g4Zg/LihcBC6YcvtCvA6dMNbxT9i8dRFOJwmB/gd0NUqA3vnTsFnwQWKCQ5biNCti7AyMBxJd37GyhFCjFp/HSIWAGqQfHAePLwPIzE/Exf8fBH4sNkorbFsS+qS9sLL9xTy5LVIC5oL1/d/QLYcAFgUhm7FopWBCE+6g59XjoBw1HpcLy1CTNAyjLUXYrz/Aex4fwSGDR2MBcdFyjWr8IdssFr6LiuPx4mV4yDsNRr+wWewae5seH00A0MdXLEyNB7HP56E6QuWYKarA0ZuikaNChuzpXE4tnws7IUTEHD6MBZ7TMSceRPh2H8aAjMZ1f5bl4S9Xr44lSdHbVoQ5rq+jx+y6yApEMG4vRlYVopqiQTiJ7EIWjYW9sLx8D+wA++PGIahgxfgeIlmn61JPoh5Ht44nJiPzAt+8A182DSRfWn+rkAS8w28PNciODkXGedXYmQfD2y5WQqWLdHRdgBqknFwnge8DyciP/MC/HwD0eBirDgBpz9/B/Y9R2FzRC0AQl11BSTVMoBkqK6QQPK0FgyrLtZKURQThGVj7SEc748DO97HiGFDMXjBcYjU+G5psWabspICiIzbw4xlIa2WQFJRA7k6Hxaxav2z5c8mBnkR38F7sC36zPkOJze/g0FDxmPcUAcI3bbgdgWLEnX9gAQx33jBc20wknMzcH7lSPTx2IKbpSx4ph1hmP4vLJw8FdvvWaKLKQ+ACd40i8Oe3fEQdDDREsOa+qXF157TP1TbUQRWJz1ycHD8Liivp/htYajoh0lkrgcCmv70TN+hfz1hlC9+Pphi2v+OAek7b6EUmfJJIumt1TRlbcO6UTk92jWcDCxcaNm5LJISkeQ/c8nKcATteiQnkj+gL4eYkPPmZJIRkSxuHfUzcqSNCSoqJoYKvncnQxNXWhdeSHIikt7bQI767Wjomqv0REZEsgTa4GhIPXxvUi0REVNI+9wNyWLWz4o1ztIoWtXPkdbEKBYZMkUnadt3qSR7jrrlD76kISbOtDlZRkQyilvXj4wcN5JK0aVRtKq3Plm7baLQJzKi6jQ6NN2G+AbO5H9fRkQMFe5zJ0OLWfRztULHp+eOpbUx9QvsmBzaM9qA9J02UsKzFLp4MZ0UzVRS1BfOZGY5kr5KqG2jPomkUauot741uW0KJYVYh2i6DZ8MnP3pvoxInraNBhv1plW36+WQ3qZVvY1p6Fe/kpwYKj49l8aujam3NUM5e0aTgb4TbUyQUXXkahrQYwGdE9c3VnWRFtro168p1ly2JVKKWtWPHNfEKNbiMkV0ctt3lCojYopP09yxa6lJTXtotIE+OW1MIBmTQ3vGGJBx/2V0tURMqddD6b5IKQbU+oO2vhMxBd+Tu6EJua4Lp0KFw9AGR31qN3QNXVU4DCVscCTDHr50U+GMLW1MRPJHu2i4gQW5LDtHWYrgoLlWhjRi1yOSU2v/lUaton6Oa0ghLkNFJ7fRd6kK/yn43p2MbLzpcq2ibiZnD40xMKb+y65SiTiVrofep5JUDT5bHUmrB/SgBU0Go4sLbUi/fp3nS/V38WVaInSg5eENi32rKXKlAxlYz6afihiFv2uzHVVT5OoB1GPBOWpysYVko9+0ppgp3EfuhhY0q0HhRFT941QysvSk4IZDmmJNxlDOnjFkYNyfll0tIXHqdQq9X0qFGnxXm02Zgu/J3ciGvOsNpdGHNfhnS6QUtao36Vu70abQJySjako7NJ1s+Abk7H+fZKSqHyISXV5CQofl1GSGSFrpYEDWs3+iIoaIZMm09W/GZLPgHEmIFH525BNaHVJJpCWGNfZLi689l3+UFqq3Y7WueuTg4Pit+Z3vFLMozMlDrdKHpUmah+wnL+l3MU8Penp6AAgqv1/NMgC/odt8mJmZgm/uCA+P7jAAYCrsha68CkjKCeAL4XMsAid97ZAXFoQdR2IgZqV4VqvidiF4MDM1gZ5Bdwxy6Qw+AAOhPWwFQNdBw2EjACCwg20XPVSIxQrZeOYwN2u2Uk1gA6FtDr6eMgrzvzyDVH1PrP+0DwTPUTdf6INjESfha5eHsKAdOBIjBit9BtWiG8PYiI9Ow6bC3UYAmDjAa/MiOFIywsOLwYIHc3OzpjV1NWE4G5qPhxd3IyAgAAE7TuKZhz+2fOgMY0FfTJzYGwKwEIWuwYJ/PsHYnUewytGwjfoEeMbGMOJ3wrCp7lCI5YXNixxByeEIL1ZdpokahJ0NRf7Di9gdEICAgB04+cwD/ls+hLNxFUL3H0VW/zEYa1l/uVF32FnzdSjbrAkAgAA2QlvkfD0Fo+Z/iTOp+vBc/yn6CICasLMIzX+Ii7sDEBAQgB0nn8HDfws+dDZW6NyABwsXd4zsZIk+7h4Y0EEpHNX6g3Z4ZqYw0TNA90Eu6KxwGNgrHAbDFQ4DO9su0KsQQ6xwxpY2BsA3M4Mp3xyOHh7orggO9OrKQ4WkXKX/CmyEsM35GlNGzceXZ1Kh77ken/ZRLS3P2BgGPAu4uI9EJ8s+cPcYgE5vq/fZqtD9OJrVH2OaDIbudtZosNjL9PeyC4fwU549Bjo1LPY1wRDPaRCWXcSpEIlutqsKxf6jWeg/ZiyaXMwOjS4GgGdujubhrxJNsQYejI0NwLNwgfvITrDs4w6PAUaI0OC7Wm3aqnkNPqyzf/JgbGwEfqdhmOpuAwFM4OC1GYscCcnh4ShmVfUDuHToJ+TZD0STGYbAc5oQZRdPIUQCQNAHC33GoeZsIILzWYB5iNOxb2KWm5nWGNbUL22+Vv48/mEUod6OOuuRg4Pjt+Z3nhQLYD/YGVbNBgYA4L3hjCG9DVoefG6MYWLEA9VUo1rFgMhWVgGm5o0JTjGBbkKPz4ceCGz9REHwLBF7F/kgqGAgPvJxgzVP1dChQLku6PGguCneeAA8HkCNhxom8PXwumHh8Ws44GmO8O2zMKj3MCw7mwvmeermCfAscS8W+QShYOBH8HGzhgbRWyHo2Re9TAGZVAqqb79BArayFKJnhnCYthrr1q1r/Fu7fAp612dyNj8YvosPQzprHwIX9qzXd9v02RoBevbtBVPIIJVqKcdWolT0DIYO07C6mYzr1i7HFPtCpP8qAfgC1QGgqWxDBxvhodvC47h2wBPm4dsxa1BvDFt2FrkMi8pSEZ4ZOmDa6mZ1rFuL5VN6KwY8bRMiDf6glWb2qj8Anp7i0UzjkZbO2MLG9QeU/s8HXw8gRXC08l9et4U4fu0APM3DsX3WIPQetgxnc9VL26r7an2WQV76r5CAD4FKg2kqqxtN/l6DotwnqGHrUNdswbXAzhY2vDpIxE8V61JbCd8SJi8dChdTJ3C9frXUoz3WlCrQ5rtabdocLT78Iv4p6Im+CoVDEcpK/WCKkfukBmxdXbN17wLY2dqAVyeB+CkLgAfrWT6YYX4TgYdTUB33Ex71mwsnA2164Gnolz0KNfoag+Ln8A+NdjR4AT1ycHC8VFSG/W+J2bvbcGDZYHQU6AHQA7+9Mz458BWmNfwof2EM0L1HV+jlP0RGq4XKDLKTnqBD726Nk2KNVF3Giql+EM38HlvnOMOqYT6kavx4GTB5SHnSFV57byA99QL8BuRiv+92XH+O9ylXXV6BqX4izPx+K+Y4WzXeddAkOlGzXxGyGtSyVnDo16WVrngWXWBtko7gwzcgbjzKICvkEpLkAOQZCFy0FP+z+Ad++GYGrHkAKy6BSPI8+iS0FKsWrJUD+nXhA3wB+I0/YJogYgCeBbpYmyA9+DBuNAkJJisEl5It8EYHAWpT7iJRSbfEsprLJik/0WCQl/IEXb324kZ6Ki74DUDufl9svy6DRRdrmKQH43DLShByKUm39YKa/EFT3/8gmLwUPOnqhb030pF6wQ8DcvfDd/t16Oq+6n1WDx3e6ABBbQrutjYYWI1l1aPa37uia6+esGBSEX+3aUUyWydFHe8tDHSy1ilp6nV4Ax0EtUi5m6jUfwKr4se6OtgWbP4AAGEQSURBVLTGmjJt8l1t8DT7sCb/VAVRs41uMtTUsrBy6IcuygkGAPhd0KunBZjUeDSZgUWdtA68twbCybreCmbvwMdLiNQjX2PL6QqMnt1Dka806oHV0K9kWGj0NT66PId/aLSjtI165ODg+M1QFb+/LTxrTNodhUcZMbh5MxoZWbHYO9XmJQpiANeFSzCcdx17v7yB4sY5Qh0Kbgbg8xv94PWOaf0xFgwjB7HNJhdEiuTHsmArHiGruAq5GY9RVZuH8AvRKGRqUFGYiNiUVjNuMCzbOEgrIMWkrnFkVvybZRuEYsGwpJiIQTEJCt4ZiHs1gJHdu/DbMBN2JoYw0mtr3SwqHmWhuCoXGY+rUJsXjgvRhWBqKlCYGAsVogNgUZqTXb/hkUXB+fNI6ueDj90UjwhZhgU1tG86HgvmdEd2oCfGzN2CH4LP4FiAN9ZEmaKHoAbxX32Edbd7Yu2R7XBvr6hdHHIO1wrbpk8AAFuKnOz6c2wBzp9PQj+fj+FmBPCtbNDZIB8xV++huOQBLu0/itsiOUrzHqOsko/xC+age3YgPMfMxZYfgnHmWAC810TB1N4ak+dNwhtZh7HC7yJy6wBpzj2klDAQ5+egqEJPfdkeyneKGeQF70Sgwmh4128DZtqZwNBID6bjF2BO92wEeo7B3C0/IPjMMQR4r0GUaQ/FpI0AuUzDREWDP2juey3AsGCVJmAEgJrdGSaFwzTekWphYwAsw0BObLO7iAQCKWJDcUUL/2XygrEz8B5qYAS7d/2wYaYdTAyNoAcejIwMgaeFKCgvRWxkEmoAEORo6r4mn72DYrd5mPRGFg6v8MNFhcFwL6UEjDgfOUViFKkt23Z/bzdpKXz6i3FmTxAy6hTni66FIW/4Unw80lBRXIvteJ0mY96kN5B1eAX8LuaiDlLk3EtBCSNGfk4RKmoAsAxYammjujoZqK4O0oZjGmMNDYI0+5FlqtF3tdmUZ2QEQzxFYUE5SmMj8Wi4Bh/W4J+qYEtz0BTK53E+qR98PnarfwWgcj/aYdJSH/QXn8GeoAzFWyfYIlwLy8PwpR+jwQyAAE4LF2Ok6BTO0GRM6thwXLMe1MemPawna/K1Cug/j39osqOeOj2yEF3bDM+/b8PNZnN3Dg6O3xDlRcavBwyV3f6eFo8bSA6Ow8n9nfHkPnokjZv3JV3Nbdq+IEk6Q37uVsTXF9Ls3ZcpNeMWBS0dRpY8E3LyPkSReXl0dulg6mzennqO8qb9N38kL1tL6jFpJ0UrdnY0UpV2njZNsCG+oAfN2HGBknMS6b9bp1A3voB6TA+g/91/TPHBG+ldGz4Juk+ngJAkSrywiSZ04ZPAbhptv5RBJL1NfsN6kuM4L/rcfwutXbyYAm4U0dM2151Jz/LP0tLBncm8fU8a5b2fbv7oRbaWPWjSzuj6TSnNkCXQhoEGZO06i7w/WUGfffIBTff8gi7kKF7gX5V2gTZN6EJ8gR1N236JMmqJqDqNTvi6kX17QzKw6EbDFx+llGqi2qh1NMCIR5bOc2jVmjW0Zs0a+nz5fBr19t/pdGW+zvokIpIlbKCBBtbkOsubPlnxGX3ywXTy/OIC1YtFRE8pctt46mZhQTZOM2nnzcu02rkXjZ7vTyfulBFRNaWd8CU3+/ZkaGBB3YYvpqMp9TuYGDHF7fMiV9v2ZGnnQpM/9aeFrt1p6Jwv6Eh0oeayLZDSbb9h1NNxHHl97k9b1i6mxQE3FBuBiKg67QT5utlTe0MDsug2nBYfTaFqRkT3Tq+jcdZ84tt40PrT8VSmvE+LFJvnVPmD4lINfY+IovObJpANX0A9ZuygC8k5lPjfrTSlG58EPaZTwP/u0+P4YNr4rg3xBd1pekAIJSUq2bg4ic74uZMVX5+Es3fT5dQMuhW0lIZZ8sjEyZsORf5KaUr+K73tR8N6OtI4r8/Jf8taWrw4gG7UK0KeeYT+LmxPHYXTaNeVSDq9bhxZ8/lk47GeTseXEUNEjEafZUgct4+8XG2pvaUduUz+lPwXulL3oXPoiyPRlJ+nqawSWvydiEiWfZ7WT3EmpzGzadE/PqJ5Pl9TeDFDpKvtiIgRx9E+L1eybW9Jdi6T6VP/heTafSjN+eIIRT9KoQubJlAXvoDspm2nSxlVlHXjX7R0REfi8axo7OpA+nf0E8WGRpWxxpDo3mlaN86a+Hwb8lh/muIbBVHjuxJtNs0nkmfSkb8LqX1HIU3bHUOV6nyYtPlnc2SUsGEgGVi70izvT2jFZ5/QB9M96YsLOSQnTf2QUfb59TTF2YnGzF5E//hoHvl8HU7FrRoQ038XTqIt95W3pqnRQ8NZdf3S4muFzHP6h0o7atKjnDL3TaA3O0+iA1ncx1Q4OH4P9Kj5rSOOvybyRGx0GYpzk6Nwd6vTn2aDhzxxI1yGnsPkqLvY6vRnkYrjledP6u+vL3IkbnTB0HOTEXV3K7hQ5uDg+LPy8lYtcLwGtGGx4+/Jn1QsjlcdzrF+bziNc3Bw/JnhJsUcgLwc5U8ZVIjEjV+M+jMgLy/HU6YCIvGfSSqOV54/qb+/vshRXv4UTIUIXChzcHD8meH7+/v7Kx/k+AshzcS1Y1dR8tYg9DUrRy51wYAe7Vu9ceL3Rpp5DceuluCtQX1hVp4L6jIAPdr/0VJxvPL8Sf399UWKzGvHcLXkLQzqa4byXEKXAT3AhTIHB8efEW5NMQcHBwcHBwcHx18ebvkEBwcHBwcHBwfHXx5uUszBwcHBwcHBwfGXh5sUc3BwcHBwcHBw/OV5vSbFNRm4dngzPvIYgeHDR2DUuEmY4emJGe/NwNwla/DP0zEo+IN3PzN5v2C3lwveMO6Dz2N+A2HYbOwZbQTT/wtEEff+I47mSG9h/bDeGLUqFCVqfEOVf7LZezDayBT/F1jEvVJLBXVRmzCy9wgsv6hdP2zOQczsPRCzD6a36c0Xr7MNmJxfsPvDgbA0GoxtaX/cZ8p1g4Uk4QQ+c38Lxh3n4kyt8vlXFRbZe0bj/9s777AorvWPf7fAgnQCCKJSxPViR7B3iRJ/NoxRvFZUUBKDJZZYEhUsJOYajcarxNiiaEKuMVZM1CjGAqiIFBVFpAhIXYiwtJ15f38sdYFdsEXj+TwPz6Ozc868523nnZkzMzp67yGQTRyNouDXD9HFcTjWhz1V/YnxJqP6NY83nyI6Nt2CREYf0OGnFZuK0+jq3vnUz0KLjLt9REeS/t6vA5Ve/oSkkn/Rkmulqj+9EAqTIikqpVh1M+Mtp/TKYnLpvZIu1fnEW23q+mchJUVGEXOp+iilsE+7U89lFylP9ac6cJS2YwS1nxRETU9B/2wblPwxl2wlLrQ2rsmK+RvgKOWbwSQxmUT/+yfZozCJIqNS6E0YEpd1g64n/J2+8pSOTu9Ablui3wh9MRrPP+tKMQBADGMjAwgEIogqR6fTAr09t+DMic/wrweBmOn5Df7OCxIiY2MYClS3vjj0bJzQpZWO6mbGWw2HlOSWWHrID/2NVH+rTV3/1IONUxcwl6oH7jEetViEw+sGwkT1tzrIEcePwL7ASbBp8ivJ/tk2EOkZQO+NmY2EMDTQw0tM4X8PejZw6tIKr7+LFSH8m1XYd1+h+sOro+wOcrt9gwO+nd4AfTGawt/znuKSJFw8uAv7fr2MRL4F2tmZQEt1n2eGQ/KZ7fjhdguMW/QBOtToWNvaBa2SD2Lfr9dQ1nsORjlU/ihHekwEbsZnQ2BqCWOJunRXhqx7Ebgemw6FkRVMdaszuSL3Pq6HRyEhBzC2NIFOrSSvQF7CDUTEZkEguI+f98bAzvNDDG1ZMTsqcnH/ejiilI1hUrtxDXg8fXQHaWIzGMofIuL6A5QYWcG05v4laYi+L4e5uX514panIybiJuKzBTC1NIZEAKDgPq6ERiDuQQISEqr/HmbyMGtpBh2BpjGp0rBuAA6yxEjciElBsa4FzPRqVgVFSIl5BIW5GcRZcQiPzoHEylxlklTXHhqO3ZB95UiNTkCJuTl0CxIRGZkEhakVjLQBlGXiTngU0kUWsDRQ+S4tJ0Ni5A3EpBRD18IMtUTh8/EwIhxxOUIYaxVBRgYw0K7xO3hkRJ3DlVv3kfCEg1krM2hl3MTZy7fxIDEX4hYtYaKFRupEFXU6IAj0tCBPfdyA/tT7Z0laNO7LzWGuXx0bJRmxCI+8jzyBESyMdeoUCZwsEZE3YpBSrAsLMz3N7wIuSkN0RBQSi3RhYVSIlFSCUfFdnLtyC/cTnoAzawUzrQzcPHsZtx8kIlfcAi2VygIAyNNjEHEzHtkCU1gaS+rIUwmf/xAR4XHIERpDq0gGMjBAlYnqixMAkKcg5mEZzPQLEBOZBm1LM+gKAYUsG8VQICe3ofioaW8Rer4/HLa5z2bv+myAsizci7iO2HQFjKxMUTvk1PipJopSEPNIAXMzMbLiwhGdI4GVuV7t9Xbq+penIjqhBObmuihIjERkkgKmVkZQhtYdhEelQ2RhicrQ4tP/QOC+RHScPQt9EI+ImCyIzSygXyP05CkxeFhmBv2CGESmacPSTFcpT0M2awzPqL/y2z/iq98keH/ROLSvklFdjpIjJeYhysz0URATiTRtS5jVOlh9aM71z6STBsdcgrTo+5Cbm6OmizUmjvncOIReuom7DxKQkJgHrRYtYawlR1L4H7gWk4C0MhPYWjRTbQYAKMu6h4jrsUhXGMHKtEJ+NDAn8tkI2+aFKf5XodWuI0wV5TCysYCeAGryPACUICM2HJH38yAwsoCxjqqTNNF2+q3QrYsEiQnFNeZZBXLvX0d4VAJyYAxLE51/2PrUt4NXb7OiCGxwc4brzKXw81uGWUNdMNT/KgpV93sp6KHf0D4wogxcvhALAOAzzmCt9yIEhkbj+k+L0E86ACvP5da7bo/Pvoj10zzxn3PJyIrehtFSF/geywAPDokHp6PXuG9wO+cJrga4QdrPD9fkFQ3lMfhuqhu8dkchLeEEVvgG4n6NK9Vc4kFM7zUO39zOwZOrAXCT9oNfVeMa+6VewjavHrBpPwnbgvwwrFtPDH23NxylQ+B/pQDgZbh1eCmGObTBAL9LUC5345FxZi28FwUiNPo6flrUD9IBK3Eul0fZ3f1YHxiOtLx85OfnI+fGTniPHoflJ7MgEmoYkwoN6wZAfhi2eHpgWXAMUuKPY1H/9nDzv4Bsnkd2xH4sGOwA6fAAHN49G24jJmHqiK7o5B6IhEodNdhe87Hrt282cm4cxKJ3pWg7cA2Cj6zG5ImemDmuNxx7LcKZGwfw0cixmDFnPHo59sfqGoPOD9sCT49lCI5JQfzxRejf3g3+F7KV4yyLxlZPXxxKVaDkzh5M7vUBvk9SvZohhGnrlsj8YTbGeO/GHQUgMm0Fi/itmDz6EwSnlzdOJyqo04Em/anzT152C4eXDoNDmwHwu1S5gLIA1za6Y9TqMJRLCnBqbi84dh+MYSPGYd0FOYB8hG3xhMeyYMSkxOP4ov5o7+aPC1UHVEWOuH0+GDH1S/wWdw+Xvp4IJ7v2GPvdPfCmrdEy8wfMHuON3UploZVFPLZOHo1PgtPBAQCfgTNrvbEoMBTR13/Con5SDFh5Drn1HK4seis8fQ8hVVGCO3smo9cH30NpogbiJPsJwvbMx2AHKYau2YkvP+iHPr17YMaBrEbGx/Pbu34b8Mi+uB7TPP+Dc8lZiN42GlIXXxzLUA5arZ+qg89GxP4FGOwgxfCAw9g92w0jJk3FiK6d4B6YoNS3uv75PNw4uAjvStti4JpgHFk9GRM9Z2Jcb0f0WnQGNw58hJFjZ2DO+F5w7L9aRV+EzFO+6OPUB679OsHWcQy+uVEIPisMe+YPhoN0KNbs/BIf9OuD3j1m4EBuAzarz/B1eMH6azDGeGSF7cH8wQ6QDl2DnV9+gH59eqPHjAPIVe2jBppy/bPppKExKyC7dRhLhzmgzQA/VLlYE+JYqKuPorOfY8LISdiRZAFzHQDQwTuiK1i34iSKjPVVmwB8Ni6unwbP/5xDclY0to2WwsX3GDL4hudEPj8dubom0Od5lBblI79ADkWDeb5iHi+4ho3uo7A6rBySglOY28sR3QcPw4hx66BMV020nedOXKiYZweuu6x8NoBLxMHpvTDum9vIeXIVAW5S9PO7hjrpgPH6o7qe4uXC0ZPvR5KBAARU/wn0htF/H3OqOz8jpRQ6rw2JjT0ouEj1N6LSSwuorVhIVrNOEnGZdHjyYFoWVrF2kkumzQO1SctpFd0qV2nIZdAhDwdy255MHBFReSx9NdCUWkw/SoWKu7ShZzNy9ouhciIqj1hOHXW60qpb5URURJeXdCb7GcdIVtFV4clZZK1VuWZTQXc39KRmzn4Uo2xMyzvqUNdVt0hVBCKi0quLqZ2WFQ1ZfYYelxMV3dlFY61FpO28hm6XK+Xc7iohwwk/URERcZmHafLgZVQ9xM00UFuLnFbdouLYk3TyXsVRnl6lz5z1ybj/F3SrhIjUjkkFdbohGZ2eIyXHBaFVa6+KLi8iR20rmvjjE+JIQQ+/6kvahi40/1gilRJR/v8mk4WkH331UEGkqb26Y6u1L0fp37qSpFkvWh6aQQoiKo38nLpqGVHvT3+nx+VEVH6LPu8qIXvfC1RCRCQ7TXOkjrQgtEoSurzIkbStJtKPTzgqvbqYOnb9lMKKSenrQetoW1w9+iIF3VnXg3TaLaYrFaKVXllM7XR70xcPFEQadaKCOh1o0p9G/yTiMraTq8SQJvykDKjymLXUXb96/Wd55GfUWdKG5l1U7i87PYekjguoWk2XaZGjNllN/JGe1BPmT/9YQB2dltCVyngtvUqL/yWhjssjqJyIFHfWUQ+ddrS4Wlm0uJ0u9f7iASmIo8zDk2nwsjCqkJaSNw8kbS2neny1lK4u7khdPw1T6oJ7QkHrtlFcufo4KeeSafMgbdLtNJ9+z5JR3LkzdDsrrvHx8QLsrWoDLuMQeTi40fZkpULLY7+igaYtaPrRQo1+qhHFQ/qqrzYZusynY4mlRJRP/5tsQZJ+X5EyJDX0z6XTt64SatZrOYVmKIiolCI/70paRr3p098fK/V163PqKrEn3wslRJX607am0VsjKFdBVBizi8bbapHExZ+iy5X2GKStS53m/05Zsjg6d+Y2ZWeosVn1aOrlefX3195RpFO1plhTjHGUvHkQaet2ovm/Z5Es7hyduZ2rjFU1aMr1TdVJqboxE0cZ211JYjiBKlysyXFMRaG0QCohxyVXlfmSOHqyfypN3JlSz1g5yjjkQQ5u20kpTjnFfjWQTFtMp6OF6udELv1bctWxJq/TyqOon8fLKWZtd9J3WUvKdFVOkZ91JkmbeaRMV89ou4p51mTS/6iYiBR3N1DPZs7kpxSYIpZ3JJ2u9dQRjNeeV3ylmEdGcipKVL6hR6WpSHqsekXt5UCFhZCTEAbGJoD8Io6eScP9k5sQEBCAgC+DUOy2Bv7TnKGr2lAWgsNnJHBysVReXhd3wOKLuUjb5w49kRQ++y8hyNcWqRf34Mu9YZDxpSgu4YHCM9ixLxGdBg2GcUVXOna2sKq6OyOC1Gc/LgX5wjb1IvZ8uRdhMh6lxSX1XpUQ6upCR2SOPmNcYS0Gmjl6ws+7KygmFKGZPCA0gEGNe1/yi0dxJu0+Tm4KQEBAAL4MKobbGn9Mc9aFuMMIjGgnBvhcnPl0Bv7zeDA27l2MrhIA6sakijrd5J3Arh9T4dDFqWrtVbOeHnCX5uDkoRDkQwR9fT2IDLrCzc0O2gD0pG3RSliA/DwCNLVXd2y19hVCX68ZBNp26OZiCREAbakDbMRAq259YS0GILaFTQsBCmQyEIC8E7vwY6oDujhVSYKeHu6Q5pzEoZB8iK2lsEn+GqMHTMeGI3HQ8liJj6vvrTYBDTpRRZ0ONOlPo38CQgODWrdTFUmJSC0TQlCxTWxnh1ZIR1JSMYA8nNj1I1IduqBaTT3h4S5FzslDCMmv7kdJAU7tPIinPYfBufLuqsgIRvqNTU1yXDx6Bmn3T2JTQAACAr5EULEb1vhPg3OdIBbDWmqD5K9HY8D0DTgSpwWPlR+jvVh9nECoC11tIQxdXNHf3BjtXd3Q2fxfjY8PjWi2t6oNZCGHcUbiBBdLpZ7EHRbjYm4a9rnrafRTjYj0oa8ngkFXN7jZaQPQg7RtKwgL8qEMSQ39C/Wh10wAbbtucLEUAdCG1MEGYrRCt77WUIaWDVoICiCT1fBnkRW6u3aDqQjQ6zgTmz7pB0HMJfyZw0OoqwttoSFcXPvD3Lg9XN06Q+eSGptp4IXqT1OMQQhdXW0IDV3g2t8cxu1d4dbZVONtWk25vqk6UTdmQAgDgxrL7ZocxwCa9YXvx/2Qtv9rHMnkAS4Zwae0MHZ8q3rGKkPI4TOQOLlAKY4YHRZfRG7aPrjrNW1OVD+PK5CUmIoyoaBibGLY2bUC0pOgTFfPaDuhAQxq5CiR1Af7LwXB1zYVF/d8ib1hMvClxXimdMD4W6nrqy8VMRx6OMNCZVGS0MwZPdvVWnj5klAg4cYtZJEJXHp3Av80G7nFEji6L8Hy5cur/pYtGI12qstIc7OQU5KPvJpJvAohxMVR2Ortgz3pXTDTZwishMr9uNR7eJAPiMQNq1ooLkbUVm/47ElHl5k+GGIlRH1HqR8x2nRoCz2Uo7SUAAggqKxWwONpdi6KJY5wX1I9vuXLl2HB6HZQDpFHWrAvZu8uxYTtgZjVptI4DY9JFXW64TJT8FjOo6ysxruLxLawsRaiLF+Gv3jUkFeJQCSCAASeNLeXZTd8bE32VT0uBEIob2JUbYBQCCg/hM4hM+Ux5HwZaotiA2thGfJlfwGtZ+HA2Z3wMAjF+gnd0K7PfBxNaWC9gwZUZaupE1WeR/+yZM3+CYGgqgAGAO2eIzGseTzO//YIHIDSu/eQbOKKUQP1AS4TKY/l4MvKKpbvAIAYtjbWEJblQ/aXyizBpeNhUiHE2loNrgFWC/8U2bnFkDi6Y0kNGy9ftgCjVYMYQrSedQBnd3rAIHQ9JnRrhz7zjyKFa0Sc1BGu8fHRGDTau5YNOORm5aAkPw91Ta7ZTzXP07XtDQggEgkA4kGN6l+1PSAQCpT3Bas3QAhSk+eEMLe3g7GAg6JcuaV2l42wWYO8WP1pijGly9dxoGdANder9qpOJw4oaHDMSgSCysIRTY9jAIAI9tMWYrzOKXy9MwYlcQdxoflEjDRV3Q8Al4usnBLk5ykvOKjSlDlRfZ7XRs+Rw9A8/jx+e8QBKMXde8kwcR0FZbp6Vtup+LhQjOKorfD22YP0LjPhM8QKz5EOGH8jambCl4P+/63Dzvk98I5YoEy2Js6Yu/MLuFdepnqJ8Lm/Ycu+2xB1nIWPRxhAaNgCVs3uIXj3eciq9uKQGHIK0SoXrkXNW8NaNxMhP/2GvMqNfC5CAoMQX3AaC8esQO74b7F2kjMsKjMyAQJTM5iKSxB7Mwql1d0BIPA8ABTi9MIxWJE7Ht+unQTnmo0bhEA1clK5vAS8hSM6tlB9BEIIwxZWaHYvGLvPV48QXCJCTkVDAUARHwjveb/C8MPvsWWcFYTgIcvKhaKw4TGpok43Cc3boo0hh7gbN6vXV/FlKC0TomUXJ1hp8EBRC/XtW1o1fOwHeo23r2ZEaNG2DQy5ONy4Wb1SjC8rRZmwJbo4WYFSY/G4lSe2nr+HuBMr0DllB3zXn1OxuxKRWFRRZNSEQM9QQz+P/luYafLPugjN3bF5hyck57dg7eZN2HBUF0tDDsDLVgSIWqBtG0NwcTdQrSYeZaVlELbsAidVgwuMYWIEPL4RhkcNjV0khqieEwIiDhAaooVVM9wL3o3aLh6CU3WMzCE19jFaeW7F+XtxOLGiM1J2+GL9uXKNcVKHJsQHXrC9ARGat7aGbmYIfvqtyuLgc0MQGJSA5hr8VEPIaUBzHDxf/9XIs3NQ3LorujWvr0fNua1hXqz+NOUoVZdvGo3N9dCgkzi80+CY46vWilfR1DiuxMgNC+Z0xt1dX8B/eyQ6TBmMeh+vEzVHa2tdZIb8hGpxeOSGBCIovqBJc6L6eVwIc/fN2OEpwfkta7F50wYc1V2KkANeUKarF2O7wtMLMWZFLsZ/uxaTnC2qTsrql5jxOtNIk79AhFYYuekqHsaH4cKFa4hPDMfWMdYvUBBCWVnd1+IrMi5g/UQvHCh5Fxv2fY7eOgD0hmLGJDskBXpg0GR/fB98BPsDvPDpVT3Yq15qMBqOGRNa4cmBOXh/wX8R/EsQNs31RLC4D+wLHyIxsxAp8Y9QWJKK0BPXkMHJUZARheuZQzB1pBkSdy/EipMpKEMpkiNjkcXJkJb8BAWFBXiYmInClHg8KixBaugJXMvgIC/IQFS48mHAOvDZSE6qeDSRT8fx49Ho6PMRhugAAA+OJ1BFRaM3dAYm2SUh0GMQJvt/j+Aj+xHg9Smu6tlDLL+BL2Yux5U2y7B3vWvFK6VkCDl2Hk8LGh5TeKzKY5FqdONgOhLzfDpBdmQz9sRXfAziyVlcTO2LeR/1hwQ8OE4B4msUPUQA8eB5HjDS0F7dsQ3V25fjeeVxqgZCykmoKpMp/83zyinDaOQ8+HSS4cjmPVCKwuPJ2YtI7TsPH/WXgEsNxsbASMihA9v/W4HPx9uimaTuWxkAESysLaGdFobfIzORdfcUduy7glxFNlIf5eBpiQadqKJOBxr0r2s+Sr1/ygHwHHiqUSTLTmP56lSM3bIey3wXwm+jH6Z2rTyrNcLIeT7oJDuCzXvilQ+h8E9w9mIq+s77CP0llUJXILTAe+8Pgm74F5j80Q78FnETf+zbiz8yqqdpkYU1LLXTEPZ7JDKz7uLUjn24kqtAduoj5DwVYeiMSbBLCoTHoMnw/z4YR/YHwOvTq9CrE8QcUoM3IjBSDujY4v9WfI7xts0g0RGojxMoXUNRXl1q8U2JjxdhbxUbGA2fgQmtnuDAnPex4L/B+CVoE+Z6BkPcxwGmGvwU8uvYNn0k/u3/GyqeK6sNz4FTEPgaRbxSHB7KkNTQPzgoQ6tG56TspDq0CAQeFaFVsU2OgvyKU7OSGOw++BDvfT4fvStuIhIUqGEC9TbTMMbn0h8AjuMq7APNOQqodKBaxbr8+jZMH/lv+P+WUWOrCmpzfdN08o6aMYsA8BwPqsqHTYzjKsRo770AI8t/xpa43pjirBqDlRhh+IwJaPXkAOa8vwD/Df4FQZvmwjNYjD72hWrnRKGODiT4CxnpecgOv4xogfo8Lzu9HKtTx2LL+mXwXeiHjX5TUZ2uns12ynkWypgFj4KHicgsTEH8o0KUpIbixLUMcPICZESFI/avXJz188C/112oUbQzXltUFxm/0RTdo3N7/Gi0jZgEWlbkPPrfNMNrFnl6jKSBfQaTx5Lv6HK6ysr3ojt00HcIOZhISNuwNfWdvY9i63lAj0i5b5DvEJKaG5CRtQtN2vQnZXFExKXR0Xk9yNLAhNoM8KIdF34gTxtjsh+5ka7lE3GyCNru2YtsTIzJ1mUUfbxmFvWy602TPttL1zLKKe3oPOphaUAmbQaQ144L9IOnDRnbj6SN1+p+ZaH81ufURduKek3workLP6G5U8aSx2cnKFlBRFRId06spuEtRCS2daf1p+KJiKjozkHyHeJAJhJtMmzdl2bvi6UiKqGryzuTjtCYnCctpk8//ZQ+/XQpLZg+gP7178NUpGFMdWhIN0RE5Ul0fOVocnYaRBO9P6SZU33o69BM4ogoP/oIrXC1IJGWlCZuOk1x8X/Snnl9yFjYjJy8dtHlNE5te43HbsC+hXeO0+rh1iQS29O4L09QTHIU/bJ2NLUWicl+bAD9evsR3QheRf9nLSKx3VgKCEmgUiIqTzpOK0c7k9OgieT94Uya6vM1hWYqD1Z6ZQX1adOV3vVcSmv8l9Hs2QF0vt4nUojor8u0bmhrMjS0JqfxG+nC6SXk3HYgTV9zkC5c+lmzTlRRpwMN+lPrnw9j6cTq4dRCJCZb9/V0Kr6EuLRDNMVGQgKAIBCQUEuHDC3a0kCfA3S3lIionJKOr6TRzk40aKI3fThzKvl8HUoVaqqLIp1+Xz2KHM31ydB2MC0MDqHVLrpVD9oR/UWX1w2l1oaGZO00njZeOE1LnNvSwOlr6OD1HCIqojsHfWmIgwlJtA2pdd/ZtK/eIC6lKyv6UJuu75Ln0jXkv2w2zQ44X/XQUL1xwuVS5OHl9K6ViETWbrTy8A3KaUTM1+F57P2grg2IiIruBJHvECmZGxiRtcsk2vRnVpVN1fkpl7aXxloak5lFX/KPUX0SKJ+ij6wgVwsRaUkn0qbTcRT/5x6a18eYhM2cyGvXZVKGZEP9F9Kd46tpuLWIxPbj6MsTMZQc9QutHd2aRGJ7GhvwK91+dIOCV/0fWYvEZDc2gEISSomKHtDxdVNoYPcBNMZzLs3z/ojWnnhIxUTE5UbS4eXvkpVIRNZuK+nwjZyqcdZrM41jVPKs+iu+d5JWuVmSSGRD7uuPUexf6mKMo9zIw7T8XSsSiazJbeVhuqF0IErbO5Ysjc3Ioq9/LbkqUZfrn0Unyt/qH3PhnRO0engLEoltyX39KVK6WBPjuIoSCl3gTKO+S6vnAbuaFNGdIF8aIjUnAyNrcpm0if5UTqjq50RFAu39t5RM3pGS+6YwekoN53kijtIOTSEbiYAAkEAgJC0dQ7JoO5B8DtxVPpzbZNvVmGftxtKG0/HEpR2leT0sycCkDQ3w2kEXfvAkG2N7GrnxGuUrEmj78OZkOXInJdbznDTj9UJAVH1djPH6o4haBZfexzDq6k2sdWroLJzBeHnwacfhH/gU73s6gc+RoaBQjkJZOm7/tB8Z3iHYNrTBy0iNg7uDdb1c8NPQUNza0F3D+lDGs1GGyys+wk2vQMy3r+9W/D+BN2CMZZex4qOb2PD9fNVf3txcz6dgp+d6mH8TiHGav2jzkuGRdtwfgU/fh6cTjxxZAQrlhZCl38ZP+zPgHbINz5uuGP8sXtyqBcarpZ5bggzGS4dPwwHfBbht/x4627dH1x59MXDIUIwYNx5uLt3Roc6SBcbrB4/cq9/h5DtTMO11LRafmzdgjHwurn53Eu9Mmab6S23ekFzPFeZBVsKj8OoOnLWaghF/e0EM8GkH4LvgNuzf6wz79l3Ro+9ADBk6AuPGu8Gle4e6yyQZbz2sKH7DUOTl4S+uALmyuuumGYyXjxjGlrr4Y35PDJkyHyv912Pd6qWYM/VD/GI/G15Vby95DhQ5yClQoDD/Lw0PTDGeBV4Wgyh+JNYsGtSIT1O/mbz+Y+Qhi4kCP3INFg2qX8I3KtcrorF+kBUsLCzxr3l5mLaw7+vx+WOxMSx1/8D8nkMwZf5K+K9fh9VL52Dqh7/AfrYXXkS6YvyzYMsn3iBKE85i38+XkFSggNjYFoMmzICr/at4lR2DUZNSpIWfxPGLMUiXi2Bi0w1Dx7yHTu+8gBmGS8OVA4fwW3wuyrVMYD/EA96DbFX3YjD+0bx5uV6B5N92IijWDMOmTYCL+Wt0va00DeEnj+NiTDrkIhPYdBuKMe91wotIV4x/HqwoZjAYDAaDwWC89bxGp3MMBoPBYDAYDMbfAyuKGQwGg8FgMBhvPawoZjAYDAaDwWC89bCi+AXAP01ETEL+a/fmnKLkW7idWuOb7k2hKBm3bqfW+O7938TrIgfjnwn/FIkxCch/3YL3dacoGdH3sl+7nPdawslwP+YRilS3M+pHNSZf+RzA42liDBJYUni1vHI7188/qyiWx+Ps92swY1g/9O03AK6jxmGcuzvGe3+O3VcyXvzrnbhU/LHJEz3sOsDju3svvv/ngU/Cd9N6o4/3fjxpcmzzSPpuGnr38cb+pjd+gbwucrxmFPyKD7s4Yvj6MDxV/Y3RSDik/rEJnj3s0MHjO9x7rYL3VVCAXz/sAsfh6xHWFCfisxC22xcDHdph2MYw5ed/GQ3AIfmPTZjWzQ6dZwUhueYnrd9CSv9ciT7tBmDxmawGTqbqi8lXOwdwqX9gk2cP2HXwwHdvXVJ4xpxQCx7J341Huy4T8d29pmSHV2tntah+4u7Np5COTDYjkelkOlJMRMWP6Pi8bqSn3Zo+2JeguvPzU3qZPpFK6F9Lrik/GfkaUZgUSVEpxaqb64GjrBvXKaHmJygLkygyKoUa0/ql8rrIUQmXRTeuJ9Df+bXOp0enUwe3LRT92ijlTaWULn8iJcm/ltC1Vxq89cTbq+bpUZrewY22PIsTKRJoY18JNZ9x/PWJy9eWEvpjri1JXNZS3N9p77+dUrqy2IV6r7xE9X0FvZp6YvIVzwGllz8hqeRftOSVJoU3PCdUwqXRjhHtaVJQUtPnyFds54b4Z10pBpQfFzDShwCAAAB0bDFq/ed43+Qxjvp/o7rz8yMyhrGhQHXra4GejRO6tGrEK9SLwvHNqn24X/PEWM8GTl1a/f0vYH9d5KigKPwbrNp3/2+8K1CGO7nd8M0BX3R6XZTyxiKCsbGhMk+8SuqLt1dM2Z1cdPvmAHyfxYlEBjDQe+Vae0MRQc9A7x92S/YZ4FKQ3HIpDvn1h5Hqb7WoJyZf8RwgMjbGK5/S3/ScUIk8DvyIfQicZIMmvwb6Fdu5IURr1qxZo7rxpVOShIsHd2Hfr5eRyLdAOzsTaKnu88xweHT6WxyMbY3xi96HoxiAsBRRh79HaHorfD69Lc5duYX7CU/AmbWCmVYGbp69jNsPEpErboGWJtWSyNNjEHEzHtkCU1gaS2oFqiIvATciYpElEOD+z3sRY+eJD4e2rHKEhtoWpcTgkcIcZuIsxIVHI0diBXM99SmzTl+FD3H1QjhiHyQg4WEaSo2sUHrnPK5GP0BivgStrY2UcpSkIfq+HObmypMEgEf+wwiEx+VAaKyFIhlBryQS27ymwP+qFtp1NIWi3Ag2FnoQoARp0fchNzeHvgAA5EiJeYgyM30UxEQiTdsSZrrVcvN5d/Fn6A3ceZCAhIeZ4M1bwkynEAlXLiI8LgGZvBlam+kAilzcvx6OqIQcwNgSJjrVfchTYvCwzAz6BTGITNOGpZkuhHXkABS593E9PArKLkxQ3UXd8RkYqHnhfVkW7kVcR2y6AkZWpqgejgK5968jPCoBOTCGpYkOhOCRHbYNXlP8cVWrHTqaKlBuZAMLPQEAOdJjInAzPhsCU0sYS2pn1JKMWIRH3keewAgWxjp1ijBOlojIGzFIKdaFhZlerWRSVyf6aNWtCySJCSh+QTrhc+MQeukm7j5IQEJiHrRatISxlhxJ4X/gWkwC0spMYGvRrFYbgMfTR3eQJjaDofwhIq4/QImRFUxr2LPptq5P72pokv1qoMhDwo0IxGYJILj/M/bG2MHzw6FoWaH4hnVZH2XIuheB67HpUBhZwbRGTNTXD58d1kC8AZCnIybiJuKzBTC1NEYtNyrJQGx4JO7nCWBkYQyduk6ExMgbiEkphq6FGfRqOxFiHpbBTL8AMZFp0LY0g36rbugiSURCsTnMK51Ik96qkONm0GZcNBiPBWPskBMbhugcHViZ1yz+6umLz0Vc6CXcvPsACQmJyNNqgZbGWpAnheOPazFISCuDSWsLNKsUh89A1LkruHU/AU84M7Qy00LGzbO4fPsBEnPFaNGyYt4oSkHMIwXMzcTIigtHdI5ERRYVGrO/Wn2mIjqhBObmuihIjERkkgKmVkbQBlCWeQfhUekQWVjCQAwAPNL/CMS+xI6YPasPEB+BmCwxzCz0Uf2F4YZza53cXy0F8Ayxy2dENWr+e5Z5qizrHiKuxyJdYQQrU93a+iQB9LTkSH1cjz6hKSbrzgFACTJiwxF5Pw8CIwsY1w0IyBIjcSMmBcW6FjCrc0BVFMhLuIGI2CwIBPfx894Y2Hl+iKGVSUFDjq/NW5YTasapqCfeH26L3GeK0/rs3LAum27jxlFnfC+doghscHOG68yl8PNbhllDXTDU/yoKVfd7gfBZ1xGZxKFZt94QmrZGy8wfMHuMN3bfUQAiU7SyiMfWyaPxSXA6OCiNfGatNxYFhiL6+k9Y1E+KASvPIZcHADlivpsKN6/diEpLwIkVvgi8X2OxWANtszMjsH/BYDhIhyPg8G7MdhuBSVNHoGsndwQmNLDYrIG+ciVmsFBcxobJIzFm9SWQgRaaJQdh0foLKDExgZiX4dbhpRjm0AYD/C5VLFwvQ/RWT/geSoWi5A72TO6FD75PRE56LnRN9MHzpSjKz0eBvAyyW4exdJgD2gzww6USHllhezB/sAOkQ9dg55cfoF+f3ugx4wBya4gq1HsHknv/xaxRY7A+0hgt9IQAmqG5fgQ2b7oBsWkzcIkHMb3XOHxzOwdPrgbATdoPftfk4LPCsGf+YDhIh2LNzi/xQb8+6N3DEzsv1JQDADgkHpyOXuO+we2cJ7ga4AZpPz9ckzc0vqQGrujyyL64HtM8/4NzyVmI3jYaUhdfHMvgAS4RB6f3wrhvbiPnyVUEuEnRz+8a5Hw+0nN1YaLPgy8tQn5+AeQKgM84g7XeixAYGo3rPy1CP+kArDyXW7FmrgDXNrpj1OowlEsKcGpuLzh2H4xhI8Zh3QU5gHyEbfGEx7JgxKTE4/ii/mjv5o8L2bxmnQxch8tleCE6Eerqo+js55gwchJ2JFnAXAcAdPCO6ArWrTiJImP9WvtzqZewzasHbNpPwrYgPwzr1hND3+0NR+kQ+F8pUO7TJFvPwIGsBvRe68iVPIP9KlrKY77DVDcv7I5KQ8KJFfANvK+MeUCDLuvCZ1/E+mme+M+5ZGRFb8NoqQt8j2WAb7AfHvl14k0BgEfGmbXwXhSI0Ojr+GlRP0gHrMQ5ZcJBwbWNcB+1GmHlEhScmotejt0xeNgIjFt3AXIA+WFb4OmxDMExKYg/vgj927vB/0I2eD4LYXvmY7CDFEPX7MSXH/RDn9494LnzAg4vHQaHNgOxTulEGvVWL2WP8OPCCZjsMxtjnDph7K6HSl021JdQF/pFZ/H5hJGYtCMJFkpHg847IlxZtwIni4yhX3NGEpqidctM/DB7DLx334ECIpi2skD81skY/Ukw0suzEbF/AQY7SDE84DB2z3bDiElTMaJrJ7gHJtSwawV84/ZvWJ95uHFwEd6VtsXANcE4snoyJnrOxLjejui16AxuHPgII8fOwJzxveDYf3Vtv6FMnPLtA6c+rujXyRaOY77BjUI1ubWh3K+y3LKpsatp/ivPfpZ5KhsX10+D53/OITkrGttGS+HiewwZFbI2qM+K5g3HJK8yF1U0KLiGje6jsDqsHJKCU5jbyxHdBw/DiHHroEyrYdji6YFlwTFIiT+ORf3bw83/ArIbWqoqj8F3U93gtTsKaQknsMI3ELWndHU5vjZvZU547jit384N6/IZbNwUVNdTvFw4evL9SDIQgIDqP4HeMPrvY05152ekhM5/ZEtivd608MBROhq0iby6v0NG/5pI38UoV6so7qyjHjrtaPGVijVDpVdocTtd6v3FA1IQR5mHJ9PgZWEVa4Q5St48kLS1nGjVrXIquryEOtvPoGOyisMVnqRZ1loVa4rVt1U8/Ir6ahuSy/xjlFhKRPn/o8kWEur31cN61t+o74tIQY/2uJOldlvyOX6ZNk3/iIJr6pDLoO2uEjKc8BMVERGVXqXFHbvSp2FKHXBPgmjdtjgqJ47Sv3UlHWsvOl1S1ZgytruSxHAC/VRUeexBpK3bieb/nkWyuHN05nYu1bFYeQyt7a5L1jOOVawb4yh971xaEvKUiBR0d0NPaubsRzHlRFQeQcs76lDXVbeonIi45M00SFuXOs3/nbJkcXTuzG3K5VTkUNylDT2bkbNfDCm7WE4ddboq9dHg+OrCZRwiDwc32p6sHEF57Fc00LQFTT9aSIq7G6hnM2fyUwpJEcs7kk7XVXSrnIi4dPrWVYesvU5TCRERl0mHJw+mZWEVfsQl0+aB2qTlpNy/PGYtddd3obUViwnLIz+jzpI2NO+icn/Z6TkkdVxAoZWLqIou0yJHbbKa+CM94TToxGQS/a/4xemEikJpgVRCjkuuKsdGHD3ZP5Um7kypa2ciKr26mNppWdGQ1WfocTlR0Z1dNNZaRNrOa+h2edNtnRWnRu8qPLP9ii7Tks72NKM6eOnkLGvSqly/qE6XqnAZdMjDgdy2Jyv1Ux5LXw00pRbTj1Kh2n7qxhuXeZgmD15G1W60mQZqa5HTqltUXh5Da7vrk8vaOGWOKI+kzzpLqM28i8q8IDtNc6SOtKDaiejyIkfStppIPyqdiDYP0ibdTvPp9ywZxZ07Q7dzOeIytpOrxIQm/a8iJ6rTWx2yaKebDhn0XkmhWRwRPaVfp1uRzsCvKYnT1FcRhS6QksRxCV2tHP+T/TR14k5Kqc/RFHdoXQ8darf4SkUeLKUri9uRbu8v6IGCiBQP6au+2mToMp+OKZMq/W+yBUn6fUUP6yZVzftr1Gc6fesqoWa9llNohoKISiny866kZdSbPv39sdLetz6nrhJ78r1QUjV+bevRtDUilxRUSDG7xpOtloRc/KOpvN7cmk0ZanO/Ck2MXfXzHzV5nso45EEObttJGY7lFPvVQDJtMZ2OFjZCn5piss5cVE4xa7uTftUa7XKK/KwzSdrMI2ValdHpOVJyXBBatTa16PIictS2ook/PqlHH0V0eUlnsp9xjKqn9FlkrVWxplhDjq/F25wTnjtOVeysTpdNtnHTeMVXinlkJKeiROXD0lSaiqTHqtevnhNta7TvbA3T5l0wdcd1JMcehnfHxqxWkePi0TNIu38SmwICEBDwJYKK3bDGfxqcdQtxZsc+JHYahMHGFbvr2MHWqvoWS8NtAZG+PvREBujq5gY7bQB6UrRtJURBfh7qfmtbfV+ACLbTt+Kr0UXYPckbCR+sxXjrGuYUGsCg+h4EILaG1CYZX48egOkbjiBOywMrP25f4xZeTYQwMKhccqH8v66uNoSGLnDtbw7j9q5w62xa9zaDuD1m+bwL+dFABKfxAHcfh8ObY8IQfQAiSH3241KQL2xTL2LPl3sRJuNRWlwCHoBQVxfaQkO4uPaHuXF7uLp1hqlQRQ6RFD77LyHI1xapF/fgy71hkPGlKC7hmzQ+WchhnJE4wcVSOQJxh8W4mJuGfe56EEl9sP9SEHxtU3Fxz5fYGyYDX1qMkvrOQOUXcfRMGu6f3ISAgAAEfBmEYrc18J/mDF0AiqREpJYJIagYgNjODq2QjqSkYgB5OLHrR6Q6dIFTpVs26wkPdylyTh5CSL56nVTp/gXpBM36wvfjfkjb/zWOZPIAl4zgU1oYO75VXTtX2EtHZI4+Y1xhLQaaOXrCz7srKCYUoZmCJtva/F+N1/uz2q/wzA7sS+yEQdXBCztbq+rlKup0qYosBIfPSODkYqnUj7gDFl/MRdo+d+g1pR8A8otHcSbtPk5uCkBAQAC+DCqG2xp/THPWBRRJSEwtg7DaiWDXCkhPSkIxgLwTu/BjqgO6VDsRenq4Q5pzEoeUTgRdbSEMXVzR39wY7V3d0NlUCKGBQa2rsur01hDN/tUTPcyFAHTQurUFkC+DjNfUVzP09f0Y/dL24+sjmeDBITn4FLTGjker+hxNEyJ96OuJYNDVDW7KpApp21YQFuQjr25S1bi/Zn3qQ6+ZANp23eBiKQKgDamDDcRohW59rSEGILa1QQtBAWSyagFEVt3h2s0UIuih48xN+KSfADGX/kQOX19u1cEltblfhSbGriaaNk/JEHL4DCROLlCGoxgdFl9Ebto+uOtp1qfGmKwzFymQlJiKMqGgYpsYdsqAgDKtnsCuH1Ph0MWpam1qs54ecJfm4OShEORX9VNB4Rns2JeIToMGo3pKt0X1lK4+x9eC5YSG0RB3deysTpdNtXETeZaYeQ7EcOjhDAuVpR9CM2f0bKdm7eezIJDgHWl3DHB1xQBnOxg1drkJ/xTZucWQOLpjyfLlWF75t2wBRjtk4N6DfEAkrl9x6tq2EwOCykCuQCCCSAAQXzfVaOwLAITWGD7RDdZcIi78HqniDAIIKoMGAIStMevAWez0MEDo+gno1q4P5h9NqXuLsQKBqqx1VrPVhxBWE3wwzuACAnfHoijiRzzsOBlOFaYViosRtdUbPnvS0WWmD4ZYCWsl2fqOUFsOIcTFUdjq7YM96V0w02cIrIQVPTR6fBxys3JQkp+HGnNWNUIxiqO2wttnD9K7zITPECtUHkIV/mk2coslcHRfUm2f5cuxbMFotBMD2j1HYljzeJz/7RE4AKV37yHZxBWjBuoDXCZSHsvBl5XVeC+jGLY21hCW5UP2lzLzNKSTal6ETgBABPtpCzFe5xS+3hmDkriDuNB8Ikaaqu7XEGK06dAWeihHaSk13daN1vuz2o9D6r0HyIcI4nqDF+p1qQKXm4Wcknzk1S9Eo/sBeDzNzkWxxBHuS2rE+fJlWDC6HcTaPTFyWHPEn/8Nj5ROhHvJJnAdNRD64JCZ8hhyvgxlNV7uKba1gbWwDPmyv5S3GusoG3VzUYN6axwioQjgFCiH5r5E9tOwcLwOTn29EzElcTh4oTkmNt7RVBBUnXRW/l+kTKr1FHDQsH9j9KnaHhAIBcp7ntUbIAQ1cHwAQnPY2xlDUKkvVQM1JvfX4nljVwVV31A3T3G5yMopQX6erJ7xatKnDMkaY1J1DtBGz5HD0Dz+PH5TBgTu3kuGiesoKNNqCh7LeZTVPiBsrIUoy5ehIq1WwaXeg3JKr18ATTm+JiwnqEM1burGaU07q9NlU23cVOr3hJeI/v+tw875PfCOWKBUjIkz5u78Au6Vp2mvApEYIhBUY5yIA4SGaGHVDPeCd+O8rPo3LjEEp2IMYWYqRknsTUSV1mwJEM+rbxvdxCvhjeiLT/sf1v7WHQf2eaB410dYFpJX7zonAACXitjHreC59TzuxZ3Ais4p2OG7HudUxvHc6A+Dj6cUcXu/hv/hAgycaF9x1l+I0wvHYEXueHy7dhKcLSozSl2nb5DC01g4ZgVyx3+LtZOcUauLRo9PhOatraGbGYKffsur2srnhiAwKB4FpxdizIpcjP92LSY5W1RdVa1PSqFhC1g1u4fg3edRbSIOiSGnEK0AhObu2LzDE5LzW7B28yZsOKqLpSEH4GUrAkQt0LaNIbi4G7hZtUiLR1lpGYQtu8DJqpGh+UJ0UoGRGxbM6Yy7u76A//ZIdJgyGKqP19WGQDUcrlxeAt7CER1bFDfZ1oWN1vuz2k8AUzNTiEticbNu8CrjRp0uVRA1bw1r3UyE/PQbqqTgcxESGIT4gsb3Awhh2MIKze4FY3ftQEfIqWgohOZw37wDnpLz2LJ2MzZtOArdpSE44GULEURo0bYNDLk43Kh2IvBlpSgTtkQXJ6tGJ/jG618zmvsygtuCOeh8dxe+8N+OyA5TMLhBRxNBLKqnICNq4OTueXhx+lSPHNk5xWjdtRua19dhI3J/HZoSu+rmv6Yiao7W1rrIDPkJ1eHIIzckEEHx0KDPFjDTFJN1EMLcfTN2eEpwfstabN60AUd1lyLkgBeUabUt2hhyiLtxs3rtK1+G0jIhWnZxgmpaFZiawVRcgtibUagtAUE5pavP8TV5u3PCi41TdbpMaN40GzeV52z+DAitMHLTVTyMD8OFC9cQnxiOrWOsX6ggpWXloPJSlNYfVRBZWMNSOw1hv0ciM+suTu3Yhyu5CmSnPkLOUxGGzpgEu6RAeAyaDP/vg3FkfwC8Pr0KPQcrjJo6EmaJu7FwxUmklAGlyZGIzeIgS0vGkwJBw23txeA5DgriazgOgUDg+foSgJ7avlB2F4Gr/0Tv1XPQ74P/YMvEMuyduxjHMyt74sHxpCzWoSyQgjcGIlIO6Nj+H1Z8Ph62zSTQEQihoyMB/spAel42wi9HQw6A53hQrcREgKK8zkNadRHDadZs9M89hCM0CiPfqdjMF+BhYiYKU+LxqLAEqaEncC2Dg7wgA1HhsQAAggLlKgeoKQdf8BCJmYVIiX+EwpJUhJ64hgxOjoKMKIRHxzcwvtr9AYDR8BmY0OoJDsx5Hwv+G4xfgjZhrmcwxH3sUfgwEZmFKYh/VIiS1FCcuJYBTl6AjKhwxMp1oFRVOvKyw3H5YV/MmGSHpEAPDJrsj++Dj2B/gBc+vaoHezEA2WksX52KsVvWY5nvQvht9MPUrpVnf0YYOc8HnWRHsHlPvPIjCPwTnL2Yir7zPkJ/iXKvhnQC4kH8i9OJEjHaey/AyPKfsSWuN6Y413dVqgZ8NpKTKh6R5dNx/Hg0Ovp8hCHaTbU1jwJ1eld5CvfZ7HcdmUOmYqRZInYvXIGTyuBFZGwWOFkakp8UoFCdLusKgRkTWuHJgTl4f8F/EfxLEDbN9USwuA/sC9X1I68Tb4KhMzDJLgmBHoMw2f97BB/ZjwCvT3FVzx5iyHB6+Wqkjt2C9ct8sdBvI/ymdq261Ws0ch58OslwZPMexCudCE/OXkRq33n4qNqJoKjrROBB4Ilvsv7B8+D5eiZAngfPN64vcXtvLBhZjp+3xKH3FOf6l/QAgMgC1pbaSAv7HZGZWbh7agf2XcmFIjsVj3KeooTnwCmU46jKqqS8SFGZ+mqhYX/N+uQqxl6jc1J2UqUNIhB48DWqAZIXIL+i6iqJ2Y2DD9/D5/N7Q3kTTTW3asj99dL42FU//5U0cZ4ywvAZE9DqyQHMeX8B/hv8C4I2zYVnsBh9HEQa9KkL81HqY7K+uUh2ejlWp47FlvXL4LvQDxv9pqI6rY7EPJ9OkB3ZjD3KA4J/chYXU/ti3kf9URERVQjNR2HqSDMk7l6IFSdTUIZSJEfGIouTIS35CQoEQ9Xn+Jq8zTnhBcRpLTur0aWDqSYb88g96wePf6/DhRrnFI1GdZHxG03RPTq3Zw2NthGTQGRJQ5bspJMx9b0q/C+6vG4otTY0JGun8bTxwmla4tyWBk5fQwev5xBREd056EtDHExIom1IrfvOpn2xRcqmnIwitntSLxsTMrZ1oVEfr6FZveyo96TPaO+1jIbb5kfTkRWuZCHSIunETXQ6Lp7+3DOP+hgLqZmTF+26nKYqZMN9FUbRrn87knmPT+hMioKIS6Pzy/qQoUBI5v0X0MFbj+nOidU0vIWIxLbutP5UPFHpFVrRpw11fdeTlq7xp2WzZ1PAeeWidEXCXvq31ITekbrTprCnVHjnBK0e3oJEYltyX3+CwsMO0/J3rUgksia3lYfpRo6mpewy+mXWSPK/XXNFPkdpR+dRD0sDMmkzgLx2XKAfPG3I2H4kfXEmlA4vf5esRCKydltJh2/kEEekIscpipen0dF5PcjSwITaDPCiHRd+IE8bY7IfuZGuZTU8vvoouhNEvkOkZG5gRNYuk2jTn1nEERGXdpTm9bAkA5M2NMBrB134wZNsjO1p5MZrlE8KStj7b5KavENS900U9pSIiu7QQd8h5GAiIW3D1tR39j6qcpW0QzTFRkICgCAQkFBLhwwt2tJAnwN0t5SIqJySjq+k0c5ONGiiN304cyr5fB1KmRwRlxupQSd2NHbD6ReqEyUlFLrAmUZ9l6Z2v/Jbn1MXbSvqNcGL5i78hOZOGUsen52g5IqHJppqa/V6r8uz2Y8jWcR28uxlQybGtuQy6mNaM6sX2fWeRJ/tvUYZ5Wp0Wb8QFOQ7hKTmBmRk7UKTNv1JWUoh1PajGm/Krg6S7xAHMpFok2HrvjR7X6zyAVkujQ5NsSGJAAQISCDUIh1DC2o70IcOKJ2IypOO08rRzuQ0aCJ5fziTpvp8TaFKJ6LIw8vpXSsRiazdaOXhG5SjdCI6sXo4tRCJyW7sBjodX6JBbzXJp9s/f0qDLUSkJfWgr07G0r1Lu2l+X2MS6TnTnD1hlJ7auL5KQheQ86jvKE2doxHRX5fX0dDWhmRo7UTjN16g00ucqe3A6bTm4AW69PMKcrUQkZZ0Im06HUfxf+6heX2MSdjMibx2XVbpO5+ij2jev0F9UiHdOb6ahluLSGw/jr48EUPJUb/Q2tGtSSS2p7EBv9LtRzcoeNX/kbVITHZjAygkoZSKHhyndVMGUvcBY8hz7jzy/mgtnXhYTEQc5UY2lFsbyP1qaVzsqp3/Llx6tnkqyJeGSM3JwMiaXCZtoj+zqiVoWJ9EpCEmH8aqzAElHKUdmkI2EgEBIIFASFo6hmTRdiD5HLirfMirPImOrxxNzk6DaKL3hzRzqg99HZrZoE44WQRt9+xFNibGZOsyij5eM4t62fWmSZ/tpWsZnNocX4e3MicoeZ44fVDHzmp0SZpsrKCE7cOpueVI2plY99FQTQiIqP6r4QwG47ng047DP/Ap3vd0Ap8jQ0GhHIWydNz+aT8yvEOwbajqdYvXAD4FOz3Xw/ybQIwzUf2xGkXUKrj0PoZRV29irZPqJRPGC4NPw3H/QDx93xNOfA5kBYWQF8qQfvsn7M/wRsi2oXWufr0Z8EjZ6Yn15t8gUJ2jMRpPI2P3zYZH2nF/BD59H55OPHJkBSiUF0KWfhs/7c+Ad8g2vI5p9YXyj80JrwcvctUCg8GohE/DAd8FuG3/Hjrbt0fXHn0xcMhQjBg3Hm4u3dGhzr23vxeuMA+yEh6FV3fgrNUUjGjspFr3firjhcEj7YAvFty2x3ud7dG+aw/0HTgEQ0eMw3g3F3TvYN/wsoPXFa4QebIS8IVXseOsFaY02tEYDfHMsfsGwqcdgO+C27B/rzPs23dFj74DMWToCIwb7waX7h3qLmn4x/EPzAmvGexKMYPxMuAzcezjIZgWVArnUSPQW2oBXa4AqYmZMBuzCn4ftHl9kpciGv69umPtfSM0dxiL7ad3YEzF684aouSPj9H+vZN47/Qd/PfdBh/pYTwXPDKPfYwh04JQ6jwKI3pLYaHLoSA1EZlmY7DK7wO0eW2cqDEoEO3fC93X3odRcweM3X4aO8ZUvHKJ8Ww8Q+y+yfCZx/DxkGkIKnXGqBG9IbXQBVeQisRMM4xZ5YcP3qyAeAb+aTnh9YMVxQzGS6MUaeEncfxiDNLlIpjYdMPQMe+h0zuNfT/gq0KB5N92IijWDMOmTYCLufpJtTThLPb9fAlJBQqIjW0xaMIMuNq/4FcqMqooTQvHyeMXEZMuh8jEBt2GjsF7nd6p9TnwNwVF8m/YGRQLs2HTMMHFnBXEz03TYvcfQWkawk8ex8WYdMhFJrDpNhRj3uuE1y6tvkT+STnhdYMVxQwGg8FgMBiMt5634LSSwWAwGAwGg8FQDyuKGQwGg8FgMBhvPawoZjAYDAaDwWC89bCi+JVShORbt5Fa45PdrzslaTG4W/WVvNcb/mkiYhLy2VvCGAwGg8FgNJl/VFHMZ4Thp28W4P2B/dCv/yh89J+D+DO58lubpUj4Yw/Web2H/q6T8dmu80hQ+dz6y4ZP+g7TeveB9/4nr1fhVvonVvZphwGLzyCr8pOL+bdw8BNXODgMwrrLyk8pvrZwqfhjkyd62HWAx3f3GvEpagbj76Xg1w/RxXE41oc9Vf2JwWAwGH8T/6iiWGjVCx4fz4ZzcQTCs6SYPG8K+ttUvqREAochM7F4bCvI7SdhhbcrHF7xZ1+EtrPxw7Wr2DX99Xo3Z9nN4/gd47H+8/dgUSGY0NgJkxaOgfRNeDmJqBWG+Hpj4DtU9V31vx8e2Tdv4GHlORnjtYHPvokbf6thCnHh1z9h5bMRi3oZqP7IYDAYjL+J16k2ezEIzPCOiQACA2MY1zM6oZEJWpq98zd9OEEPNk5d0EpHdfvfCYeU5JZYesgP/Y1q/yI0NICeoPa21xaRMYwNXyNhi8Lxzap9uM8uW79mFCH8m1XY93capuwOcrt9gwO+nfBapQIGg8F4yxGtWbNmjerGl05JEi4e3IV9v15GIt8C7exMoKW6z7NCRbgRtBkhxQPg4zWw6spnJVzKWfz8wBET3m1Z8aLrIqTEPILC3AzirDiER+dAYmUOvRrtFLn3cT08Cgk5gLGlCXTqKbYBAPxTPLqTBrGZIeQPI3D9QQmMrExr7V+SFo37cnOY61cXcPL0GETcjEe2wBSWxhIIAKDgPq6ERiDuQQISEqr/HmbyMGtpBh2BArn3ryM8KgE5MIaliU7DZzh8Ph5GhCMuRwhjrSLIyAAGVd9aIAj0tCBPfYxiXQuY6dV4/Xf5bfz41W+QvL8I49pXn0ZwskRE3ohBSrEuLMz01LwwnMfTR3eQJjaDofwhIq4/QImRFUx1hOAzonDuyi3cT3gCzqwVzLQycPPsZdx+kIhccQu0NKn2iHr1U4EiLwE3ImKRJRDg/s97EWPniQ+HVtpWfdtqGpazJg32JU9BzMMymOkXICYyDWJRAr6fPQX+V7XQrqMpFOVGsLHQg0BdH0UpiHmkgLmZGFlx4YjOkcDKXK+2TeXpiIm4ifhsAUwtjSGpOZiyLNyLuI7YdAWMrEyhW7NhQ+1U5Na2NKvdrgLN/s8jI+ocrty6j4QnHMxamUEr4ybOXr6NB4m5ELdoCaU5X2CsVVCWdQ8R12ORrjCClalutb4Uubh/PRxRyo5goiME+GyEbfPCFP+r0GrXEaaKchjZWChP/BrSEQCUZCA2PBL38wQwsjCGjqoTcTIkRt5ATEoxdC3MUDOEADlSYh6izEwfBTGRSNO2hJl+K3TrIkFiQjHMzfUrfKAJ8cxgMBiMl8Krz7tFEdjg5gzXmUvh57cMs4a6YKj/VRSq7vfS4ZEdsR8LBjtAOjwAh3fPhtuISZg6ois6uQcigQMADokHp6PXuG9wO+cJrga4QdrPD9fkqn1xSL20DV49bNB+0jYE+Q1Dt55D8W5vR0iH+ONKAcDLbuHw0mFwaDMAfpcqnrTjM3BmrTcWBYYi+vpPWNRPigErzyGXB8ru7sf6wHCk5eUjPz8fOTd2wnv0OCw/mQURJeLg9F4Y981t5Dy5igA3Kfr5XUMdsQCgLBpbPX1xKFWBkjt7MLnXB/g+qeIqWX4Ytnh6YFlwDFLij2NR//Zw87+A7AYXPOcjbIsnPJYFIyYlHscX9Ud7N39cqKcBl3oJ27x6wKb9JGwL8sOwbj0x9N3ecJQOgf+VAghNW6Nl5g+YPcYbu+8oAJEpWlnEY+vk0fgkOB0c1OsHkCPmu6lw89qNqLQEnFjhi8D7NW6Jq21bjSY51falyELYnvkY7CDF0DU78eUH/dCnd3dM/e4RdE30wfOlKMrPR4FcoaaPbETsX4DBDlIMDziM3bPdMGLSVIzo2gnugQlKPYBHxpm18F4UiNDo6/hpUT9IB6zEuVxe6ccX12Oa539wLjkL0dtGQ+rii2MZyt/qbZf9pB65e2DGgdzaymm0/wth2rolMn+YjTHeu6E0ZytYxG/F5NGfIDi9/AXGWgV8Ni6unwbP/5xDclY0to2WwsX3GDJ4gEs8iOm9xuGb2zl4cjUAbtJ+8LsmB5+fjlxdE+jzPEqL8pFfIIeiIR1VOErBtY1wH7UaYeUSFJyai16O3TF42AiMW3cBcgD5YVvg6bEMwTEpiD++CP3bu8H/QjZ48MgK24P5gx0gHboGO7/8AP369EYPz524cHgphjm0wcB1l1EGAFwT4pnBYDAYLw96pXD05PuRZCAAAdV/Ar1h9N/HnOrOzwaXSTuGaZOWsz/Flqv+SFT65xIavewalRIRkYIeftWXtA1daP6xRColovz/TSYLST/66qGCSHGXNvRsRs5+MVROROURy6mjTldadauejqmUri5uR1pWQ2j1mcdUTkV0Z9dYshZpk/Oa21RORFzGdnKVGNKEn4qIiKPMw5Np8LKwClk4St48kLS1nGjVrXIqjz1JJ+9VHOfpVfrMWZ+M+39Bt0qIFHc3UM9mzuQXU05E5RSxvCPpdF1F9YlVenUxdez6KYUVk1L/QetoW1w5Ecno9BwpOS4IpeKKfYsuLyJHbSua+OMT4oiI/tpLo3RMaNL/lHvITs8hqeMCCq1uQIsctclq4o/0pB7zlV5dTO20rGjI6jP0uJyo6M4uGmstIm3nNXS7nEhxZx310GlHi68oNUClV2hxO13q/cUDUmjQT9HlJdTZfgYdk1UcrPAkzbLWon8tuUalGtqqol5ODX1xybR5kDbpdppPv2fJKO7cGbqdW07p37qSjrUXnS5RtlHbh+IhfdVXmwxd5tOxxFIiyqf/TbYgSb+v6KGCiMs8TJMHL6OwCjVxyZtpoLYWOa26RaUZh8jDwY22JysNUB77FQ00bUHTjxaqbVder9wqRmyS/yvozroepNNuMVWbczG10+1NXzxQvOBY4yjjkAc5uG0n5bDLKfargWTaYjodLVTQ3Q09qZmzHynDI4KWd9ShrqtuKWMw/Vty1bEmL6Vh1OuoPIbWdtcnl7VxpCAiKo+kzzpLqM28i0o7yk7THKkjLagOCLq8yJG0rSbSj0+4CjsPIm3dTjT/9yySxZ2jM7dzieMyaLurhEwm/Y+KqWnxzGAwGIyXxyu+UswjIzkVJSpPQ1FpKpIev6A1fkIBBAIBgAYeuuI5QFQ5bBH09fUgMugKNzc7aAPQk7ZFK2EB8vMIEEnhs/8SgnxtkXpxD77cGwYZX4rikrpXRgEhdHV1IDLvgzGu1hCjGRw9/eDdlRATGopMHhAaGKB61YQcF4+eQdr9k9gUEICAgC8RVOyGNf7T4KwLiDuMwIh2YoDPxZlPZ+A/jwdj497F6CoBRFIf7L8UBF/bVFzc8yX2hsnAlxajPrHE1lLYJH+N0QOmY8OROGh5rMTH7cVA3gns+jEVDl2cqtY1NuvpAXdpDk4eCkG+Sj9AHk7s+hGpDl3gVN0AHu5S5Jw8hJC6DSDU1YWOyBx9xrjCWgw0c/SEn3dXUEwoQjW+5k2dfgpxZsc+JHYahMHGFbvr2MHWqmrRhJq2NQ5RgXo5C9X3JdSFrrYQhi6u6G9ujPaubuhsqhpWGuQR6UNfTwSDrm5ws9MGoAdp21YQFuQjjwD5xaM4k3YfJzcFICAgAF8GFcNtjT+mOetCFnIYZyROcLFUHlPcYTEu5qZhn7ue2naNkrtJ/q+JFxlrMoQcPgOJkwuUwxajw+KLyE3bB3c9EaQ++3EpyBe2qRex58u9CJPxKC0uqfeNL2p1pEhCYmoZhIKKoBXbwa4VkJ6UhGIAeSd24cdUB3SpDgj09HCHNOckDoXkV+QEbQgNXeDa3xzG7V3h1tkUQqEBDPSrdd2UeGYwGAzGy0N19n7JiOHQwxkWKotQhWbO6NmuapHrc6KLZjpCkLwIRfVMKvzTQkDPoGrNqbKArkYgEkEAAk8AIIS4OApbvX2wJ70LZvoMgZWw3lK7fsRt0KGtHlBeilICIBCg6nD8U2TnFkPi6I4ly5djeeXfsgUY3a5y/S6PtGBfzN5dignbAzGrTYXUQjGKo7bC22cP0rvMhM8QKzQklrD1LBw4uxMeBqFYP6Eb2vWZj6MpHLjMFDyW8ygrq/HSZLEtbKyFKMuX4S9V3XGZSHksB19WhuoWYtjaWENYlg9ZnQb1IUabDm2hh3KUljYgcCXq9OOQgXsP8gGRuH4HVte2SrfqqCFn8V+a+1JdY6qKRnlq+AUAQACRSAAQDwKPp9m5KJY4wn1JjbbLl2HBaAcUZOWgJD8PsjrqVNeunfJBU01yP6//q/DCYo3LRVZOCfLzZPWe+ArFxYja6g2fPenoMtMHQ6yE9e6nUUfaPTFyWHPEn/8NjzgApXdxL9kErqMGQh8cMlMeQ86XoXYI2cBaWIZ82V8VRXh9SlaxdxPimcFgMBgvj3pripeJ/v+tw875PfCOWKCc/E2cMXfnF3CvvOL33GjDzr4VBGn3EV9noTKHpOjHMG3XWs3DYTUoPI2FY1Ygd/y3WDvJGRaV9ZS6CYuoxhWpcshLeFg4dkQL1QMKDdHCqhnuBe/GeVn1Zi4xBKeilVfNFfGB8J73Kww//B5bxllBCB6yrFzkn16IMStyMf7btZjkbFH1Jo36xOJSY/G4lSe2nr+HuBMr0DllB3zXn4OiRVu0MeQQd+Nm9dpFvgylZUK07OIEK1XPELVA2zaG4OJu4GZ1A5SVlkHYsguc6jSohEA16uVyeQl4C0d0bCECRGKIqoqiaog49fqJMYSZqRglsTcRpfKuaeJ59W0rdFuXBuRsafIMfanwTPJUIoRhCys0uxeM3bUbI+RUHN5pbQ3dzBD89Fte1U98bggCgx5Ar8F20Y17l3MT/V8kFlUU8jUhUGPeftaUY4mao7W1LjJDfkL1sHnkhgQiKL4ApxeOwYrc8fh27SQ4q+1InW6joRCaw33zDnhKzmPL2s3YtOEodJeG4ICXLUQQoUXbNjDk4nCjOiDAl5WiTNgSXZysGp1cC5sQzwwGg8F4eTQ2b784hFYYuekqHsaH4cKFa4hPDMfWMdYvUBBt9Jo1B32F57B1w3lkVk3IZUi/EICl5zvCc5hexTYeHKcA8TUKMyKAePA8D77gIRIzC5ES/wiFJakIPXENGZwcBRlRCI+tU3EDAPjsZCRV/MSnH8fx6I7w+WiIcokCz4EnAs8DgB6GzpgEu6RAeAyaDP/vg3FkfwC8Pr0KPXsxIL+BL2Yux5U2y7B3vStMAOVt42NnkfEwEZmFKYh/VIiS1FCcuJYBTl6AjKhwqIrFpQZjY2Ak5NCB7f+twOfjbdFMogOB0UjM8+kE2ZHN2BOv/DgH/+QsLqb2xbyP+kMCABwHDgSe5wEYYeQ8H3SSHcHmPfHKB4T4Jzh7MRV9532E/g2985nPRnK1QnD8eDQ6+nyEITqAyMIaltppCPs9EplZd3Fqxz5cyVUgO/URcp6KGtaPgxVGTR0Js8TdWLjiJFLKgNLkSMRmcZClJeNJgaDhtvYNXCluUE4NdoKyelGU1ywzhdDRkQB/ZSA9Lxvhlx+ir7o+eA6cgsDXKCiVbsiD5wG9oTMwyS4JgR6DMNn/ewQf2Y8Ar09xVc8e7wyfgQmtnuDAnPex4L/B+CVoE+Z6BkPcxwGGatqJ65W7Nk3zfxEsrC2hnRaG3yMzkXX3FHbsu4JcRTZSH+XgacmLjDUjDJ8xAa2eHMCc9xfgv8G/IGjTXHgGi9HHvhAPEzNRmBKPR4UlSA09gWsZHOQFGYgKj4VQRwcS/IWM9Dxkh1/Gw77qdCTD6eWrkTp2C9Yv88VCv43wm9oVlefvRiPnwaeTDEc274EyhHg8OXsRqX3n4aOqgCBAUa5yEsKD46HUBXgUqIvnv3Jx1s8D/153ATXKdgaDwWC8DFQXGf8z4Cjnyrc0+90u5Ni1L7kOG0quA/vTu1M30O8p1U+v5EcfoRWuFiTSktLETacpLv5P2jOvDxkLm5GT1y66nJpKR+f1IEsDE2ozwIt2XPiBPG2MyX7kRrqWX+uARFROtz7vQtpWvWiC11xa+MlcmjLWgz47kax8SKfwDp1YPZxaiMRk676eTsWXEFER3TnoS0McTEiibUit+86mfbFFRFRCV5d3Jh2hMTlPWkyffvopffrpUlowfQD969+H6WnaUZrXw5IMTNrQAK8ddOEHT7IxtqeRG6+RqlilV1ZQnzZd6V3PpbTGfxnNnh1A5yufiitPouMrR5Oz0yCa6P0hzZzqQ1+HZiofsiu+RydXuZGlSEQ27uvpWOxfRFROScdX0mhnJxo00Zs+nDmVfL4Opcx6HrIjIiq/9Tl10baiXhO8aO7CT2julLHk8dkJSlZU7vEXXV43lFobGpK103jaeOE0LXFuSwOnr6GD13PU6IeIOBlFbPekXjYmZGzrQqM+XkOzetlR70mf0d5rGerbqqBZzgb64nIp8vByetdKRCJrN1p5+AblVOhCkbCX/i01oXek7rQp7GnDfVA+RR9ZQa4WItKSTqRNp+Mo/s89NK+PMQmbOZHXrsuUxhEV3TlIvkMcyESiTYat+9LsfbFUOZqiO0HkO0RK5gZGZO0yiTb9maW0ITXQTo3cteDSmuD/RPTXZVo3tDUZGlqT0/iNdOH0EnJuO5CmrzlIFy79/AJjjZT6DPKlIVJzMjCyJpdJm+jPLOXDbWlH51EPSwMyaTOAvHZcoB88bcjYfiRtvJZPpEigvf+Wksk7UnLfFEZPG9IRKcd/aIoNSQQgQEACoRbpGFpQ24E+dOCu8sm88qTjtHK0MzkNmkjeH86kqT5fU2imUo7cyMO0/F0rEomsyW3lYbqRwxFRId05sZqGtxCR2G4sbTgdT5y6eFYk0Pbhzcly5E5KrPJHBoPBYLwMBERvwifL3gQUiFrlgt7HRuHqzbVwauCC5NuEImoVXHofw6irN7H2NVbImyIn4xXDp+G4fyCevu8JJz4HsoJCyAtlSL/9E/ZneCNk21DlHRUGg8Fg/CN4casWGFU05pGzt4o3RSFvipyMVwCPtAO+WHDbHu91tkf7rj3Qd+AQDB0xDuPdXNC9Q8USFAaDwWD8Y2BF8QtDgby8v8AV5EKmXKL71qPIy8NfXAFyX3OFvClyMl4tYmNL6P4xHz2HTMH8lf5Yv241ls6Zig9/scdsrzaNe1iXwWAwGG8MbPnEC6EUCWf34edLSShQiGFsOwgTZrjC/kW9Ze4NpDThLPb9fAlJBQqIjW0xaMIMuL6GCnlT5GT8PZSmhePk8YuISZdDZGKDbkPH4L1O77CCmMFgMP6BsKKYwWAwGAwGg/HWw5ZPMBgMBoPBYDDeelhRzGAwGAwGg8F462FFMYPBYDAYDAbjrYcVxQwGg8FgMBiMtx5WFDMYDAaDwWAw3npYUcxgMBgMBoPBeOthRTGDwWAwGAwG462HFcUMBoPBYDAYjLceVhQzGAwGg8FgMN56WFHMYDAYDAaDwXjrYUUxg8FgMBgMBuOthxXFDAaDwWAwGIy3HlYUMxgMBoPBYDDeelhRzGAwGAwGg8F462FFMYPBYDAYDAbjrYcVxQwGg8FgMBiMtx5WFDMYDAaDwWAw3npYUcxgMBgMBoPBeOthRTGDwWAwGAwG462HFcUMBoPBYDAYjLceVhQzGAwGg8FgMN56WFHMYDAYDAaDwXjrYUUxg8FgMBgMBuOthxXFDAaDwWAwGIy3HlYUMxgMBoPBYDDeelhRzGAwGAwGg8F462FFMYPBYDAYDAbjrYcVxQwGg8FgMBiMtx5WFDMYDAaDwWAw3npYUcxgMBgMBoPBeOthRTGDwWAwGAwG462HFcUMBoPBYDAYjLee/we/ChdyvgjozwAAAABJRU5ErkJggg==;" vertex="1" parent="1">
          <mxGeometry x="420" y="-30" width="709" height="314" as="geometry" />
        </mxCell>
      </root>
    </mxGraphModel>
  </diagram>
</mxfile>
